G04 #@! TF.GenerationSoftware,KiCad,Pcbnew,(5.1.9)-1*
G04 #@! TF.CreationDate,2021-08-28T00:29:07+02:00*
G04 #@! TF.ProjectId,pcb,7063622e-6b69-4636-9164-5f7063625858,Rev. A*
G04 #@! TF.SameCoordinates,Original*
G04 #@! TF.FileFunction,Soldermask,Bot*
G04 #@! TF.FilePolarity,Negative*
%FSLAX46Y46*%
G04 Gerber Fmt 4.6, Leading zero omitted, Abs format (unit mm)*
G04 Created by KiCad (PCBNEW (5.1.9)-1) date 2021-08-28 00:29:07*
%MOMM*%
%LPD*%
G01*
G04 APERTURE LIST*
%ADD10C,1.440000*%
%ADD11O,1.700000X1.700000*%
%ADD12R,1.700000X1.700000*%
%ADD13O,1.600000X2.400000*%
%ADD14R,1.600000X2.400000*%
%ADD15R,0.450000X0.600000*%
%ADD16C,1.800000*%
%ADD17R,1.800000X1.800000*%
%ADD18R,0.650000X1.060000*%
%ADD19C,0.800000*%
%ADD20C,6.400000*%
%ADD21R,1.060000X0.650000*%
%ADD22R,3.300000X2.410000*%
%ADD23R,1.500000X2.000000*%
%ADD24R,3.800000X2.000000*%
%ADD25O,1.905000X2.000000*%
%ADD26R,1.905000X2.000000*%
%ADD27O,3.500000X3.500000*%
%ADD28R,2.000000X2.000000*%
%ADD29R,0.900000X0.800000*%
%ADD30R,0.600000X0.450000*%
G04 APERTURE END LIST*
D10*
X146780000Y-102200000D03*
X144240000Y-102200000D03*
X141700000Y-102200000D03*
D11*
X105000000Y-113940000D03*
X105000000Y-111400000D03*
X105000000Y-108860000D03*
X105000000Y-106320000D03*
X105000000Y-103780000D03*
X105000000Y-101240000D03*
X105000000Y-98700000D03*
X105000000Y-96160000D03*
X105000000Y-93620000D03*
X105000000Y-91080000D03*
X105000000Y-88540000D03*
D12*
X105000000Y-86000000D03*
D10*
X152800000Y-134480000D03*
X152800000Y-131940000D03*
X152800000Y-129400000D03*
D13*
X131800000Y-113280000D03*
X147040000Y-120900000D03*
X134340000Y-113280000D03*
X144500000Y-120900000D03*
X136880000Y-113280000D03*
X141960000Y-120900000D03*
X139420000Y-113280000D03*
X139420000Y-120900000D03*
X141960000Y-113280000D03*
X136880000Y-120900000D03*
X144500000Y-113280000D03*
X134340000Y-120900000D03*
X147040000Y-113280000D03*
D14*
X131800000Y-120900000D03*
D10*
X133380000Y-128900000D03*
X130840000Y-128900000D03*
X128300000Y-128900000D03*
D11*
X155000000Y-90920000D03*
X155000000Y-93460000D03*
D12*
X155000000Y-96000000D03*
D11*
X158000000Y-147080000D03*
X158000000Y-144540000D03*
D12*
X158000000Y-142000000D03*
D11*
X165080000Y-136000000D03*
X162540000Y-136000000D03*
D12*
X160000000Y-136000000D03*
G36*
G01*
X149650001Y-125200000D02*
X148749999Y-125200000D01*
G75*
G02*
X148500000Y-124950001I0J249999D01*
G01*
X148500000Y-124249999D01*
G75*
G02*
X148749999Y-124000000I249999J0D01*
G01*
X149650001Y-124000000D01*
G75*
G02*
X149900000Y-124249999I0J-249999D01*
G01*
X149900000Y-124950001D01*
G75*
G02*
X149650001Y-125200000I-249999J0D01*
G01*
G37*
G36*
G01*
X149650001Y-127200000D02*
X148749999Y-127200000D01*
G75*
G02*
X148500000Y-126950001I0J249999D01*
G01*
X148500000Y-126249999D01*
G75*
G02*
X148749999Y-126000000I249999J0D01*
G01*
X149650001Y-126000000D01*
G75*
G02*
X149900000Y-126249999I0J-249999D01*
G01*
X149900000Y-126950001D01*
G75*
G02*
X149650001Y-127200000I-249999J0D01*
G01*
G37*
G36*
G01*
X134900000Y-136545000D02*
X134900000Y-136845000D01*
G75*
G02*
X134750000Y-136995000I-150000J0D01*
G01*
X133100000Y-136995000D01*
G75*
G02*
X132950000Y-136845000I0J150000D01*
G01*
X132950000Y-136545000D01*
G75*
G02*
X133100000Y-136395000I150000J0D01*
G01*
X134750000Y-136395000D01*
G75*
G02*
X134900000Y-136545000I0J-150000D01*
G01*
G37*
G36*
G01*
X134900000Y-137815000D02*
X134900000Y-138115000D01*
G75*
G02*
X134750000Y-138265000I-150000J0D01*
G01*
X133100000Y-138265000D01*
G75*
G02*
X132950000Y-138115000I0J150000D01*
G01*
X132950000Y-137815000D01*
G75*
G02*
X133100000Y-137665000I150000J0D01*
G01*
X134750000Y-137665000D01*
G75*
G02*
X134900000Y-137815000I0J-150000D01*
G01*
G37*
G36*
G01*
X134900000Y-139085000D02*
X134900000Y-139385000D01*
G75*
G02*
X134750000Y-139535000I-150000J0D01*
G01*
X133100000Y-139535000D01*
G75*
G02*
X132950000Y-139385000I0J150000D01*
G01*
X132950000Y-139085000D01*
G75*
G02*
X133100000Y-138935000I150000J0D01*
G01*
X134750000Y-138935000D01*
G75*
G02*
X134900000Y-139085000I0J-150000D01*
G01*
G37*
G36*
G01*
X134900000Y-140355000D02*
X134900000Y-140655000D01*
G75*
G02*
X134750000Y-140805000I-150000J0D01*
G01*
X133100000Y-140805000D01*
G75*
G02*
X132950000Y-140655000I0J150000D01*
G01*
X132950000Y-140355000D01*
G75*
G02*
X133100000Y-140205000I150000J0D01*
G01*
X134750000Y-140205000D01*
G75*
G02*
X134900000Y-140355000I0J-150000D01*
G01*
G37*
G36*
G01*
X139850000Y-140355000D02*
X139850000Y-140655000D01*
G75*
G02*
X139700000Y-140805000I-150000J0D01*
G01*
X138050000Y-140805000D01*
G75*
G02*
X137900000Y-140655000I0J150000D01*
G01*
X137900000Y-140355000D01*
G75*
G02*
X138050000Y-140205000I150000J0D01*
G01*
X139700000Y-140205000D01*
G75*
G02*
X139850000Y-140355000I0J-150000D01*
G01*
G37*
G36*
G01*
X139850000Y-139085000D02*
X139850000Y-139385000D01*
G75*
G02*
X139700000Y-139535000I-150000J0D01*
G01*
X138050000Y-139535000D01*
G75*
G02*
X137900000Y-139385000I0J150000D01*
G01*
X137900000Y-139085000D01*
G75*
G02*
X138050000Y-138935000I150000J0D01*
G01*
X139700000Y-138935000D01*
G75*
G02*
X139850000Y-139085000I0J-150000D01*
G01*
G37*
G36*
G01*
X139850000Y-137815000D02*
X139850000Y-138115000D01*
G75*
G02*
X139700000Y-138265000I-150000J0D01*
G01*
X138050000Y-138265000D01*
G75*
G02*
X137900000Y-138115000I0J150000D01*
G01*
X137900000Y-137815000D01*
G75*
G02*
X138050000Y-137665000I150000J0D01*
G01*
X139700000Y-137665000D01*
G75*
G02*
X139850000Y-137815000I0J-150000D01*
G01*
G37*
G36*
G01*
X139850000Y-136545000D02*
X139850000Y-136845000D01*
G75*
G02*
X139700000Y-136995000I-150000J0D01*
G01*
X138050000Y-136995000D01*
G75*
G02*
X137900000Y-136845000I0J150000D01*
G01*
X137900000Y-136545000D01*
G75*
G02*
X138050000Y-136395000I150000J0D01*
G01*
X139700000Y-136395000D01*
G75*
G02*
X139850000Y-136545000I0J-150000D01*
G01*
G37*
D11*
X159920000Y-104000000D03*
X162460000Y-104000000D03*
D12*
X165000000Y-104000000D03*
D11*
X159920000Y-120000000D03*
X162460000Y-120000000D03*
D12*
X165000000Y-120000000D03*
D11*
X161000000Y-96080000D03*
X161000000Y-93540000D03*
D12*
X161000000Y-91000000D03*
G36*
G01*
X153700000Y-73849999D02*
X153700000Y-74750001D01*
G75*
G02*
X153450001Y-75000000I-249999J0D01*
G01*
X152749999Y-75000000D01*
G75*
G02*
X152500000Y-74750001I0J249999D01*
G01*
X152500000Y-73849999D01*
G75*
G02*
X152749999Y-73600000I249999J0D01*
G01*
X153450001Y-73600000D01*
G75*
G02*
X153700000Y-73849999I0J-249999D01*
G01*
G37*
G36*
G01*
X155700000Y-73849999D02*
X155700000Y-74750001D01*
G75*
G02*
X155450001Y-75000000I-249999J0D01*
G01*
X154749999Y-75000000D01*
G75*
G02*
X154500000Y-74750001I0J249999D01*
G01*
X154500000Y-73849999D01*
G75*
G02*
X154749999Y-73600000I249999J0D01*
G01*
X155450001Y-73600000D01*
G75*
G02*
X155700000Y-73849999I0J-249999D01*
G01*
G37*
G36*
G01*
X160675000Y-86950000D02*
X159725000Y-86950000D01*
G75*
G02*
X159475000Y-86700000I0J250000D01*
G01*
X159475000Y-86025000D01*
G75*
G02*
X159725000Y-85775000I250000J0D01*
G01*
X160675000Y-85775000D01*
G75*
G02*
X160925000Y-86025000I0J-250000D01*
G01*
X160925000Y-86700000D01*
G75*
G02*
X160675000Y-86950000I-250000J0D01*
G01*
G37*
G36*
G01*
X160675000Y-89025000D02*
X159725000Y-89025000D01*
G75*
G02*
X159475000Y-88775000I0J250000D01*
G01*
X159475000Y-88100000D01*
G75*
G02*
X159725000Y-87850000I250000J0D01*
G01*
X160675000Y-87850000D01*
G75*
G02*
X160925000Y-88100000I0J-250000D01*
G01*
X160925000Y-88775000D01*
G75*
G02*
X160675000Y-89025000I-250000J0D01*
G01*
G37*
G36*
G01*
X152075000Y-83775000D02*
X153325000Y-83775000D01*
G75*
G02*
X153575000Y-84025000I0J-250000D01*
G01*
X153575000Y-84950000D01*
G75*
G02*
X153325000Y-85200000I-250000J0D01*
G01*
X152075000Y-85200000D01*
G75*
G02*
X151825000Y-84950000I0J250000D01*
G01*
X151825000Y-84025000D01*
G75*
G02*
X152075000Y-83775000I250000J0D01*
G01*
G37*
G36*
G01*
X152075000Y-80800000D02*
X153325000Y-80800000D01*
G75*
G02*
X153575000Y-81050000I0J-250000D01*
G01*
X153575000Y-81975000D01*
G75*
G02*
X153325000Y-82225000I-250000J0D01*
G01*
X152075000Y-82225000D01*
G75*
G02*
X151825000Y-81975000I0J250000D01*
G01*
X151825000Y-81050000D01*
G75*
G02*
X152075000Y-80800000I250000J0D01*
G01*
G37*
G36*
G01*
X162250000Y-68875000D02*
X162250000Y-67925000D01*
G75*
G02*
X162500000Y-67675000I250000J0D01*
G01*
X163175000Y-67675000D01*
G75*
G02*
X163425000Y-67925000I0J-250000D01*
G01*
X163425000Y-68875000D01*
G75*
G02*
X163175000Y-69125000I-250000J0D01*
G01*
X162500000Y-69125000D01*
G75*
G02*
X162250000Y-68875000I0J250000D01*
G01*
G37*
G36*
G01*
X160175000Y-68875000D02*
X160175000Y-67925000D01*
G75*
G02*
X160425000Y-67675000I250000J0D01*
G01*
X161100000Y-67675000D01*
G75*
G02*
X161350000Y-67925000I0J-250000D01*
G01*
X161350000Y-68875000D01*
G75*
G02*
X161100000Y-69125000I-250000J0D01*
G01*
X160425000Y-69125000D01*
G75*
G02*
X160175000Y-68875000I0J250000D01*
G01*
G37*
G36*
G01*
X153950000Y-86975000D02*
X153950000Y-86025000D01*
G75*
G02*
X154200000Y-85775000I250000J0D01*
G01*
X154875000Y-85775000D01*
G75*
G02*
X155125000Y-86025000I0J-250000D01*
G01*
X155125000Y-86975000D01*
G75*
G02*
X154875000Y-87225000I-250000J0D01*
G01*
X154200000Y-87225000D01*
G75*
G02*
X153950000Y-86975000I0J250000D01*
G01*
G37*
G36*
G01*
X151875000Y-86975000D02*
X151875000Y-86025000D01*
G75*
G02*
X152125000Y-85775000I250000J0D01*
G01*
X152800000Y-85775000D01*
G75*
G02*
X153050000Y-86025000I0J-250000D01*
G01*
X153050000Y-86975000D01*
G75*
G02*
X152800000Y-87225000I-250000J0D01*
G01*
X152125000Y-87225000D01*
G75*
G02*
X151875000Y-86975000I0J250000D01*
G01*
G37*
D15*
X149700000Y-68350000D03*
X149700000Y-70450000D03*
X149700000Y-64550000D03*
X149700000Y-66650000D03*
D16*
X165000000Y-74540000D03*
D17*
X165000000Y-72000000D03*
D10*
X148000000Y-71020000D03*
X148000000Y-73560000D03*
X148000000Y-76100000D03*
D11*
X165000000Y-96080000D03*
X165000000Y-93540000D03*
D12*
X165000000Y-91000000D03*
G36*
G01*
X157100000Y-76549999D02*
X157100000Y-77450001D01*
G75*
G02*
X156850001Y-77700000I-249999J0D01*
G01*
X156149999Y-77700000D01*
G75*
G02*
X155900000Y-77450001I0J249999D01*
G01*
X155900000Y-76549999D01*
G75*
G02*
X156149999Y-76300000I249999J0D01*
G01*
X156850001Y-76300000D01*
G75*
G02*
X157100000Y-76549999I0J-249999D01*
G01*
G37*
G36*
G01*
X159100000Y-76549999D02*
X159100000Y-77450001D01*
G75*
G02*
X158850001Y-77700000I-249999J0D01*
G01*
X158149999Y-77700000D01*
G75*
G02*
X157900000Y-77450001I0J249999D01*
G01*
X157900000Y-76549999D01*
G75*
G02*
X158149999Y-76300000I249999J0D01*
G01*
X158850001Y-76300000D01*
G75*
G02*
X159100000Y-76549999I0J-249999D01*
G01*
G37*
G36*
G01*
X150749999Y-73700000D02*
X151650001Y-73700000D01*
G75*
G02*
X151900000Y-73949999I0J-249999D01*
G01*
X151900000Y-74650001D01*
G75*
G02*
X151650001Y-74900000I-249999J0D01*
G01*
X150749999Y-74900000D01*
G75*
G02*
X150500000Y-74650001I0J249999D01*
G01*
X150500000Y-73949999D01*
G75*
G02*
X150749999Y-73700000I249999J0D01*
G01*
G37*
G36*
G01*
X150749999Y-71700000D02*
X151650001Y-71700000D01*
G75*
G02*
X151900000Y-71949999I0J-249999D01*
G01*
X151900000Y-72650001D01*
G75*
G02*
X151650001Y-72900000I-249999J0D01*
G01*
X150749999Y-72900000D01*
G75*
G02*
X150500000Y-72650001I0J249999D01*
G01*
X150500000Y-71949999D01*
G75*
G02*
X150749999Y-71700000I249999J0D01*
G01*
G37*
D11*
X165000000Y-78380000D03*
X165000000Y-80920000D03*
X165000000Y-83460000D03*
D12*
X165000000Y-86000000D03*
G36*
G01*
X162650001Y-87000000D02*
X161749999Y-87000000D01*
G75*
G02*
X161500000Y-86750001I0J249999D01*
G01*
X161500000Y-86049999D01*
G75*
G02*
X161749999Y-85800000I249999J0D01*
G01*
X162650001Y-85800000D01*
G75*
G02*
X162900000Y-86049999I0J-249999D01*
G01*
X162900000Y-86750001D01*
G75*
G02*
X162650001Y-87000000I-249999J0D01*
G01*
G37*
G36*
G01*
X162650001Y-89000000D02*
X161749999Y-89000000D01*
G75*
G02*
X161500000Y-88750001I0J249999D01*
G01*
X161500000Y-88049999D01*
G75*
G02*
X161749999Y-87800000I249999J0D01*
G01*
X162650001Y-87800000D01*
G75*
G02*
X162900000Y-88049999I0J-249999D01*
G01*
X162900000Y-88750001D01*
G75*
G02*
X162650001Y-89000000I-249999J0D01*
G01*
G37*
G36*
G01*
X157700000Y-86950001D02*
X157700000Y-86049999D01*
G75*
G02*
X157949999Y-85800000I249999J0D01*
G01*
X158650001Y-85800000D01*
G75*
G02*
X158900000Y-86049999I0J-249999D01*
G01*
X158900000Y-86950001D01*
G75*
G02*
X158650001Y-87200000I-249999J0D01*
G01*
X157949999Y-87200000D01*
G75*
G02*
X157700000Y-86950001I0J249999D01*
G01*
G37*
G36*
G01*
X155700000Y-86950001D02*
X155700000Y-86049999D01*
G75*
G02*
X155949999Y-85800000I249999J0D01*
G01*
X156650001Y-85800000D01*
G75*
G02*
X156900000Y-86049999I0J-249999D01*
G01*
X156900000Y-86950001D01*
G75*
G02*
X156650001Y-87200000I-249999J0D01*
G01*
X155949999Y-87200000D01*
G75*
G02*
X155700000Y-86950001I0J249999D01*
G01*
G37*
G36*
G01*
X153300000Y-76549999D02*
X153300000Y-77450001D01*
G75*
G02*
X153050001Y-77700000I-249999J0D01*
G01*
X152349999Y-77700000D01*
G75*
G02*
X152100000Y-77450001I0J249999D01*
G01*
X152100000Y-76549999D01*
G75*
G02*
X152349999Y-76300000I249999J0D01*
G01*
X153050001Y-76300000D01*
G75*
G02*
X153300000Y-76549999I0J-249999D01*
G01*
G37*
G36*
G01*
X155300000Y-76549999D02*
X155300000Y-77450001D01*
G75*
G02*
X155050001Y-77700000I-249999J0D01*
G01*
X154349999Y-77700000D01*
G75*
G02*
X154100000Y-77450001I0J249999D01*
G01*
X154100000Y-76549999D01*
G75*
G02*
X154349999Y-76300000I249999J0D01*
G01*
X155050001Y-76300000D01*
G75*
G02*
X155300000Y-76549999I0J-249999D01*
G01*
G37*
G36*
G01*
X160900000Y-76549999D02*
X160900000Y-77450001D01*
G75*
G02*
X160650001Y-77700000I-249999J0D01*
G01*
X159949999Y-77700000D01*
G75*
G02*
X159700000Y-77450001I0J249999D01*
G01*
X159700000Y-76549999D01*
G75*
G02*
X159949999Y-76300000I249999J0D01*
G01*
X160650001Y-76300000D01*
G75*
G02*
X160900000Y-76549999I0J-249999D01*
G01*
G37*
G36*
G01*
X162900000Y-76549999D02*
X162900000Y-77450001D01*
G75*
G02*
X162650001Y-77700000I-249999J0D01*
G01*
X161949999Y-77700000D01*
G75*
G02*
X161700000Y-77450001I0J249999D01*
G01*
X161700000Y-76549999D01*
G75*
G02*
X161949999Y-76300000I249999J0D01*
G01*
X162650001Y-76300000D01*
G75*
G02*
X162900000Y-76549999I0J-249999D01*
G01*
G37*
G36*
G01*
X153900000Y-60349999D02*
X153900000Y-61250001D01*
G75*
G02*
X153650001Y-61500000I-249999J0D01*
G01*
X152949999Y-61500000D01*
G75*
G02*
X152700000Y-61250001I0J249999D01*
G01*
X152700000Y-60349999D01*
G75*
G02*
X152949999Y-60100000I249999J0D01*
G01*
X153650001Y-60100000D01*
G75*
G02*
X153900000Y-60349999I0J-249999D01*
G01*
G37*
G36*
G01*
X155900000Y-60349999D02*
X155900000Y-61250001D01*
G75*
G02*
X155650001Y-61500000I-249999J0D01*
G01*
X154949999Y-61500000D01*
G75*
G02*
X154700000Y-61250001I0J249999D01*
G01*
X154700000Y-60349999D01*
G75*
G02*
X154949999Y-60100000I249999J0D01*
G01*
X155650001Y-60100000D01*
G75*
G02*
X155900000Y-60349999I0J-249999D01*
G01*
G37*
G36*
G01*
X153900000Y-62349999D02*
X153900000Y-63250001D01*
G75*
G02*
X153650001Y-63500000I-249999J0D01*
G01*
X152949999Y-63500000D01*
G75*
G02*
X152700000Y-63250001I0J249999D01*
G01*
X152700000Y-62349999D01*
G75*
G02*
X152949999Y-62100000I249999J0D01*
G01*
X153650001Y-62100000D01*
G75*
G02*
X153900000Y-62349999I0J-249999D01*
G01*
G37*
G36*
G01*
X155900000Y-62349999D02*
X155900000Y-63250001D01*
G75*
G02*
X155650001Y-63500000I-249999J0D01*
G01*
X154949999Y-63500000D01*
G75*
G02*
X154700000Y-63250001I0J249999D01*
G01*
X154700000Y-62349999D01*
G75*
G02*
X154949999Y-62100000I249999J0D01*
G01*
X155650001Y-62100000D01*
G75*
G02*
X155900000Y-62349999I0J-249999D01*
G01*
G37*
G36*
G01*
X161250001Y-72900000D02*
X160349999Y-72900000D01*
G75*
G02*
X160100000Y-72650001I0J249999D01*
G01*
X160100000Y-71949999D01*
G75*
G02*
X160349999Y-71700000I249999J0D01*
G01*
X161250001Y-71700000D01*
G75*
G02*
X161500000Y-71949999I0J-249999D01*
G01*
X161500000Y-72650001D01*
G75*
G02*
X161250001Y-72900000I-249999J0D01*
G01*
G37*
G36*
G01*
X161250001Y-74900000D02*
X160349999Y-74900000D01*
G75*
G02*
X160100000Y-74650001I0J249999D01*
G01*
X160100000Y-73949999D01*
G75*
G02*
X160349999Y-73700000I249999J0D01*
G01*
X161250001Y-73700000D01*
G75*
G02*
X161500000Y-73949999I0J-249999D01*
G01*
X161500000Y-74650001D01*
G75*
G02*
X161250001Y-74900000I-249999J0D01*
G01*
G37*
G36*
G01*
X162349999Y-73700000D02*
X163250001Y-73700000D01*
G75*
G02*
X163500000Y-73949999I0J-249999D01*
G01*
X163500000Y-74650001D01*
G75*
G02*
X163250001Y-74900000I-249999J0D01*
G01*
X162349999Y-74900000D01*
G75*
G02*
X162100000Y-74650001I0J249999D01*
G01*
X162100000Y-73949999D01*
G75*
G02*
X162349999Y-73700000I249999J0D01*
G01*
G37*
G36*
G01*
X162349999Y-71700000D02*
X163250001Y-71700000D01*
G75*
G02*
X163500000Y-71949999I0J-249999D01*
G01*
X163500000Y-72650001D01*
G75*
G02*
X163250001Y-72900000I-249999J0D01*
G01*
X162349999Y-72900000D01*
G75*
G02*
X162100000Y-72650001I0J249999D01*
G01*
X162100000Y-71949999D01*
G75*
G02*
X162349999Y-71700000I249999J0D01*
G01*
G37*
G36*
G01*
X161400000Y-69949999D02*
X161400000Y-70850001D01*
G75*
G02*
X161150001Y-71100000I-249999J0D01*
G01*
X160449999Y-71100000D01*
G75*
G02*
X160200000Y-70850001I0J249999D01*
G01*
X160200000Y-69949999D01*
G75*
G02*
X160449999Y-69700000I249999J0D01*
G01*
X161150001Y-69700000D01*
G75*
G02*
X161400000Y-69949999I0J-249999D01*
G01*
G37*
G36*
G01*
X163400000Y-69949999D02*
X163400000Y-70850001D01*
G75*
G02*
X163150001Y-71100000I-249999J0D01*
G01*
X162449999Y-71100000D01*
G75*
G02*
X162200000Y-70850001I0J249999D01*
G01*
X162200000Y-69949999D01*
G75*
G02*
X162449999Y-69700000I249999J0D01*
G01*
X163150001Y-69700000D01*
G75*
G02*
X163400000Y-69949999I0J-249999D01*
G01*
G37*
G36*
G01*
X156549999Y-89600000D02*
X157450001Y-89600000D01*
G75*
G02*
X157700000Y-89849999I0J-249999D01*
G01*
X157700000Y-90550001D01*
G75*
G02*
X157450001Y-90800000I-249999J0D01*
G01*
X156549999Y-90800000D01*
G75*
G02*
X156300000Y-90550001I0J249999D01*
G01*
X156300000Y-89849999D01*
G75*
G02*
X156549999Y-89600000I249999J0D01*
G01*
G37*
G36*
G01*
X156549999Y-91600000D02*
X157450001Y-91600000D01*
G75*
G02*
X157700000Y-91849999I0J-249999D01*
G01*
X157700000Y-92550001D01*
G75*
G02*
X157450001Y-92800000I-249999J0D01*
G01*
X156549999Y-92800000D01*
G75*
G02*
X156300000Y-92550001I0J249999D01*
G01*
X156300000Y-91849999D01*
G75*
G02*
X156549999Y-91600000I249999J0D01*
G01*
G37*
G36*
G01*
X158400000Y-94550001D02*
X158400000Y-93649999D01*
G75*
G02*
X158649999Y-93400000I249999J0D01*
G01*
X159350001Y-93400000D01*
G75*
G02*
X159600000Y-93649999I0J-249999D01*
G01*
X159600000Y-94550001D01*
G75*
G02*
X159350001Y-94800000I-249999J0D01*
G01*
X158649999Y-94800000D01*
G75*
G02*
X158400000Y-94550001I0J249999D01*
G01*
G37*
G36*
G01*
X156400000Y-94550001D02*
X156400000Y-93649999D01*
G75*
G02*
X156649999Y-93400000I249999J0D01*
G01*
X157350001Y-93400000D01*
G75*
G02*
X157600000Y-93649999I0J-249999D01*
G01*
X157600000Y-94550001D01*
G75*
G02*
X157350001Y-94800000I-249999J0D01*
G01*
X156649999Y-94800000D01*
G75*
G02*
X156400000Y-94550001I0J249999D01*
G01*
G37*
G36*
G01*
X150900000Y-63250001D02*
X150900000Y-62349999D01*
G75*
G02*
X151149999Y-62100000I249999J0D01*
G01*
X151850001Y-62100000D01*
G75*
G02*
X152100000Y-62349999I0J-249999D01*
G01*
X152100000Y-63250001D01*
G75*
G02*
X151850001Y-63500000I-249999J0D01*
G01*
X151149999Y-63500000D01*
G75*
G02*
X150900000Y-63250001I0J249999D01*
G01*
G37*
G36*
G01*
X148900000Y-63250001D02*
X148900000Y-62349999D01*
G75*
G02*
X149149999Y-62100000I249999J0D01*
G01*
X149850001Y-62100000D01*
G75*
G02*
X150100000Y-62349999I0J-249999D01*
G01*
X150100000Y-63250001D01*
G75*
G02*
X149850001Y-63500000I-249999J0D01*
G01*
X149149999Y-63500000D01*
G75*
G02*
X148900000Y-63250001I0J249999D01*
G01*
G37*
G36*
G01*
X159500000Y-73849999D02*
X159500000Y-74750001D01*
G75*
G02*
X159250001Y-75000000I-249999J0D01*
G01*
X158549999Y-75000000D01*
G75*
G02*
X158300000Y-74750001I0J249999D01*
G01*
X158300000Y-73849999D01*
G75*
G02*
X158549999Y-73600000I249999J0D01*
G01*
X159250001Y-73600000D01*
G75*
G02*
X159500000Y-73849999I0J-249999D01*
G01*
G37*
G36*
G01*
X157500000Y-73849999D02*
X157500000Y-74750001D01*
G75*
G02*
X157250001Y-75000000I-249999J0D01*
G01*
X156549999Y-75000000D01*
G75*
G02*
X156300000Y-74750001I0J249999D01*
G01*
X156300000Y-73849999D01*
G75*
G02*
X156549999Y-73600000I249999J0D01*
G01*
X157250001Y-73600000D01*
G75*
G02*
X157500000Y-73849999I0J-249999D01*
G01*
G37*
G36*
G01*
X153700000Y-71849999D02*
X153700000Y-72750001D01*
G75*
G02*
X153450001Y-73000000I-249999J0D01*
G01*
X152749999Y-73000000D01*
G75*
G02*
X152500000Y-72750001I0J249999D01*
G01*
X152500000Y-71849999D01*
G75*
G02*
X152749999Y-71600000I249999J0D01*
G01*
X153450001Y-71600000D01*
G75*
G02*
X153700000Y-71849999I0J-249999D01*
G01*
G37*
G36*
G01*
X155700000Y-71849999D02*
X155700000Y-72750001D01*
G75*
G02*
X155450001Y-73000000I-249999J0D01*
G01*
X154749999Y-73000000D01*
G75*
G02*
X154500000Y-72750001I0J249999D01*
G01*
X154500000Y-71849999D01*
G75*
G02*
X154749999Y-71600000I249999J0D01*
G01*
X155450001Y-71600000D01*
G75*
G02*
X155700000Y-71849999I0J-249999D01*
G01*
G37*
G36*
G01*
X158400000Y-96550001D02*
X158400000Y-95649999D01*
G75*
G02*
X158649999Y-95400000I249999J0D01*
G01*
X159350001Y-95400000D01*
G75*
G02*
X159600000Y-95649999I0J-249999D01*
G01*
X159600000Y-96550001D01*
G75*
G02*
X159350001Y-96800000I-249999J0D01*
G01*
X158649999Y-96800000D01*
G75*
G02*
X158400000Y-96550001I0J249999D01*
G01*
G37*
G36*
G01*
X156400000Y-96550001D02*
X156400000Y-95649999D01*
G75*
G02*
X156649999Y-95400000I249999J0D01*
G01*
X157350001Y-95400000D01*
G75*
G02*
X157600000Y-95649999I0J-249999D01*
G01*
X157600000Y-96550001D01*
G75*
G02*
X157350001Y-96800000I-249999J0D01*
G01*
X156649999Y-96800000D01*
G75*
G02*
X156400000Y-96550001I0J249999D01*
G01*
G37*
G36*
G01*
X157500000Y-71849999D02*
X157500000Y-72750001D01*
G75*
G02*
X157250001Y-73000000I-249999J0D01*
G01*
X156549999Y-73000000D01*
G75*
G02*
X156300000Y-72750001I0J249999D01*
G01*
X156300000Y-71849999D01*
G75*
G02*
X156549999Y-71600000I249999J0D01*
G01*
X157250001Y-71600000D01*
G75*
G02*
X157500000Y-71849999I0J-249999D01*
G01*
G37*
G36*
G01*
X159500000Y-71849999D02*
X159500000Y-72750001D01*
G75*
G02*
X159250001Y-73000000I-249999J0D01*
G01*
X158549999Y-73000000D01*
G75*
G02*
X158300000Y-72750001I0J249999D01*
G01*
X158300000Y-71849999D01*
G75*
G02*
X158549999Y-71600000I249999J0D01*
G01*
X159250001Y-71600000D01*
G75*
G02*
X159500000Y-71849999I0J-249999D01*
G01*
G37*
G36*
G01*
X162200000Y-66850001D02*
X162200000Y-65949999D01*
G75*
G02*
X162449999Y-65700000I249999J0D01*
G01*
X163150001Y-65700000D01*
G75*
G02*
X163400000Y-65949999I0J-249999D01*
G01*
X163400000Y-66850001D01*
G75*
G02*
X163150001Y-67100000I-249999J0D01*
G01*
X162449999Y-67100000D01*
G75*
G02*
X162200000Y-66850001I0J249999D01*
G01*
G37*
G36*
G01*
X160200000Y-66850001D02*
X160200000Y-65949999D01*
G75*
G02*
X160449999Y-65700000I249999J0D01*
G01*
X161150001Y-65700000D01*
G75*
G02*
X161400000Y-65949999I0J-249999D01*
G01*
X161400000Y-66850001D01*
G75*
G02*
X161150001Y-67100000I-249999J0D01*
G01*
X160449999Y-67100000D01*
G75*
G02*
X160200000Y-66850001I0J249999D01*
G01*
G37*
G36*
G01*
X159450001Y-90800000D02*
X158549999Y-90800000D01*
G75*
G02*
X158300000Y-90550001I0J249999D01*
G01*
X158300000Y-89849999D01*
G75*
G02*
X158549999Y-89600000I249999J0D01*
G01*
X159450001Y-89600000D01*
G75*
G02*
X159700000Y-89849999I0J-249999D01*
G01*
X159700000Y-90550001D01*
G75*
G02*
X159450001Y-90800000I-249999J0D01*
G01*
G37*
G36*
G01*
X159450001Y-92800000D02*
X158549999Y-92800000D01*
G75*
G02*
X158300000Y-92550001I0J249999D01*
G01*
X158300000Y-91849999D01*
G75*
G02*
X158549999Y-91600000I249999J0D01*
G01*
X159450001Y-91600000D01*
G75*
G02*
X159700000Y-91849999I0J-249999D01*
G01*
X159700000Y-92550001D01*
G75*
G02*
X159450001Y-92800000I-249999J0D01*
G01*
G37*
G36*
G01*
X162440000Y-80240000D02*
X162140000Y-80240000D01*
G75*
G02*
X161990000Y-80090000I0J150000D01*
G01*
X161990000Y-78440000D01*
G75*
G02*
X162140000Y-78290000I150000J0D01*
G01*
X162440000Y-78290000D01*
G75*
G02*
X162590000Y-78440000I0J-150000D01*
G01*
X162590000Y-80090000D01*
G75*
G02*
X162440000Y-80240000I-150000J0D01*
G01*
G37*
G36*
G01*
X161170000Y-80240000D02*
X160870000Y-80240000D01*
G75*
G02*
X160720000Y-80090000I0J150000D01*
G01*
X160720000Y-78440000D01*
G75*
G02*
X160870000Y-78290000I150000J0D01*
G01*
X161170000Y-78290000D01*
G75*
G02*
X161320000Y-78440000I0J-150000D01*
G01*
X161320000Y-80090000D01*
G75*
G02*
X161170000Y-80240000I-150000J0D01*
G01*
G37*
G36*
G01*
X159900000Y-80240000D02*
X159600000Y-80240000D01*
G75*
G02*
X159450000Y-80090000I0J150000D01*
G01*
X159450000Y-78440000D01*
G75*
G02*
X159600000Y-78290000I150000J0D01*
G01*
X159900000Y-78290000D01*
G75*
G02*
X160050000Y-78440000I0J-150000D01*
G01*
X160050000Y-80090000D01*
G75*
G02*
X159900000Y-80240000I-150000J0D01*
G01*
G37*
G36*
G01*
X158630000Y-80240000D02*
X158330000Y-80240000D01*
G75*
G02*
X158180000Y-80090000I0J150000D01*
G01*
X158180000Y-78440000D01*
G75*
G02*
X158330000Y-78290000I150000J0D01*
G01*
X158630000Y-78290000D01*
G75*
G02*
X158780000Y-78440000I0J-150000D01*
G01*
X158780000Y-80090000D01*
G75*
G02*
X158630000Y-80240000I-150000J0D01*
G01*
G37*
G36*
G01*
X157360000Y-80240000D02*
X157060000Y-80240000D01*
G75*
G02*
X156910000Y-80090000I0J150000D01*
G01*
X156910000Y-78440000D01*
G75*
G02*
X157060000Y-78290000I150000J0D01*
G01*
X157360000Y-78290000D01*
G75*
G02*
X157510000Y-78440000I0J-150000D01*
G01*
X157510000Y-80090000D01*
G75*
G02*
X157360000Y-80240000I-150000J0D01*
G01*
G37*
G36*
G01*
X156090000Y-80240000D02*
X155790000Y-80240000D01*
G75*
G02*
X155640000Y-80090000I0J150000D01*
G01*
X155640000Y-78440000D01*
G75*
G02*
X155790000Y-78290000I150000J0D01*
G01*
X156090000Y-78290000D01*
G75*
G02*
X156240000Y-78440000I0J-150000D01*
G01*
X156240000Y-80090000D01*
G75*
G02*
X156090000Y-80240000I-150000J0D01*
G01*
G37*
G36*
G01*
X154820000Y-80240000D02*
X154520000Y-80240000D01*
G75*
G02*
X154370000Y-80090000I0J150000D01*
G01*
X154370000Y-78440000D01*
G75*
G02*
X154520000Y-78290000I150000J0D01*
G01*
X154820000Y-78290000D01*
G75*
G02*
X154970000Y-78440000I0J-150000D01*
G01*
X154970000Y-80090000D01*
G75*
G02*
X154820000Y-80240000I-150000J0D01*
G01*
G37*
G36*
G01*
X154820000Y-85190000D02*
X154520000Y-85190000D01*
G75*
G02*
X154370000Y-85040000I0J150000D01*
G01*
X154370000Y-83390000D01*
G75*
G02*
X154520000Y-83240000I150000J0D01*
G01*
X154820000Y-83240000D01*
G75*
G02*
X154970000Y-83390000I0J-150000D01*
G01*
X154970000Y-85040000D01*
G75*
G02*
X154820000Y-85190000I-150000J0D01*
G01*
G37*
G36*
G01*
X156090000Y-85190000D02*
X155790000Y-85190000D01*
G75*
G02*
X155640000Y-85040000I0J150000D01*
G01*
X155640000Y-83390000D01*
G75*
G02*
X155790000Y-83240000I150000J0D01*
G01*
X156090000Y-83240000D01*
G75*
G02*
X156240000Y-83390000I0J-150000D01*
G01*
X156240000Y-85040000D01*
G75*
G02*
X156090000Y-85190000I-150000J0D01*
G01*
G37*
G36*
G01*
X157360000Y-85190000D02*
X157060000Y-85190000D01*
G75*
G02*
X156910000Y-85040000I0J150000D01*
G01*
X156910000Y-83390000D01*
G75*
G02*
X157060000Y-83240000I150000J0D01*
G01*
X157360000Y-83240000D01*
G75*
G02*
X157510000Y-83390000I0J-150000D01*
G01*
X157510000Y-85040000D01*
G75*
G02*
X157360000Y-85190000I-150000J0D01*
G01*
G37*
G36*
G01*
X158630000Y-85190000D02*
X158330000Y-85190000D01*
G75*
G02*
X158180000Y-85040000I0J150000D01*
G01*
X158180000Y-83390000D01*
G75*
G02*
X158330000Y-83240000I150000J0D01*
G01*
X158630000Y-83240000D01*
G75*
G02*
X158780000Y-83390000I0J-150000D01*
G01*
X158780000Y-85040000D01*
G75*
G02*
X158630000Y-85190000I-150000J0D01*
G01*
G37*
G36*
G01*
X159900000Y-85190000D02*
X159600000Y-85190000D01*
G75*
G02*
X159450000Y-85040000I0J150000D01*
G01*
X159450000Y-83390000D01*
G75*
G02*
X159600000Y-83240000I150000J0D01*
G01*
X159900000Y-83240000D01*
G75*
G02*
X160050000Y-83390000I0J-150000D01*
G01*
X160050000Y-85040000D01*
G75*
G02*
X159900000Y-85190000I-150000J0D01*
G01*
G37*
G36*
G01*
X161170000Y-85190000D02*
X160870000Y-85190000D01*
G75*
G02*
X160720000Y-85040000I0J150000D01*
G01*
X160720000Y-83390000D01*
G75*
G02*
X160870000Y-83240000I150000J0D01*
G01*
X161170000Y-83240000D01*
G75*
G02*
X161320000Y-83390000I0J-150000D01*
G01*
X161320000Y-85040000D01*
G75*
G02*
X161170000Y-85190000I-150000J0D01*
G01*
G37*
G36*
G01*
X162440000Y-85190000D02*
X162140000Y-85190000D01*
G75*
G02*
X161990000Y-85040000I0J150000D01*
G01*
X161990000Y-83390000D01*
G75*
G02*
X162140000Y-83240000I150000J0D01*
G01*
X162440000Y-83240000D01*
G75*
G02*
X162590000Y-83390000I0J-150000D01*
G01*
X162590000Y-85040000D01*
G75*
G02*
X162440000Y-85190000I-150000J0D01*
G01*
G37*
G36*
G01*
X151340000Y-69000000D02*
X151640000Y-69000000D01*
G75*
G02*
X151790000Y-69150000I0J-150000D01*
G01*
X151790000Y-70800000D01*
G75*
G02*
X151640000Y-70950000I-150000J0D01*
G01*
X151340000Y-70950000D01*
G75*
G02*
X151190000Y-70800000I0J150000D01*
G01*
X151190000Y-69150000D01*
G75*
G02*
X151340000Y-69000000I150000J0D01*
G01*
G37*
G36*
G01*
X152610000Y-69000000D02*
X152910000Y-69000000D01*
G75*
G02*
X153060000Y-69150000I0J-150000D01*
G01*
X153060000Y-70800000D01*
G75*
G02*
X152910000Y-70950000I-150000J0D01*
G01*
X152610000Y-70950000D01*
G75*
G02*
X152460000Y-70800000I0J150000D01*
G01*
X152460000Y-69150000D01*
G75*
G02*
X152610000Y-69000000I150000J0D01*
G01*
G37*
G36*
G01*
X153880000Y-69000000D02*
X154180000Y-69000000D01*
G75*
G02*
X154330000Y-69150000I0J-150000D01*
G01*
X154330000Y-70800000D01*
G75*
G02*
X154180000Y-70950000I-150000J0D01*
G01*
X153880000Y-70950000D01*
G75*
G02*
X153730000Y-70800000I0J150000D01*
G01*
X153730000Y-69150000D01*
G75*
G02*
X153880000Y-69000000I150000J0D01*
G01*
G37*
G36*
G01*
X155150000Y-69000000D02*
X155450000Y-69000000D01*
G75*
G02*
X155600000Y-69150000I0J-150000D01*
G01*
X155600000Y-70800000D01*
G75*
G02*
X155450000Y-70950000I-150000J0D01*
G01*
X155150000Y-70950000D01*
G75*
G02*
X155000000Y-70800000I0J150000D01*
G01*
X155000000Y-69150000D01*
G75*
G02*
X155150000Y-69000000I150000J0D01*
G01*
G37*
G36*
G01*
X156420000Y-69000000D02*
X156720000Y-69000000D01*
G75*
G02*
X156870000Y-69150000I0J-150000D01*
G01*
X156870000Y-70800000D01*
G75*
G02*
X156720000Y-70950000I-150000J0D01*
G01*
X156420000Y-70950000D01*
G75*
G02*
X156270000Y-70800000I0J150000D01*
G01*
X156270000Y-69150000D01*
G75*
G02*
X156420000Y-69000000I150000J0D01*
G01*
G37*
G36*
G01*
X157690000Y-69000000D02*
X157990000Y-69000000D01*
G75*
G02*
X158140000Y-69150000I0J-150000D01*
G01*
X158140000Y-70800000D01*
G75*
G02*
X157990000Y-70950000I-150000J0D01*
G01*
X157690000Y-70950000D01*
G75*
G02*
X157540000Y-70800000I0J150000D01*
G01*
X157540000Y-69150000D01*
G75*
G02*
X157690000Y-69000000I150000J0D01*
G01*
G37*
G36*
G01*
X158960000Y-69000000D02*
X159260000Y-69000000D01*
G75*
G02*
X159410000Y-69150000I0J-150000D01*
G01*
X159410000Y-70800000D01*
G75*
G02*
X159260000Y-70950000I-150000J0D01*
G01*
X158960000Y-70950000D01*
G75*
G02*
X158810000Y-70800000I0J150000D01*
G01*
X158810000Y-69150000D01*
G75*
G02*
X158960000Y-69000000I150000J0D01*
G01*
G37*
G36*
G01*
X158960000Y-64050000D02*
X159260000Y-64050000D01*
G75*
G02*
X159410000Y-64200000I0J-150000D01*
G01*
X159410000Y-65850000D01*
G75*
G02*
X159260000Y-66000000I-150000J0D01*
G01*
X158960000Y-66000000D01*
G75*
G02*
X158810000Y-65850000I0J150000D01*
G01*
X158810000Y-64200000D01*
G75*
G02*
X158960000Y-64050000I150000J0D01*
G01*
G37*
G36*
G01*
X157690000Y-64050000D02*
X157990000Y-64050000D01*
G75*
G02*
X158140000Y-64200000I0J-150000D01*
G01*
X158140000Y-65850000D01*
G75*
G02*
X157990000Y-66000000I-150000J0D01*
G01*
X157690000Y-66000000D01*
G75*
G02*
X157540000Y-65850000I0J150000D01*
G01*
X157540000Y-64200000D01*
G75*
G02*
X157690000Y-64050000I150000J0D01*
G01*
G37*
G36*
G01*
X156420000Y-64050000D02*
X156720000Y-64050000D01*
G75*
G02*
X156870000Y-64200000I0J-150000D01*
G01*
X156870000Y-65850000D01*
G75*
G02*
X156720000Y-66000000I-150000J0D01*
G01*
X156420000Y-66000000D01*
G75*
G02*
X156270000Y-65850000I0J150000D01*
G01*
X156270000Y-64200000D01*
G75*
G02*
X156420000Y-64050000I150000J0D01*
G01*
G37*
G36*
G01*
X155150000Y-64050000D02*
X155450000Y-64050000D01*
G75*
G02*
X155600000Y-64200000I0J-150000D01*
G01*
X155600000Y-65850000D01*
G75*
G02*
X155450000Y-66000000I-150000J0D01*
G01*
X155150000Y-66000000D01*
G75*
G02*
X155000000Y-65850000I0J150000D01*
G01*
X155000000Y-64200000D01*
G75*
G02*
X155150000Y-64050000I150000J0D01*
G01*
G37*
G36*
G01*
X153880000Y-64050000D02*
X154180000Y-64050000D01*
G75*
G02*
X154330000Y-64200000I0J-150000D01*
G01*
X154330000Y-65850000D01*
G75*
G02*
X154180000Y-66000000I-150000J0D01*
G01*
X153880000Y-66000000D01*
G75*
G02*
X153730000Y-65850000I0J150000D01*
G01*
X153730000Y-64200000D01*
G75*
G02*
X153880000Y-64050000I150000J0D01*
G01*
G37*
G36*
G01*
X152610000Y-64050000D02*
X152910000Y-64050000D01*
G75*
G02*
X153060000Y-64200000I0J-150000D01*
G01*
X153060000Y-65850000D01*
G75*
G02*
X152910000Y-66000000I-150000J0D01*
G01*
X152610000Y-66000000D01*
G75*
G02*
X152460000Y-65850000I0J150000D01*
G01*
X152460000Y-64200000D01*
G75*
G02*
X152610000Y-64050000I150000J0D01*
G01*
G37*
G36*
G01*
X151340000Y-64050000D02*
X151640000Y-64050000D01*
G75*
G02*
X151790000Y-64200000I0J-150000D01*
G01*
X151790000Y-65850000D01*
G75*
G02*
X151640000Y-66000000I-150000J0D01*
G01*
X151340000Y-66000000D01*
G75*
G02*
X151190000Y-65850000I0J150000D01*
G01*
X151190000Y-64200000D01*
G75*
G02*
X151340000Y-64050000I150000J0D01*
G01*
G37*
G36*
G01*
X108675000Y-67225000D02*
X108675000Y-65975000D01*
G75*
G02*
X108925000Y-65725000I250000J0D01*
G01*
X109850000Y-65725000D01*
G75*
G02*
X110100000Y-65975000I0J-250000D01*
G01*
X110100000Y-67225000D01*
G75*
G02*
X109850000Y-67475000I-250000J0D01*
G01*
X108925000Y-67475000D01*
G75*
G02*
X108675000Y-67225000I0J250000D01*
G01*
G37*
G36*
G01*
X105700000Y-67225000D02*
X105700000Y-65975000D01*
G75*
G02*
X105950000Y-65725000I250000J0D01*
G01*
X106875000Y-65725000D01*
G75*
G02*
X107125000Y-65975000I0J-250000D01*
G01*
X107125000Y-67225000D01*
G75*
G02*
X106875000Y-67475000I-250000J0D01*
G01*
X105950000Y-67475000D01*
G75*
G02*
X105700000Y-67225000I0J250000D01*
G01*
G37*
G36*
G01*
X147725000Y-55175000D02*
X147725000Y-56425000D01*
G75*
G02*
X147475000Y-56675000I-250000J0D01*
G01*
X146550000Y-56675000D01*
G75*
G02*
X146300000Y-56425000I0J250000D01*
G01*
X146300000Y-55175000D01*
G75*
G02*
X146550000Y-54925000I250000J0D01*
G01*
X147475000Y-54925000D01*
G75*
G02*
X147725000Y-55175000I0J-250000D01*
G01*
G37*
G36*
G01*
X150700000Y-55175000D02*
X150700000Y-56425000D01*
G75*
G02*
X150450000Y-56675000I-250000J0D01*
G01*
X149525000Y-56675000D01*
G75*
G02*
X149275000Y-56425000I0J250000D01*
G01*
X149275000Y-55175000D01*
G75*
G02*
X149525000Y-54925000I250000J0D01*
G01*
X150450000Y-54925000D01*
G75*
G02*
X150700000Y-55175000I0J-250000D01*
G01*
G37*
G36*
G01*
X145675000Y-60175000D02*
X146925000Y-60175000D01*
G75*
G02*
X147175000Y-60425000I0J-250000D01*
G01*
X147175000Y-61350000D01*
G75*
G02*
X146925000Y-61600000I-250000J0D01*
G01*
X145675000Y-61600000D01*
G75*
G02*
X145425000Y-61350000I0J250000D01*
G01*
X145425000Y-60425000D01*
G75*
G02*
X145675000Y-60175000I250000J0D01*
G01*
G37*
G36*
G01*
X145675000Y-57200000D02*
X146925000Y-57200000D01*
G75*
G02*
X147175000Y-57450000I0J-250000D01*
G01*
X147175000Y-58375000D01*
G75*
G02*
X146925000Y-58625000I-250000J0D01*
G01*
X145675000Y-58625000D01*
G75*
G02*
X145425000Y-58375000I0J250000D01*
G01*
X145425000Y-57450000D01*
G75*
G02*
X145675000Y-57200000I250000J0D01*
G01*
G37*
G36*
G01*
X143649999Y-59400000D02*
X144550001Y-59400000D01*
G75*
G02*
X144800000Y-59649999I0J-249999D01*
G01*
X144800000Y-60350001D01*
G75*
G02*
X144550001Y-60600000I-249999J0D01*
G01*
X143649999Y-60600000D01*
G75*
G02*
X143400000Y-60350001I0J249999D01*
G01*
X143400000Y-59649999D01*
G75*
G02*
X143649999Y-59400000I249999J0D01*
G01*
G37*
G36*
G01*
X143649999Y-57400000D02*
X144550001Y-57400000D01*
G75*
G02*
X144800000Y-57649999I0J-249999D01*
G01*
X144800000Y-58350001D01*
G75*
G02*
X144550001Y-58600000I-249999J0D01*
G01*
X143649999Y-58600000D01*
G75*
G02*
X143400000Y-58350001I0J249999D01*
G01*
X143400000Y-57649999D01*
G75*
G02*
X143649999Y-57400000I249999J0D01*
G01*
G37*
G36*
G01*
X144549999Y-55400000D02*
X145450001Y-55400000D01*
G75*
G02*
X145700000Y-55649999I0J-249999D01*
G01*
X145700000Y-56350001D01*
G75*
G02*
X145450001Y-56600000I-249999J0D01*
G01*
X144549999Y-56600000D01*
G75*
G02*
X144300000Y-56350001I0J249999D01*
G01*
X144300000Y-55649999D01*
G75*
G02*
X144549999Y-55400000I249999J0D01*
G01*
G37*
G36*
G01*
X144549999Y-53400000D02*
X145450001Y-53400000D01*
G75*
G02*
X145700000Y-53649999I0J-249999D01*
G01*
X145700000Y-54350001D01*
G75*
G02*
X145450001Y-54600000I-249999J0D01*
G01*
X144549999Y-54600000D01*
G75*
G02*
X144300000Y-54350001I0J249999D01*
G01*
X144300000Y-53649999D01*
G75*
G02*
X144549999Y-53400000I249999J0D01*
G01*
G37*
D18*
X148350000Y-60300000D03*
X150250000Y-60300000D03*
X150250000Y-58100000D03*
X149300000Y-58100000D03*
X148350000Y-58100000D03*
D11*
X113900000Y-55000000D03*
X116440000Y-55000000D03*
D12*
X118980000Y-55000000D03*
G36*
G01*
X114500000Y-59449999D02*
X114500000Y-60350001D01*
G75*
G02*
X114250001Y-60600000I-249999J0D01*
G01*
X113549999Y-60600000D01*
G75*
G02*
X113300000Y-60350001I0J249999D01*
G01*
X113300000Y-59449999D01*
G75*
G02*
X113549999Y-59200000I249999J0D01*
G01*
X114250001Y-59200000D01*
G75*
G02*
X114500000Y-59449999I0J-249999D01*
G01*
G37*
G36*
G01*
X116500000Y-59449999D02*
X116500000Y-60350001D01*
G75*
G02*
X116250001Y-60600000I-249999J0D01*
G01*
X115549999Y-60600000D01*
G75*
G02*
X115300000Y-60350001I0J249999D01*
G01*
X115300000Y-59449999D01*
G75*
G02*
X115549999Y-59200000I249999J0D01*
G01*
X116250001Y-59200000D01*
G75*
G02*
X116500000Y-59449999I0J-249999D01*
G01*
G37*
G36*
G01*
X115300000Y-58350001D02*
X115300000Y-57449999D01*
G75*
G02*
X115549999Y-57200000I249999J0D01*
G01*
X116250001Y-57200000D01*
G75*
G02*
X116500000Y-57449999I0J-249999D01*
G01*
X116500000Y-58350001D01*
G75*
G02*
X116250001Y-58600000I-249999J0D01*
G01*
X115549999Y-58600000D01*
G75*
G02*
X115300000Y-58350001I0J249999D01*
G01*
G37*
G36*
G01*
X113300000Y-58350001D02*
X113300000Y-57449999D01*
G75*
G02*
X113549999Y-57200000I249999J0D01*
G01*
X114250001Y-57200000D01*
G75*
G02*
X114500000Y-57449999I0J-249999D01*
G01*
X114500000Y-58350001D01*
G75*
G02*
X114250001Y-58600000I-249999J0D01*
G01*
X113549999Y-58600000D01*
G75*
G02*
X113300000Y-58350001I0J249999D01*
G01*
G37*
G36*
G01*
X118650001Y-58300000D02*
X117749999Y-58300000D01*
G75*
G02*
X117500000Y-58050001I0J249999D01*
G01*
X117500000Y-57349999D01*
G75*
G02*
X117749999Y-57100000I249999J0D01*
G01*
X118650001Y-57100000D01*
G75*
G02*
X118900000Y-57349999I0J-249999D01*
G01*
X118900000Y-58050001D01*
G75*
G02*
X118650001Y-58300000I-249999J0D01*
G01*
G37*
G36*
G01*
X118650001Y-60300000D02*
X117749999Y-60300000D01*
G75*
G02*
X117500000Y-60050001I0J249999D01*
G01*
X117500000Y-59349999D01*
G75*
G02*
X117749999Y-59100000I249999J0D01*
G01*
X118650001Y-59100000D01*
G75*
G02*
X118900000Y-59349999I0J-249999D01*
G01*
X118900000Y-60050001D01*
G75*
G02*
X118650001Y-60300000I-249999J0D01*
G01*
G37*
G36*
G01*
X120650001Y-58300000D02*
X119749999Y-58300000D01*
G75*
G02*
X119500000Y-58050001I0J249999D01*
G01*
X119500000Y-57349999D01*
G75*
G02*
X119749999Y-57100000I249999J0D01*
G01*
X120650001Y-57100000D01*
G75*
G02*
X120900000Y-57349999I0J-249999D01*
G01*
X120900000Y-58050001D01*
G75*
G02*
X120650001Y-58300000I-249999J0D01*
G01*
G37*
G36*
G01*
X120650001Y-60300000D02*
X119749999Y-60300000D01*
G75*
G02*
X119500000Y-60050001I0J249999D01*
G01*
X119500000Y-59349999D01*
G75*
G02*
X119749999Y-59100000I249999J0D01*
G01*
X120650001Y-59100000D01*
G75*
G02*
X120900000Y-59349999I0J-249999D01*
G01*
X120900000Y-60050001D01*
G75*
G02*
X120650001Y-60300000I-249999J0D01*
G01*
G37*
G36*
G01*
X115350000Y-62375000D02*
X115350000Y-61425000D01*
G75*
G02*
X115600000Y-61175000I250000J0D01*
G01*
X116275000Y-61175000D01*
G75*
G02*
X116525000Y-61425000I0J-250000D01*
G01*
X116525000Y-62375000D01*
G75*
G02*
X116275000Y-62625000I-250000J0D01*
G01*
X115600000Y-62625000D01*
G75*
G02*
X115350000Y-62375000I0J250000D01*
G01*
G37*
G36*
G01*
X113275000Y-62375000D02*
X113275000Y-61425000D01*
G75*
G02*
X113525000Y-61175000I250000J0D01*
G01*
X114200000Y-61175000D01*
G75*
G02*
X114450000Y-61425000I0J-250000D01*
G01*
X114450000Y-62375000D01*
G75*
G02*
X114200000Y-62625000I-250000J0D01*
G01*
X113525000Y-62625000D01*
G75*
G02*
X113275000Y-62375000I0J250000D01*
G01*
G37*
G36*
G01*
X123625000Y-76550000D02*
X124575000Y-76550000D01*
G75*
G02*
X124825000Y-76800000I0J-250000D01*
G01*
X124825000Y-77475000D01*
G75*
G02*
X124575000Y-77725000I-250000J0D01*
G01*
X123625000Y-77725000D01*
G75*
G02*
X123375000Y-77475000I0J250000D01*
G01*
X123375000Y-76800000D01*
G75*
G02*
X123625000Y-76550000I250000J0D01*
G01*
G37*
G36*
G01*
X123625000Y-74475000D02*
X124575000Y-74475000D01*
G75*
G02*
X124825000Y-74725000I0J-250000D01*
G01*
X124825000Y-75400000D01*
G75*
G02*
X124575000Y-75650000I-250000J0D01*
G01*
X123625000Y-75650000D01*
G75*
G02*
X123375000Y-75400000I0J250000D01*
G01*
X123375000Y-74725000D01*
G75*
G02*
X123625000Y-74475000I250000J0D01*
G01*
G37*
G36*
G01*
X119600000Y-75550001D02*
X119600000Y-74649999D01*
G75*
G02*
X119849999Y-74400000I249999J0D01*
G01*
X120550001Y-74400000D01*
G75*
G02*
X120800000Y-74649999I0J-249999D01*
G01*
X120800000Y-75550001D01*
G75*
G02*
X120550001Y-75800000I-249999J0D01*
G01*
X119849999Y-75800000D01*
G75*
G02*
X119600000Y-75550001I0J249999D01*
G01*
G37*
G36*
G01*
X117600000Y-75550001D02*
X117600000Y-74649999D01*
G75*
G02*
X117849999Y-74400000I249999J0D01*
G01*
X118550001Y-74400000D01*
G75*
G02*
X118800000Y-74649999I0J-249999D01*
G01*
X118800000Y-75550001D01*
G75*
G02*
X118550001Y-75800000I-249999J0D01*
G01*
X117849999Y-75800000D01*
G75*
G02*
X117600000Y-75550001I0J249999D01*
G01*
G37*
G36*
G01*
X118800000Y-76649999D02*
X118800000Y-77550001D01*
G75*
G02*
X118550001Y-77800000I-249999J0D01*
G01*
X117849999Y-77800000D01*
G75*
G02*
X117600000Y-77550001I0J249999D01*
G01*
X117600000Y-76649999D01*
G75*
G02*
X117849999Y-76400000I249999J0D01*
G01*
X118550001Y-76400000D01*
G75*
G02*
X118800000Y-76649999I0J-249999D01*
G01*
G37*
G36*
G01*
X120800000Y-76649999D02*
X120800000Y-77550001D01*
G75*
G02*
X120550001Y-77800000I-249999J0D01*
G01*
X119849999Y-77800000D01*
G75*
G02*
X119600000Y-77550001I0J249999D01*
G01*
X119600000Y-76649999D01*
G75*
G02*
X119849999Y-76400000I249999J0D01*
G01*
X120550001Y-76400000D01*
G75*
G02*
X120800000Y-76649999I0J-249999D01*
G01*
G37*
G36*
G01*
X144945000Y-136800000D02*
X145245000Y-136800000D01*
G75*
G02*
X145395000Y-136950000I0J-150000D01*
G01*
X145395000Y-138600000D01*
G75*
G02*
X145245000Y-138750000I-150000J0D01*
G01*
X144945000Y-138750000D01*
G75*
G02*
X144795000Y-138600000I0J150000D01*
G01*
X144795000Y-136950000D01*
G75*
G02*
X144945000Y-136800000I150000J0D01*
G01*
G37*
G36*
G01*
X146215000Y-136800000D02*
X146515000Y-136800000D01*
G75*
G02*
X146665000Y-136950000I0J-150000D01*
G01*
X146665000Y-138600000D01*
G75*
G02*
X146515000Y-138750000I-150000J0D01*
G01*
X146215000Y-138750000D01*
G75*
G02*
X146065000Y-138600000I0J150000D01*
G01*
X146065000Y-136950000D01*
G75*
G02*
X146215000Y-136800000I150000J0D01*
G01*
G37*
G36*
G01*
X147485000Y-136800000D02*
X147785000Y-136800000D01*
G75*
G02*
X147935000Y-136950000I0J-150000D01*
G01*
X147935000Y-138600000D01*
G75*
G02*
X147785000Y-138750000I-150000J0D01*
G01*
X147485000Y-138750000D01*
G75*
G02*
X147335000Y-138600000I0J150000D01*
G01*
X147335000Y-136950000D01*
G75*
G02*
X147485000Y-136800000I150000J0D01*
G01*
G37*
G36*
G01*
X148755000Y-136800000D02*
X149055000Y-136800000D01*
G75*
G02*
X149205000Y-136950000I0J-150000D01*
G01*
X149205000Y-138600000D01*
G75*
G02*
X149055000Y-138750000I-150000J0D01*
G01*
X148755000Y-138750000D01*
G75*
G02*
X148605000Y-138600000I0J150000D01*
G01*
X148605000Y-136950000D01*
G75*
G02*
X148755000Y-136800000I150000J0D01*
G01*
G37*
G36*
G01*
X148755000Y-131850000D02*
X149055000Y-131850000D01*
G75*
G02*
X149205000Y-132000000I0J-150000D01*
G01*
X149205000Y-133650000D01*
G75*
G02*
X149055000Y-133800000I-150000J0D01*
G01*
X148755000Y-133800000D01*
G75*
G02*
X148605000Y-133650000I0J150000D01*
G01*
X148605000Y-132000000D01*
G75*
G02*
X148755000Y-131850000I150000J0D01*
G01*
G37*
G36*
G01*
X147485000Y-131850000D02*
X147785000Y-131850000D01*
G75*
G02*
X147935000Y-132000000I0J-150000D01*
G01*
X147935000Y-133650000D01*
G75*
G02*
X147785000Y-133800000I-150000J0D01*
G01*
X147485000Y-133800000D01*
G75*
G02*
X147335000Y-133650000I0J150000D01*
G01*
X147335000Y-132000000D01*
G75*
G02*
X147485000Y-131850000I150000J0D01*
G01*
G37*
G36*
G01*
X146215000Y-131850000D02*
X146515000Y-131850000D01*
G75*
G02*
X146665000Y-132000000I0J-150000D01*
G01*
X146665000Y-133650000D01*
G75*
G02*
X146515000Y-133800000I-150000J0D01*
G01*
X146215000Y-133800000D01*
G75*
G02*
X146065000Y-133650000I0J150000D01*
G01*
X146065000Y-132000000D01*
G75*
G02*
X146215000Y-131850000I150000J0D01*
G01*
G37*
G36*
G01*
X144945000Y-131850000D02*
X145245000Y-131850000D01*
G75*
G02*
X145395000Y-132000000I0J-150000D01*
G01*
X145395000Y-133650000D01*
G75*
G02*
X145245000Y-133800000I-150000J0D01*
G01*
X144945000Y-133800000D01*
G75*
G02*
X144795000Y-133650000I0J150000D01*
G01*
X144795000Y-132000000D01*
G75*
G02*
X144945000Y-131850000I150000J0D01*
G01*
G37*
D19*
X106697056Y-143302944D03*
X105000000Y-142600000D03*
X103302944Y-143302944D03*
X102600000Y-145000000D03*
X103302944Y-146697056D03*
X105000000Y-147400000D03*
X106697056Y-146697056D03*
X107400000Y-145000000D03*
D20*
X105000000Y-145000000D03*
D19*
X166697056Y-143302944D03*
X165000000Y-142600000D03*
X163302944Y-143302944D03*
X162600000Y-145000000D03*
X163302944Y-146697056D03*
X165000000Y-147400000D03*
X166697056Y-146697056D03*
X167400000Y-145000000D03*
D20*
X165000000Y-145000000D03*
D19*
X166697056Y-53302944D03*
X165000000Y-52600000D03*
X163302944Y-53302944D03*
X162600000Y-55000000D03*
X163302944Y-56697056D03*
X165000000Y-57400000D03*
X166697056Y-56697056D03*
X167400000Y-55000000D03*
D20*
X165000000Y-55000000D03*
D19*
X106697056Y-53302944D03*
X105000000Y-52600000D03*
X103302944Y-53302944D03*
X102600000Y-55000000D03*
X103302944Y-56697056D03*
X105000000Y-57400000D03*
X106697056Y-56697056D03*
X107400000Y-55000000D03*
D20*
X105000000Y-55000000D03*
D11*
X115700000Y-147040000D03*
D12*
X115700000Y-144500000D03*
G36*
G01*
X122500000Y-132355000D02*
X122500000Y-132055000D01*
G75*
G02*
X122650000Y-131905000I150000J0D01*
G01*
X124300000Y-131905000D01*
G75*
G02*
X124450000Y-132055000I0J-150000D01*
G01*
X124450000Y-132355000D01*
G75*
G02*
X124300000Y-132505000I-150000J0D01*
G01*
X122650000Y-132505000D01*
G75*
G02*
X122500000Y-132355000I0J150000D01*
G01*
G37*
G36*
G01*
X122500000Y-131085000D02*
X122500000Y-130785000D01*
G75*
G02*
X122650000Y-130635000I150000J0D01*
G01*
X124300000Y-130635000D01*
G75*
G02*
X124450000Y-130785000I0J-150000D01*
G01*
X124450000Y-131085000D01*
G75*
G02*
X124300000Y-131235000I-150000J0D01*
G01*
X122650000Y-131235000D01*
G75*
G02*
X122500000Y-131085000I0J150000D01*
G01*
G37*
G36*
G01*
X122500000Y-129815000D02*
X122500000Y-129515000D01*
G75*
G02*
X122650000Y-129365000I150000J0D01*
G01*
X124300000Y-129365000D01*
G75*
G02*
X124450000Y-129515000I0J-150000D01*
G01*
X124450000Y-129815000D01*
G75*
G02*
X124300000Y-129965000I-150000J0D01*
G01*
X122650000Y-129965000D01*
G75*
G02*
X122500000Y-129815000I0J150000D01*
G01*
G37*
G36*
G01*
X122500000Y-128545000D02*
X122500000Y-128245000D01*
G75*
G02*
X122650000Y-128095000I150000J0D01*
G01*
X124300000Y-128095000D01*
G75*
G02*
X124450000Y-128245000I0J-150000D01*
G01*
X124450000Y-128545000D01*
G75*
G02*
X124300000Y-128695000I-150000J0D01*
G01*
X122650000Y-128695000D01*
G75*
G02*
X122500000Y-128545000I0J150000D01*
G01*
G37*
G36*
G01*
X117550000Y-128545000D02*
X117550000Y-128245000D01*
G75*
G02*
X117700000Y-128095000I150000J0D01*
G01*
X119350000Y-128095000D01*
G75*
G02*
X119500000Y-128245000I0J-150000D01*
G01*
X119500000Y-128545000D01*
G75*
G02*
X119350000Y-128695000I-150000J0D01*
G01*
X117700000Y-128695000D01*
G75*
G02*
X117550000Y-128545000I0J150000D01*
G01*
G37*
G36*
G01*
X117550000Y-129815000D02*
X117550000Y-129515000D01*
G75*
G02*
X117700000Y-129365000I150000J0D01*
G01*
X119350000Y-129365000D01*
G75*
G02*
X119500000Y-129515000I0J-150000D01*
G01*
X119500000Y-129815000D01*
G75*
G02*
X119350000Y-129965000I-150000J0D01*
G01*
X117700000Y-129965000D01*
G75*
G02*
X117550000Y-129815000I0J150000D01*
G01*
G37*
G36*
G01*
X117550000Y-131085000D02*
X117550000Y-130785000D01*
G75*
G02*
X117700000Y-130635000I150000J0D01*
G01*
X119350000Y-130635000D01*
G75*
G02*
X119500000Y-130785000I0J-150000D01*
G01*
X119500000Y-131085000D01*
G75*
G02*
X119350000Y-131235000I-150000J0D01*
G01*
X117700000Y-131235000D01*
G75*
G02*
X117550000Y-131085000I0J150000D01*
G01*
G37*
G36*
G01*
X117550000Y-132355000D02*
X117550000Y-132055000D01*
G75*
G02*
X117700000Y-131905000I150000J0D01*
G01*
X119350000Y-131905000D01*
G75*
G02*
X119500000Y-132055000I0J-150000D01*
G01*
X119500000Y-132355000D01*
G75*
G02*
X119350000Y-132505000I-150000J0D01*
G01*
X117700000Y-132505000D01*
G75*
G02*
X117550000Y-132355000I0J150000D01*
G01*
G37*
D18*
X135950000Y-115700000D03*
X134050000Y-115700000D03*
X134050000Y-117900000D03*
X135000000Y-117900000D03*
X135950000Y-117900000D03*
D21*
X120300000Y-63350000D03*
X120300000Y-61450000D03*
X118100000Y-61450000D03*
X118100000Y-62400000D03*
X118100000Y-63350000D03*
G36*
G01*
X142000000Y-79995000D02*
X142000000Y-79695000D01*
G75*
G02*
X142150000Y-79545000I150000J0D01*
G01*
X143800000Y-79545000D01*
G75*
G02*
X143950000Y-79695000I0J-150000D01*
G01*
X143950000Y-79995000D01*
G75*
G02*
X143800000Y-80145000I-150000J0D01*
G01*
X142150000Y-80145000D01*
G75*
G02*
X142000000Y-79995000I0J150000D01*
G01*
G37*
G36*
G01*
X142000000Y-78725000D02*
X142000000Y-78425000D01*
G75*
G02*
X142150000Y-78275000I150000J0D01*
G01*
X143800000Y-78275000D01*
G75*
G02*
X143950000Y-78425000I0J-150000D01*
G01*
X143950000Y-78725000D01*
G75*
G02*
X143800000Y-78875000I-150000J0D01*
G01*
X142150000Y-78875000D01*
G75*
G02*
X142000000Y-78725000I0J150000D01*
G01*
G37*
G36*
G01*
X142000000Y-77455000D02*
X142000000Y-77155000D01*
G75*
G02*
X142150000Y-77005000I150000J0D01*
G01*
X143800000Y-77005000D01*
G75*
G02*
X143950000Y-77155000I0J-150000D01*
G01*
X143950000Y-77455000D01*
G75*
G02*
X143800000Y-77605000I-150000J0D01*
G01*
X142150000Y-77605000D01*
G75*
G02*
X142000000Y-77455000I0J150000D01*
G01*
G37*
G36*
G01*
X142000000Y-76185000D02*
X142000000Y-75885000D01*
G75*
G02*
X142150000Y-75735000I150000J0D01*
G01*
X143800000Y-75735000D01*
G75*
G02*
X143950000Y-75885000I0J-150000D01*
G01*
X143950000Y-76185000D01*
G75*
G02*
X143800000Y-76335000I-150000J0D01*
G01*
X142150000Y-76335000D01*
G75*
G02*
X142000000Y-76185000I0J150000D01*
G01*
G37*
G36*
G01*
X142000000Y-74915000D02*
X142000000Y-74615000D01*
G75*
G02*
X142150000Y-74465000I150000J0D01*
G01*
X143800000Y-74465000D01*
G75*
G02*
X143950000Y-74615000I0J-150000D01*
G01*
X143950000Y-74915000D01*
G75*
G02*
X143800000Y-75065000I-150000J0D01*
G01*
X142150000Y-75065000D01*
G75*
G02*
X142000000Y-74915000I0J150000D01*
G01*
G37*
G36*
G01*
X142000000Y-73645000D02*
X142000000Y-73345000D01*
G75*
G02*
X142150000Y-73195000I150000J0D01*
G01*
X143800000Y-73195000D01*
G75*
G02*
X143950000Y-73345000I0J-150000D01*
G01*
X143950000Y-73645000D01*
G75*
G02*
X143800000Y-73795000I-150000J0D01*
G01*
X142150000Y-73795000D01*
G75*
G02*
X142000000Y-73645000I0J150000D01*
G01*
G37*
G36*
G01*
X142000000Y-72375000D02*
X142000000Y-72075000D01*
G75*
G02*
X142150000Y-71925000I150000J0D01*
G01*
X143800000Y-71925000D01*
G75*
G02*
X143950000Y-72075000I0J-150000D01*
G01*
X143950000Y-72375000D01*
G75*
G02*
X143800000Y-72525000I-150000J0D01*
G01*
X142150000Y-72525000D01*
G75*
G02*
X142000000Y-72375000I0J150000D01*
G01*
G37*
G36*
G01*
X142000000Y-71105000D02*
X142000000Y-70805000D01*
G75*
G02*
X142150000Y-70655000I150000J0D01*
G01*
X143800000Y-70655000D01*
G75*
G02*
X143950000Y-70805000I0J-150000D01*
G01*
X143950000Y-71105000D01*
G75*
G02*
X143800000Y-71255000I-150000J0D01*
G01*
X142150000Y-71255000D01*
G75*
G02*
X142000000Y-71105000I0J150000D01*
G01*
G37*
G36*
G01*
X137050000Y-71105000D02*
X137050000Y-70805000D01*
G75*
G02*
X137200000Y-70655000I150000J0D01*
G01*
X138850000Y-70655000D01*
G75*
G02*
X139000000Y-70805000I0J-150000D01*
G01*
X139000000Y-71105000D01*
G75*
G02*
X138850000Y-71255000I-150000J0D01*
G01*
X137200000Y-71255000D01*
G75*
G02*
X137050000Y-71105000I0J150000D01*
G01*
G37*
G36*
G01*
X137050000Y-72375000D02*
X137050000Y-72075000D01*
G75*
G02*
X137200000Y-71925000I150000J0D01*
G01*
X138850000Y-71925000D01*
G75*
G02*
X139000000Y-72075000I0J-150000D01*
G01*
X139000000Y-72375000D01*
G75*
G02*
X138850000Y-72525000I-150000J0D01*
G01*
X137200000Y-72525000D01*
G75*
G02*
X137050000Y-72375000I0J150000D01*
G01*
G37*
G36*
G01*
X137050000Y-73645000D02*
X137050000Y-73345000D01*
G75*
G02*
X137200000Y-73195000I150000J0D01*
G01*
X138850000Y-73195000D01*
G75*
G02*
X139000000Y-73345000I0J-150000D01*
G01*
X139000000Y-73645000D01*
G75*
G02*
X138850000Y-73795000I-150000J0D01*
G01*
X137200000Y-73795000D01*
G75*
G02*
X137050000Y-73645000I0J150000D01*
G01*
G37*
G36*
G01*
X137050000Y-74915000D02*
X137050000Y-74615000D01*
G75*
G02*
X137200000Y-74465000I150000J0D01*
G01*
X138850000Y-74465000D01*
G75*
G02*
X139000000Y-74615000I0J-150000D01*
G01*
X139000000Y-74915000D01*
G75*
G02*
X138850000Y-75065000I-150000J0D01*
G01*
X137200000Y-75065000D01*
G75*
G02*
X137050000Y-74915000I0J150000D01*
G01*
G37*
G36*
G01*
X137050000Y-76185000D02*
X137050000Y-75885000D01*
G75*
G02*
X137200000Y-75735000I150000J0D01*
G01*
X138850000Y-75735000D01*
G75*
G02*
X139000000Y-75885000I0J-150000D01*
G01*
X139000000Y-76185000D01*
G75*
G02*
X138850000Y-76335000I-150000J0D01*
G01*
X137200000Y-76335000D01*
G75*
G02*
X137050000Y-76185000I0J150000D01*
G01*
G37*
G36*
G01*
X137050000Y-77455000D02*
X137050000Y-77155000D01*
G75*
G02*
X137200000Y-77005000I150000J0D01*
G01*
X138850000Y-77005000D01*
G75*
G02*
X139000000Y-77155000I0J-150000D01*
G01*
X139000000Y-77455000D01*
G75*
G02*
X138850000Y-77605000I-150000J0D01*
G01*
X137200000Y-77605000D01*
G75*
G02*
X137050000Y-77455000I0J150000D01*
G01*
G37*
G36*
G01*
X137050000Y-78725000D02*
X137050000Y-78425000D01*
G75*
G02*
X137200000Y-78275000I150000J0D01*
G01*
X138850000Y-78275000D01*
G75*
G02*
X139000000Y-78425000I0J-150000D01*
G01*
X139000000Y-78725000D01*
G75*
G02*
X138850000Y-78875000I-150000J0D01*
G01*
X137200000Y-78875000D01*
G75*
G02*
X137050000Y-78725000I0J150000D01*
G01*
G37*
G36*
G01*
X137050000Y-79995000D02*
X137050000Y-79695000D01*
G75*
G02*
X137200000Y-79545000I150000J0D01*
G01*
X138850000Y-79545000D01*
G75*
G02*
X139000000Y-79695000I0J-150000D01*
G01*
X139000000Y-79995000D01*
G75*
G02*
X138850000Y-80145000I-150000J0D01*
G01*
X137200000Y-80145000D01*
G75*
G02*
X137050000Y-79995000I0J150000D01*
G01*
G37*
G36*
G01*
X126500000Y-73560000D02*
X126500000Y-73260000D01*
G75*
G02*
X126650000Y-73110000I150000J0D01*
G01*
X128300000Y-73110000D01*
G75*
G02*
X128450000Y-73260000I0J-150000D01*
G01*
X128450000Y-73560000D01*
G75*
G02*
X128300000Y-73710000I-150000J0D01*
G01*
X126650000Y-73710000D01*
G75*
G02*
X126500000Y-73560000I0J150000D01*
G01*
G37*
G36*
G01*
X126500000Y-72290000D02*
X126500000Y-71990000D01*
G75*
G02*
X126650000Y-71840000I150000J0D01*
G01*
X128300000Y-71840000D01*
G75*
G02*
X128450000Y-71990000I0J-150000D01*
G01*
X128450000Y-72290000D01*
G75*
G02*
X128300000Y-72440000I-150000J0D01*
G01*
X126650000Y-72440000D01*
G75*
G02*
X126500000Y-72290000I0J150000D01*
G01*
G37*
G36*
G01*
X126500000Y-71020000D02*
X126500000Y-70720000D01*
G75*
G02*
X126650000Y-70570000I150000J0D01*
G01*
X128300000Y-70570000D01*
G75*
G02*
X128450000Y-70720000I0J-150000D01*
G01*
X128450000Y-71020000D01*
G75*
G02*
X128300000Y-71170000I-150000J0D01*
G01*
X126650000Y-71170000D01*
G75*
G02*
X126500000Y-71020000I0J150000D01*
G01*
G37*
G36*
G01*
X126500000Y-69750000D02*
X126500000Y-69450000D01*
G75*
G02*
X126650000Y-69300000I150000J0D01*
G01*
X128300000Y-69300000D01*
G75*
G02*
X128450000Y-69450000I0J-150000D01*
G01*
X128450000Y-69750000D01*
G75*
G02*
X128300000Y-69900000I-150000J0D01*
G01*
X126650000Y-69900000D01*
G75*
G02*
X126500000Y-69750000I0J150000D01*
G01*
G37*
G36*
G01*
X126500000Y-68480000D02*
X126500000Y-68180000D01*
G75*
G02*
X126650000Y-68030000I150000J0D01*
G01*
X128300000Y-68030000D01*
G75*
G02*
X128450000Y-68180000I0J-150000D01*
G01*
X128450000Y-68480000D01*
G75*
G02*
X128300000Y-68630000I-150000J0D01*
G01*
X126650000Y-68630000D01*
G75*
G02*
X126500000Y-68480000I0J150000D01*
G01*
G37*
G36*
G01*
X126500000Y-67210000D02*
X126500000Y-66910000D01*
G75*
G02*
X126650000Y-66760000I150000J0D01*
G01*
X128300000Y-66760000D01*
G75*
G02*
X128450000Y-66910000I0J-150000D01*
G01*
X128450000Y-67210000D01*
G75*
G02*
X128300000Y-67360000I-150000J0D01*
G01*
X126650000Y-67360000D01*
G75*
G02*
X126500000Y-67210000I0J150000D01*
G01*
G37*
G36*
G01*
X126500000Y-65940000D02*
X126500000Y-65640000D01*
G75*
G02*
X126650000Y-65490000I150000J0D01*
G01*
X128300000Y-65490000D01*
G75*
G02*
X128450000Y-65640000I0J-150000D01*
G01*
X128450000Y-65940000D01*
G75*
G02*
X128300000Y-66090000I-150000J0D01*
G01*
X126650000Y-66090000D01*
G75*
G02*
X126500000Y-65940000I0J150000D01*
G01*
G37*
G36*
G01*
X121550000Y-65940000D02*
X121550000Y-65640000D01*
G75*
G02*
X121700000Y-65490000I150000J0D01*
G01*
X123350000Y-65490000D01*
G75*
G02*
X123500000Y-65640000I0J-150000D01*
G01*
X123500000Y-65940000D01*
G75*
G02*
X123350000Y-66090000I-150000J0D01*
G01*
X121700000Y-66090000D01*
G75*
G02*
X121550000Y-65940000I0J150000D01*
G01*
G37*
G36*
G01*
X121550000Y-67210000D02*
X121550000Y-66910000D01*
G75*
G02*
X121700000Y-66760000I150000J0D01*
G01*
X123350000Y-66760000D01*
G75*
G02*
X123500000Y-66910000I0J-150000D01*
G01*
X123500000Y-67210000D01*
G75*
G02*
X123350000Y-67360000I-150000J0D01*
G01*
X121700000Y-67360000D01*
G75*
G02*
X121550000Y-67210000I0J150000D01*
G01*
G37*
G36*
G01*
X121550000Y-68480000D02*
X121550000Y-68180000D01*
G75*
G02*
X121700000Y-68030000I150000J0D01*
G01*
X123350000Y-68030000D01*
G75*
G02*
X123500000Y-68180000I0J-150000D01*
G01*
X123500000Y-68480000D01*
G75*
G02*
X123350000Y-68630000I-150000J0D01*
G01*
X121700000Y-68630000D01*
G75*
G02*
X121550000Y-68480000I0J150000D01*
G01*
G37*
G36*
G01*
X121550000Y-69750000D02*
X121550000Y-69450000D01*
G75*
G02*
X121700000Y-69300000I150000J0D01*
G01*
X123350000Y-69300000D01*
G75*
G02*
X123500000Y-69450000I0J-150000D01*
G01*
X123500000Y-69750000D01*
G75*
G02*
X123350000Y-69900000I-150000J0D01*
G01*
X121700000Y-69900000D01*
G75*
G02*
X121550000Y-69750000I0J150000D01*
G01*
G37*
G36*
G01*
X121550000Y-71020000D02*
X121550000Y-70720000D01*
G75*
G02*
X121700000Y-70570000I150000J0D01*
G01*
X123350000Y-70570000D01*
G75*
G02*
X123500000Y-70720000I0J-150000D01*
G01*
X123500000Y-71020000D01*
G75*
G02*
X123350000Y-71170000I-150000J0D01*
G01*
X121700000Y-71170000D01*
G75*
G02*
X121550000Y-71020000I0J150000D01*
G01*
G37*
G36*
G01*
X121550000Y-72290000D02*
X121550000Y-71990000D01*
G75*
G02*
X121700000Y-71840000I150000J0D01*
G01*
X123350000Y-71840000D01*
G75*
G02*
X123500000Y-71990000I0J-150000D01*
G01*
X123500000Y-72290000D01*
G75*
G02*
X123350000Y-72440000I-150000J0D01*
G01*
X121700000Y-72440000D01*
G75*
G02*
X121550000Y-72290000I0J150000D01*
G01*
G37*
G36*
G01*
X121550000Y-73560000D02*
X121550000Y-73260000D01*
G75*
G02*
X121700000Y-73110000I150000J0D01*
G01*
X123350000Y-73110000D01*
G75*
G02*
X123500000Y-73260000I0J-150000D01*
G01*
X123500000Y-73560000D01*
G75*
G02*
X123350000Y-73710000I-150000J0D01*
G01*
X121700000Y-73710000D01*
G75*
G02*
X121550000Y-73560000I0J150000D01*
G01*
G37*
G36*
G01*
X139000000Y-61540000D02*
X139000000Y-61840000D01*
G75*
G02*
X138850000Y-61990000I-150000J0D01*
G01*
X137200000Y-61990000D01*
G75*
G02*
X137050000Y-61840000I0J150000D01*
G01*
X137050000Y-61540000D01*
G75*
G02*
X137200000Y-61390000I150000J0D01*
G01*
X138850000Y-61390000D01*
G75*
G02*
X139000000Y-61540000I0J-150000D01*
G01*
G37*
G36*
G01*
X139000000Y-62810000D02*
X139000000Y-63110000D01*
G75*
G02*
X138850000Y-63260000I-150000J0D01*
G01*
X137200000Y-63260000D01*
G75*
G02*
X137050000Y-63110000I0J150000D01*
G01*
X137050000Y-62810000D01*
G75*
G02*
X137200000Y-62660000I150000J0D01*
G01*
X138850000Y-62660000D01*
G75*
G02*
X139000000Y-62810000I0J-150000D01*
G01*
G37*
G36*
G01*
X139000000Y-64080000D02*
X139000000Y-64380000D01*
G75*
G02*
X138850000Y-64530000I-150000J0D01*
G01*
X137200000Y-64530000D01*
G75*
G02*
X137050000Y-64380000I0J150000D01*
G01*
X137050000Y-64080000D01*
G75*
G02*
X137200000Y-63930000I150000J0D01*
G01*
X138850000Y-63930000D01*
G75*
G02*
X139000000Y-64080000I0J-150000D01*
G01*
G37*
G36*
G01*
X139000000Y-65350000D02*
X139000000Y-65650000D01*
G75*
G02*
X138850000Y-65800000I-150000J0D01*
G01*
X137200000Y-65800000D01*
G75*
G02*
X137050000Y-65650000I0J150000D01*
G01*
X137050000Y-65350000D01*
G75*
G02*
X137200000Y-65200000I150000J0D01*
G01*
X138850000Y-65200000D01*
G75*
G02*
X139000000Y-65350000I0J-150000D01*
G01*
G37*
G36*
G01*
X139000000Y-66620000D02*
X139000000Y-66920000D01*
G75*
G02*
X138850000Y-67070000I-150000J0D01*
G01*
X137200000Y-67070000D01*
G75*
G02*
X137050000Y-66920000I0J150000D01*
G01*
X137050000Y-66620000D01*
G75*
G02*
X137200000Y-66470000I150000J0D01*
G01*
X138850000Y-66470000D01*
G75*
G02*
X139000000Y-66620000I0J-150000D01*
G01*
G37*
G36*
G01*
X139000000Y-67890000D02*
X139000000Y-68190000D01*
G75*
G02*
X138850000Y-68340000I-150000J0D01*
G01*
X137200000Y-68340000D01*
G75*
G02*
X137050000Y-68190000I0J150000D01*
G01*
X137050000Y-67890000D01*
G75*
G02*
X137200000Y-67740000I150000J0D01*
G01*
X138850000Y-67740000D01*
G75*
G02*
X139000000Y-67890000I0J-150000D01*
G01*
G37*
G36*
G01*
X139000000Y-69160000D02*
X139000000Y-69460000D01*
G75*
G02*
X138850000Y-69610000I-150000J0D01*
G01*
X137200000Y-69610000D01*
G75*
G02*
X137050000Y-69460000I0J150000D01*
G01*
X137050000Y-69160000D01*
G75*
G02*
X137200000Y-69010000I150000J0D01*
G01*
X138850000Y-69010000D01*
G75*
G02*
X139000000Y-69160000I0J-150000D01*
G01*
G37*
G36*
G01*
X143950000Y-69160000D02*
X143950000Y-69460000D01*
G75*
G02*
X143800000Y-69610000I-150000J0D01*
G01*
X142150000Y-69610000D01*
G75*
G02*
X142000000Y-69460000I0J150000D01*
G01*
X142000000Y-69160000D01*
G75*
G02*
X142150000Y-69010000I150000J0D01*
G01*
X143800000Y-69010000D01*
G75*
G02*
X143950000Y-69160000I0J-150000D01*
G01*
G37*
G36*
G01*
X143950000Y-67890000D02*
X143950000Y-68190000D01*
G75*
G02*
X143800000Y-68340000I-150000J0D01*
G01*
X142150000Y-68340000D01*
G75*
G02*
X142000000Y-68190000I0J150000D01*
G01*
X142000000Y-67890000D01*
G75*
G02*
X142150000Y-67740000I150000J0D01*
G01*
X143800000Y-67740000D01*
G75*
G02*
X143950000Y-67890000I0J-150000D01*
G01*
G37*
G36*
G01*
X143950000Y-66620000D02*
X143950000Y-66920000D01*
G75*
G02*
X143800000Y-67070000I-150000J0D01*
G01*
X142150000Y-67070000D01*
G75*
G02*
X142000000Y-66920000I0J150000D01*
G01*
X142000000Y-66620000D01*
G75*
G02*
X142150000Y-66470000I150000J0D01*
G01*
X143800000Y-66470000D01*
G75*
G02*
X143950000Y-66620000I0J-150000D01*
G01*
G37*
G36*
G01*
X143950000Y-65350000D02*
X143950000Y-65650000D01*
G75*
G02*
X143800000Y-65800000I-150000J0D01*
G01*
X142150000Y-65800000D01*
G75*
G02*
X142000000Y-65650000I0J150000D01*
G01*
X142000000Y-65350000D01*
G75*
G02*
X142150000Y-65200000I150000J0D01*
G01*
X143800000Y-65200000D01*
G75*
G02*
X143950000Y-65350000I0J-150000D01*
G01*
G37*
G36*
G01*
X143950000Y-64080000D02*
X143950000Y-64380000D01*
G75*
G02*
X143800000Y-64530000I-150000J0D01*
G01*
X142150000Y-64530000D01*
G75*
G02*
X142000000Y-64380000I0J150000D01*
G01*
X142000000Y-64080000D01*
G75*
G02*
X142150000Y-63930000I150000J0D01*
G01*
X143800000Y-63930000D01*
G75*
G02*
X143950000Y-64080000I0J-150000D01*
G01*
G37*
G36*
G01*
X143950000Y-62810000D02*
X143950000Y-63110000D01*
G75*
G02*
X143800000Y-63260000I-150000J0D01*
G01*
X142150000Y-63260000D01*
G75*
G02*
X142000000Y-63110000I0J150000D01*
G01*
X142000000Y-62810000D01*
G75*
G02*
X142150000Y-62660000I150000J0D01*
G01*
X143800000Y-62660000D01*
G75*
G02*
X143950000Y-62810000I0J-150000D01*
G01*
G37*
G36*
G01*
X143950000Y-61540000D02*
X143950000Y-61840000D01*
G75*
G02*
X143800000Y-61990000I-150000J0D01*
G01*
X142150000Y-61990000D01*
G75*
G02*
X142000000Y-61840000I0J150000D01*
G01*
X142000000Y-61540000D01*
G75*
G02*
X142150000Y-61390000I150000J0D01*
G01*
X143800000Y-61390000D01*
G75*
G02*
X143950000Y-61540000I0J-150000D01*
G01*
G37*
D22*
X110000000Y-122800000D03*
G36*
G01*
X107945000Y-124300000D02*
X108245000Y-124300000D01*
G75*
G02*
X108395000Y-124450000I0J-150000D01*
G01*
X108395000Y-126100000D01*
G75*
G02*
X108245000Y-126250000I-150000J0D01*
G01*
X107945000Y-126250000D01*
G75*
G02*
X107795000Y-126100000I0J150000D01*
G01*
X107795000Y-124450000D01*
G75*
G02*
X107945000Y-124300000I150000J0D01*
G01*
G37*
G36*
G01*
X109215000Y-124300000D02*
X109515000Y-124300000D01*
G75*
G02*
X109665000Y-124450000I0J-150000D01*
G01*
X109665000Y-126100000D01*
G75*
G02*
X109515000Y-126250000I-150000J0D01*
G01*
X109215000Y-126250000D01*
G75*
G02*
X109065000Y-126100000I0J150000D01*
G01*
X109065000Y-124450000D01*
G75*
G02*
X109215000Y-124300000I150000J0D01*
G01*
G37*
G36*
G01*
X110485000Y-124300000D02*
X110785000Y-124300000D01*
G75*
G02*
X110935000Y-124450000I0J-150000D01*
G01*
X110935000Y-126100000D01*
G75*
G02*
X110785000Y-126250000I-150000J0D01*
G01*
X110485000Y-126250000D01*
G75*
G02*
X110335000Y-126100000I0J150000D01*
G01*
X110335000Y-124450000D01*
G75*
G02*
X110485000Y-124300000I150000J0D01*
G01*
G37*
G36*
G01*
X111755000Y-124300000D02*
X112055000Y-124300000D01*
G75*
G02*
X112205000Y-124450000I0J-150000D01*
G01*
X112205000Y-126100000D01*
G75*
G02*
X112055000Y-126250000I-150000J0D01*
G01*
X111755000Y-126250000D01*
G75*
G02*
X111605000Y-126100000I0J150000D01*
G01*
X111605000Y-124450000D01*
G75*
G02*
X111755000Y-124300000I150000J0D01*
G01*
G37*
G36*
G01*
X111755000Y-119350000D02*
X112055000Y-119350000D01*
G75*
G02*
X112205000Y-119500000I0J-150000D01*
G01*
X112205000Y-121150000D01*
G75*
G02*
X112055000Y-121300000I-150000J0D01*
G01*
X111755000Y-121300000D01*
G75*
G02*
X111605000Y-121150000I0J150000D01*
G01*
X111605000Y-119500000D01*
G75*
G02*
X111755000Y-119350000I150000J0D01*
G01*
G37*
G36*
G01*
X110485000Y-119350000D02*
X110785000Y-119350000D01*
G75*
G02*
X110935000Y-119500000I0J-150000D01*
G01*
X110935000Y-121150000D01*
G75*
G02*
X110785000Y-121300000I-150000J0D01*
G01*
X110485000Y-121300000D01*
G75*
G02*
X110335000Y-121150000I0J150000D01*
G01*
X110335000Y-119500000D01*
G75*
G02*
X110485000Y-119350000I150000J0D01*
G01*
G37*
G36*
G01*
X109215000Y-119350000D02*
X109515000Y-119350000D01*
G75*
G02*
X109665000Y-119500000I0J-150000D01*
G01*
X109665000Y-121150000D01*
G75*
G02*
X109515000Y-121300000I-150000J0D01*
G01*
X109215000Y-121300000D01*
G75*
G02*
X109065000Y-121150000I0J150000D01*
G01*
X109065000Y-119500000D01*
G75*
G02*
X109215000Y-119350000I150000J0D01*
G01*
G37*
G36*
G01*
X107945000Y-119350000D02*
X108245000Y-119350000D01*
G75*
G02*
X108395000Y-119500000I0J-150000D01*
G01*
X108395000Y-121150000D01*
G75*
G02*
X108245000Y-121300000I-150000J0D01*
G01*
X107945000Y-121300000D01*
G75*
G02*
X107795000Y-121150000I0J150000D01*
G01*
X107795000Y-119500000D01*
G75*
G02*
X107945000Y-119350000I150000J0D01*
G01*
G37*
D23*
X103200000Y-69250000D03*
X107800000Y-69250000D03*
X105500000Y-69250000D03*
D24*
X105500000Y-75550000D03*
D25*
X108080000Y-63400000D03*
X105540000Y-63400000D03*
D26*
X103000000Y-63400000D03*
D27*
X105540000Y-80060000D03*
D28*
X137900000Y-143200000D03*
D11*
X123700000Y-147080000D03*
X123700000Y-144540000D03*
D12*
X123700000Y-142000000D03*
X111700000Y-147000000D03*
D11*
X111700000Y-144460000D03*
D12*
X110700000Y-140500000D03*
D11*
X113240000Y-140500000D03*
X115780000Y-140500000D03*
D12*
X103000000Y-138300000D03*
D11*
X105540000Y-138300000D03*
X142000000Y-147080000D03*
X142000000Y-144540000D03*
D12*
X142000000Y-142000000D03*
D11*
X150000000Y-144460000D03*
D12*
X150000000Y-147000000D03*
D11*
X159920000Y-128000000D03*
X162460000Y-128000000D03*
D12*
X165000000Y-128000000D03*
D11*
X162460000Y-124000000D03*
D12*
X165000000Y-124000000D03*
D11*
X162460000Y-132000000D03*
D12*
X165000000Y-132000000D03*
D11*
X119700000Y-147080000D03*
X119700000Y-144540000D03*
D12*
X119700000Y-142000000D03*
D10*
X141200000Y-134480000D03*
X141200000Y-131940000D03*
X141200000Y-129400000D03*
D11*
X154000000Y-147080000D03*
X154000000Y-144540000D03*
D12*
X154000000Y-142000000D03*
D11*
X115780000Y-136500000D03*
X113240000Y-136500000D03*
D12*
X110700000Y-136500000D03*
D10*
X133380000Y-134900000D03*
X130840000Y-134900000D03*
X128300000Y-134900000D03*
D11*
X159920000Y-116000000D03*
X162460000Y-116000000D03*
D12*
X165000000Y-116000000D03*
D11*
X159920000Y-112000000D03*
X162460000Y-112000000D03*
D12*
X165000000Y-112000000D03*
D11*
X159920000Y-108000000D03*
X162460000Y-108000000D03*
D12*
X165000000Y-108000000D03*
D11*
X159920000Y-100000000D03*
X162460000Y-100000000D03*
D12*
X165000000Y-100000000D03*
D11*
X151000000Y-90920000D03*
X151000000Y-93460000D03*
D12*
X151000000Y-96000000D03*
D10*
X146780000Y-108200000D03*
X144240000Y-108200000D03*
X141700000Y-108200000D03*
X127200000Y-75200000D03*
X129740000Y-75200000D03*
X132280000Y-75200000D03*
D11*
X137020000Y-55000000D03*
X139560000Y-55000000D03*
D12*
X142100000Y-55000000D03*
G36*
G01*
X119400000Y-135649999D02*
X119400000Y-136550001D01*
G75*
G02*
X119150001Y-136800000I-249999J0D01*
G01*
X118449999Y-136800000D01*
G75*
G02*
X118200000Y-136550001I0J249999D01*
G01*
X118200000Y-135649999D01*
G75*
G02*
X118449999Y-135400000I249999J0D01*
G01*
X119150001Y-135400000D01*
G75*
G02*
X119400000Y-135649999I0J-249999D01*
G01*
G37*
G36*
G01*
X121400000Y-135649999D02*
X121400000Y-136550001D01*
G75*
G02*
X121150001Y-136800000I-249999J0D01*
G01*
X120449999Y-136800000D01*
G75*
G02*
X120200000Y-136550001I0J249999D01*
G01*
X120200000Y-135649999D01*
G75*
G02*
X120449999Y-135400000I249999J0D01*
G01*
X121150001Y-135400000D01*
G75*
G02*
X121400000Y-135649999I0J-249999D01*
G01*
G37*
G36*
G01*
X119450001Y-138700000D02*
X118549999Y-138700000D01*
G75*
G02*
X118300000Y-138450001I0J249999D01*
G01*
X118300000Y-137749999D01*
G75*
G02*
X118549999Y-137500000I249999J0D01*
G01*
X119450001Y-137500000D01*
G75*
G02*
X119700000Y-137749999I0J-249999D01*
G01*
X119700000Y-138450001D01*
G75*
G02*
X119450001Y-138700000I-249999J0D01*
G01*
G37*
G36*
G01*
X119450001Y-140700000D02*
X118549999Y-140700000D01*
G75*
G02*
X118300000Y-140450001I0J249999D01*
G01*
X118300000Y-139749999D01*
G75*
G02*
X118549999Y-139500000I249999J0D01*
G01*
X119450001Y-139500000D01*
G75*
G02*
X119700000Y-139749999I0J-249999D01*
G01*
X119700000Y-140450001D01*
G75*
G02*
X119450001Y-140700000I-249999J0D01*
G01*
G37*
G36*
G01*
X122349999Y-135400000D02*
X123250001Y-135400000D01*
G75*
G02*
X123500000Y-135649999I0J-249999D01*
G01*
X123500000Y-136350001D01*
G75*
G02*
X123250001Y-136600000I-249999J0D01*
G01*
X122349999Y-136600000D01*
G75*
G02*
X122100000Y-136350001I0J249999D01*
G01*
X122100000Y-135649999D01*
G75*
G02*
X122349999Y-135400000I249999J0D01*
G01*
G37*
G36*
G01*
X122349999Y-133400000D02*
X123250001Y-133400000D01*
G75*
G02*
X123500000Y-133649999I0J-249999D01*
G01*
X123500000Y-134350001D01*
G75*
G02*
X123250001Y-134600000I-249999J0D01*
G01*
X122349999Y-134600000D01*
G75*
G02*
X122100000Y-134350001I0J249999D01*
G01*
X122100000Y-133649999D01*
G75*
G02*
X122349999Y-133400000I249999J0D01*
G01*
G37*
G36*
G01*
X129000000Y-138349999D02*
X129000000Y-139250001D01*
G75*
G02*
X128750001Y-139500000I-249999J0D01*
G01*
X128049999Y-139500000D01*
G75*
G02*
X127800000Y-139250001I0J249999D01*
G01*
X127800000Y-138349999D01*
G75*
G02*
X128049999Y-138100000I249999J0D01*
G01*
X128750001Y-138100000D01*
G75*
G02*
X129000000Y-138349999I0J-249999D01*
G01*
G37*
G36*
G01*
X131000000Y-138349999D02*
X131000000Y-139250001D01*
G75*
G02*
X130750001Y-139500000I-249999J0D01*
G01*
X130049999Y-139500000D01*
G75*
G02*
X129800000Y-139250001I0J249999D01*
G01*
X129800000Y-138349999D01*
G75*
G02*
X130049999Y-138100000I249999J0D01*
G01*
X130750001Y-138100000D01*
G75*
G02*
X131000000Y-138349999I0J-249999D01*
G01*
G37*
G36*
G01*
X129000000Y-140349999D02*
X129000000Y-141250001D01*
G75*
G02*
X128750001Y-141500000I-249999J0D01*
G01*
X128049999Y-141500000D01*
G75*
G02*
X127800000Y-141250001I0J249999D01*
G01*
X127800000Y-140349999D01*
G75*
G02*
X128049999Y-140100000I249999J0D01*
G01*
X128750001Y-140100000D01*
G75*
G02*
X129000000Y-140349999I0J-249999D01*
G01*
G37*
G36*
G01*
X131000000Y-140349999D02*
X131000000Y-141250001D01*
G75*
G02*
X130750001Y-141500000I-249999J0D01*
G01*
X130049999Y-141500000D01*
G75*
G02*
X129800000Y-141250001I0J249999D01*
G01*
X129800000Y-140349999D01*
G75*
G02*
X130049999Y-140100000I249999J0D01*
G01*
X130750001Y-140100000D01*
G75*
G02*
X131000000Y-140349999I0J-249999D01*
G01*
G37*
G36*
G01*
X129800000Y-137250001D02*
X129800000Y-136349999D01*
G75*
G02*
X130049999Y-136100000I249999J0D01*
G01*
X130750001Y-136100000D01*
G75*
G02*
X131000000Y-136349999I0J-249999D01*
G01*
X131000000Y-137250001D01*
G75*
G02*
X130750001Y-137500000I-249999J0D01*
G01*
X130049999Y-137500000D01*
G75*
G02*
X129800000Y-137250001I0J249999D01*
G01*
G37*
G36*
G01*
X127800000Y-137250001D02*
X127800000Y-136349999D01*
G75*
G02*
X128049999Y-136100000I249999J0D01*
G01*
X128750001Y-136100000D01*
G75*
G02*
X129000000Y-136349999I0J-249999D01*
G01*
X129000000Y-137250001D01*
G75*
G02*
X128750001Y-137500000I-249999J0D01*
G01*
X128049999Y-137500000D01*
G75*
G02*
X127800000Y-137250001I0J249999D01*
G01*
G37*
G36*
G01*
X118700000Y-126049999D02*
X118700000Y-126950001D01*
G75*
G02*
X118450001Y-127200000I-249999J0D01*
G01*
X117749999Y-127200000D01*
G75*
G02*
X117500000Y-126950001I0J249999D01*
G01*
X117500000Y-126049999D01*
G75*
G02*
X117749999Y-125800000I249999J0D01*
G01*
X118450001Y-125800000D01*
G75*
G02*
X118700000Y-126049999I0J-249999D01*
G01*
G37*
G36*
G01*
X120700000Y-126049999D02*
X120700000Y-126950001D01*
G75*
G02*
X120450001Y-127200000I-249999J0D01*
G01*
X119749999Y-127200000D01*
G75*
G02*
X119500000Y-126950001I0J249999D01*
G01*
X119500000Y-126049999D01*
G75*
G02*
X119749999Y-125800000I249999J0D01*
G01*
X120450001Y-125800000D01*
G75*
G02*
X120700000Y-126049999I0J-249999D01*
G01*
G37*
G36*
G01*
X123300000Y-126950001D02*
X123300000Y-126049999D01*
G75*
G02*
X123549999Y-125800000I249999J0D01*
G01*
X124250001Y-125800000D01*
G75*
G02*
X124500000Y-126049999I0J-249999D01*
G01*
X124500000Y-126950001D01*
G75*
G02*
X124250001Y-127200000I-249999J0D01*
G01*
X123549999Y-127200000D01*
G75*
G02*
X123300000Y-126950001I0J249999D01*
G01*
G37*
G36*
G01*
X121300000Y-126950001D02*
X121300000Y-126049999D01*
G75*
G02*
X121549999Y-125800000I249999J0D01*
G01*
X122250001Y-125800000D01*
G75*
G02*
X122500000Y-126049999I0J-249999D01*
G01*
X122500000Y-126950001D01*
G75*
G02*
X122250001Y-127200000I-249999J0D01*
G01*
X121549999Y-127200000D01*
G75*
G02*
X121300000Y-126950001I0J249999D01*
G01*
G37*
G36*
G01*
X113000000Y-142950001D02*
X113000000Y-142049999D01*
G75*
G02*
X113249999Y-141800000I249999J0D01*
G01*
X113950001Y-141800000D01*
G75*
G02*
X114200000Y-142049999I0J-249999D01*
G01*
X114200000Y-142950001D01*
G75*
G02*
X113950001Y-143200000I-249999J0D01*
G01*
X113249999Y-143200000D01*
G75*
G02*
X113000000Y-142950001I0J249999D01*
G01*
G37*
G36*
G01*
X115000000Y-142950001D02*
X115000000Y-142049999D01*
G75*
G02*
X115249999Y-141800000I249999J0D01*
G01*
X115950001Y-141800000D01*
G75*
G02*
X116200000Y-142049999I0J-249999D01*
G01*
X116200000Y-142950001D01*
G75*
G02*
X115950001Y-143200000I-249999J0D01*
G01*
X115249999Y-143200000D01*
G75*
G02*
X115000000Y-142950001I0J249999D01*
G01*
G37*
G36*
G01*
X112400000Y-142049999D02*
X112400000Y-142950001D01*
G75*
G02*
X112150001Y-143200000I-249999J0D01*
G01*
X111449999Y-143200000D01*
G75*
G02*
X111200000Y-142950001I0J249999D01*
G01*
X111200000Y-142049999D01*
G75*
G02*
X111449999Y-141800000I249999J0D01*
G01*
X112150001Y-141800000D01*
G75*
G02*
X112400000Y-142049999I0J-249999D01*
G01*
G37*
G36*
G01*
X110400000Y-142049999D02*
X110400000Y-142950001D01*
G75*
G02*
X110150001Y-143200000I-249999J0D01*
G01*
X109449999Y-143200000D01*
G75*
G02*
X109200000Y-142950001I0J249999D01*
G01*
X109200000Y-142049999D01*
G75*
G02*
X109449999Y-141800000I249999J0D01*
G01*
X110150001Y-141800000D01*
G75*
G02*
X110400000Y-142049999I0J-249999D01*
G01*
G37*
G36*
G01*
X108550001Y-139900000D02*
X107649999Y-139900000D01*
G75*
G02*
X107400000Y-139650001I0J249999D01*
G01*
X107400000Y-138949999D01*
G75*
G02*
X107649999Y-138700000I249999J0D01*
G01*
X108550001Y-138700000D01*
G75*
G02*
X108800000Y-138949999I0J-249999D01*
G01*
X108800000Y-139650001D01*
G75*
G02*
X108550001Y-139900000I-249999J0D01*
G01*
G37*
G36*
G01*
X108550001Y-137900000D02*
X107649999Y-137900000D01*
G75*
G02*
X107400000Y-137650001I0J249999D01*
G01*
X107400000Y-136949999D01*
G75*
G02*
X107649999Y-136700000I249999J0D01*
G01*
X108550001Y-136700000D01*
G75*
G02*
X108800000Y-136949999I0J-249999D01*
G01*
X108800000Y-137650001D01*
G75*
G02*
X108550001Y-137900000I-249999J0D01*
G01*
G37*
G36*
G01*
X138600000Y-133350001D02*
X138600000Y-132449999D01*
G75*
G02*
X138849999Y-132200000I249999J0D01*
G01*
X139550001Y-132200000D01*
G75*
G02*
X139800000Y-132449999I0J-249999D01*
G01*
X139800000Y-133350001D01*
G75*
G02*
X139550001Y-133600000I-249999J0D01*
G01*
X138849999Y-133600000D01*
G75*
G02*
X138600000Y-133350001I0J249999D01*
G01*
G37*
G36*
G01*
X136600000Y-133350001D02*
X136600000Y-132449999D01*
G75*
G02*
X136849999Y-132200000I249999J0D01*
G01*
X137550001Y-132200000D01*
G75*
G02*
X137800000Y-132449999I0J-249999D01*
G01*
X137800000Y-133350001D01*
G75*
G02*
X137550001Y-133600000I-249999J0D01*
G01*
X136849999Y-133600000D01*
G75*
G02*
X136600000Y-133350001I0J249999D01*
G01*
G37*
G36*
G01*
X151150001Y-133100000D02*
X150249999Y-133100000D01*
G75*
G02*
X150000000Y-132850001I0J249999D01*
G01*
X150000000Y-132149999D01*
G75*
G02*
X150249999Y-131900000I249999J0D01*
G01*
X151150001Y-131900000D01*
G75*
G02*
X151400000Y-132149999I0J-249999D01*
G01*
X151400000Y-132850001D01*
G75*
G02*
X151150001Y-133100000I-249999J0D01*
G01*
G37*
G36*
G01*
X151150001Y-135100000D02*
X150249999Y-135100000D01*
G75*
G02*
X150000000Y-134850001I0J249999D01*
G01*
X150000000Y-134149999D01*
G75*
G02*
X150249999Y-133900000I249999J0D01*
G01*
X151150001Y-133900000D01*
G75*
G02*
X151400000Y-134149999I0J-249999D01*
G01*
X151400000Y-134850001D01*
G75*
G02*
X151150001Y-135100000I-249999J0D01*
G01*
G37*
G36*
G01*
X148500000Y-130049999D02*
X148500000Y-130950001D01*
G75*
G02*
X148250001Y-131200000I-249999J0D01*
G01*
X147549999Y-131200000D01*
G75*
G02*
X147300000Y-130950001I0J249999D01*
G01*
X147300000Y-130049999D01*
G75*
G02*
X147549999Y-129800000I249999J0D01*
G01*
X148250001Y-129800000D01*
G75*
G02*
X148500000Y-130049999I0J-249999D01*
G01*
G37*
G36*
G01*
X150500000Y-130049999D02*
X150500000Y-130950001D01*
G75*
G02*
X150250001Y-131200000I-249999J0D01*
G01*
X149549999Y-131200000D01*
G75*
G02*
X149300000Y-130950001I0J249999D01*
G01*
X149300000Y-130049999D01*
G75*
G02*
X149549999Y-129800000I249999J0D01*
G01*
X150250001Y-129800000D01*
G75*
G02*
X150500000Y-130049999I0J-249999D01*
G01*
G37*
G36*
G01*
X142849999Y-133900000D02*
X143750001Y-133900000D01*
G75*
G02*
X144000000Y-134149999I0J-249999D01*
G01*
X144000000Y-134850001D01*
G75*
G02*
X143750001Y-135100000I-249999J0D01*
G01*
X142849999Y-135100000D01*
G75*
G02*
X142600000Y-134850001I0J249999D01*
G01*
X142600000Y-134149999D01*
G75*
G02*
X142849999Y-133900000I249999J0D01*
G01*
G37*
G36*
G01*
X142849999Y-131900000D02*
X143750001Y-131900000D01*
G75*
G02*
X144000000Y-132149999I0J-249999D01*
G01*
X144000000Y-132850001D01*
G75*
G02*
X143750001Y-133100000I-249999J0D01*
G01*
X142849999Y-133100000D01*
G75*
G02*
X142600000Y-132850001I0J249999D01*
G01*
X142600000Y-132149999D01*
G75*
G02*
X142849999Y-131900000I249999J0D01*
G01*
G37*
G36*
G01*
X144700000Y-130049999D02*
X144700000Y-130950001D01*
G75*
G02*
X144450001Y-131200000I-249999J0D01*
G01*
X143749999Y-131200000D01*
G75*
G02*
X143500000Y-130950001I0J249999D01*
G01*
X143500000Y-130049999D01*
G75*
G02*
X143749999Y-129800000I249999J0D01*
G01*
X144450001Y-129800000D01*
G75*
G02*
X144700000Y-130049999I0J-249999D01*
G01*
G37*
G36*
G01*
X146700000Y-130049999D02*
X146700000Y-130950001D01*
G75*
G02*
X146450001Y-131200000I-249999J0D01*
G01*
X145749999Y-131200000D01*
G75*
G02*
X145500000Y-130950001I0J249999D01*
G01*
X145500000Y-130049999D01*
G75*
G02*
X145749999Y-129800000I249999J0D01*
G01*
X146450001Y-129800000D01*
G75*
G02*
X146700000Y-130049999I0J-249999D01*
G01*
G37*
G36*
G01*
X142849999Y-137700000D02*
X143750001Y-137700000D01*
G75*
G02*
X144000000Y-137949999I0J-249999D01*
G01*
X144000000Y-138650001D01*
G75*
G02*
X143750001Y-138900000I-249999J0D01*
G01*
X142849999Y-138900000D01*
G75*
G02*
X142600000Y-138650001I0J249999D01*
G01*
X142600000Y-137949999D01*
G75*
G02*
X142849999Y-137700000I249999J0D01*
G01*
G37*
G36*
G01*
X142849999Y-135700000D02*
X143750001Y-135700000D01*
G75*
G02*
X144000000Y-135949999I0J-249999D01*
G01*
X144000000Y-136650001D01*
G75*
G02*
X143750001Y-136900000I-249999J0D01*
G01*
X142849999Y-136900000D01*
G75*
G02*
X142600000Y-136650001I0J249999D01*
G01*
X142600000Y-135949999D01*
G75*
G02*
X142849999Y-135700000I249999J0D01*
G01*
G37*
G36*
G01*
X127249999Y-144400000D02*
X128150001Y-144400000D01*
G75*
G02*
X128400000Y-144649999I0J-249999D01*
G01*
X128400000Y-145350001D01*
G75*
G02*
X128150001Y-145600000I-249999J0D01*
G01*
X127249999Y-145600000D01*
G75*
G02*
X127000000Y-145350001I0J249999D01*
G01*
X127000000Y-144649999D01*
G75*
G02*
X127249999Y-144400000I249999J0D01*
G01*
G37*
G36*
G01*
X127249999Y-142400000D02*
X128150001Y-142400000D01*
G75*
G02*
X128400000Y-142649999I0J-249999D01*
G01*
X128400000Y-143350001D01*
G75*
G02*
X128150001Y-143600000I-249999J0D01*
G01*
X127249999Y-143600000D01*
G75*
G02*
X127000000Y-143350001I0J249999D01*
G01*
X127000000Y-142649999D01*
G75*
G02*
X127249999Y-142400000I249999J0D01*
G01*
G37*
G36*
G01*
X138600000Y-135350001D02*
X138600000Y-134449999D01*
G75*
G02*
X138849999Y-134200000I249999J0D01*
G01*
X139550001Y-134200000D01*
G75*
G02*
X139800000Y-134449999I0J-249999D01*
G01*
X139800000Y-135350001D01*
G75*
G02*
X139550001Y-135600000I-249999J0D01*
G01*
X138849999Y-135600000D01*
G75*
G02*
X138600000Y-135350001I0J249999D01*
G01*
G37*
G36*
G01*
X136600000Y-135350001D02*
X136600000Y-134449999D01*
G75*
G02*
X136849999Y-134200000I249999J0D01*
G01*
X137550001Y-134200000D01*
G75*
G02*
X137800000Y-134449999I0J-249999D01*
G01*
X137800000Y-135350001D01*
G75*
G02*
X137550001Y-135600000I-249999J0D01*
G01*
X136849999Y-135600000D01*
G75*
G02*
X136600000Y-135350001I0J249999D01*
G01*
G37*
G36*
G01*
X129849999Y-144400000D02*
X130750001Y-144400000D01*
G75*
G02*
X131000000Y-144649999I0J-249999D01*
G01*
X131000000Y-145350001D01*
G75*
G02*
X130750001Y-145600000I-249999J0D01*
G01*
X129849999Y-145600000D01*
G75*
G02*
X129600000Y-145350001I0J249999D01*
G01*
X129600000Y-144649999D01*
G75*
G02*
X129849999Y-144400000I249999J0D01*
G01*
G37*
G36*
G01*
X129849999Y-142400000D02*
X130750001Y-142400000D01*
G75*
G02*
X131000000Y-142649999I0J-249999D01*
G01*
X131000000Y-143350001D01*
G75*
G02*
X130750001Y-143600000I-249999J0D01*
G01*
X129849999Y-143600000D01*
G75*
G02*
X129600000Y-143350001I0J249999D01*
G01*
X129600000Y-142649999D01*
G75*
G02*
X129849999Y-142400000I249999J0D01*
G01*
G37*
G36*
G01*
X132449999Y-144400000D02*
X133350001Y-144400000D01*
G75*
G02*
X133600000Y-144649999I0J-249999D01*
G01*
X133600000Y-145350001D01*
G75*
G02*
X133350001Y-145600000I-249999J0D01*
G01*
X132449999Y-145600000D01*
G75*
G02*
X132200000Y-145350001I0J249999D01*
G01*
X132200000Y-144649999D01*
G75*
G02*
X132449999Y-144400000I249999J0D01*
G01*
G37*
G36*
G01*
X132449999Y-142400000D02*
X133350001Y-142400000D01*
G75*
G02*
X133600000Y-142649999I0J-249999D01*
G01*
X133600000Y-143350001D01*
G75*
G02*
X133350001Y-143600000I-249999J0D01*
G01*
X132449999Y-143600000D01*
G75*
G02*
X132200000Y-143350001I0J249999D01*
G01*
X132200000Y-142649999D01*
G75*
G02*
X132449999Y-142400000I249999J0D01*
G01*
G37*
G36*
G01*
X115749999Y-133900000D02*
X116650001Y-133900000D01*
G75*
G02*
X116900000Y-134149999I0J-249999D01*
G01*
X116900000Y-134850001D01*
G75*
G02*
X116650001Y-135100000I-249999J0D01*
G01*
X115749999Y-135100000D01*
G75*
G02*
X115500000Y-134850001I0J249999D01*
G01*
X115500000Y-134149999D01*
G75*
G02*
X115749999Y-133900000I249999J0D01*
G01*
G37*
G36*
G01*
X115749999Y-131900000D02*
X116650001Y-131900000D01*
G75*
G02*
X116900000Y-132149999I0J-249999D01*
G01*
X116900000Y-132850001D01*
G75*
G02*
X116650001Y-133100000I-249999J0D01*
G01*
X115749999Y-133100000D01*
G75*
G02*
X115500000Y-132850001I0J249999D01*
G01*
X115500000Y-132149999D01*
G75*
G02*
X115749999Y-131900000I249999J0D01*
G01*
G37*
G36*
G01*
X113749999Y-133900000D02*
X114650001Y-133900000D01*
G75*
G02*
X114900000Y-134149999I0J-249999D01*
G01*
X114900000Y-134850001D01*
G75*
G02*
X114650001Y-135100000I-249999J0D01*
G01*
X113749999Y-135100000D01*
G75*
G02*
X113500000Y-134850001I0J249999D01*
G01*
X113500000Y-134149999D01*
G75*
G02*
X113749999Y-133900000I249999J0D01*
G01*
G37*
G36*
G01*
X113749999Y-131900000D02*
X114650001Y-131900000D01*
G75*
G02*
X114900000Y-132149999I0J-249999D01*
G01*
X114900000Y-132850001D01*
G75*
G02*
X114650001Y-133100000I-249999J0D01*
G01*
X113749999Y-133100000D01*
G75*
G02*
X113500000Y-132850001I0J249999D01*
G01*
X113500000Y-132149999D01*
G75*
G02*
X113749999Y-131900000I249999J0D01*
G01*
G37*
G36*
G01*
X135049999Y-144400000D02*
X135950001Y-144400000D01*
G75*
G02*
X136200000Y-144649999I0J-249999D01*
G01*
X136200000Y-145350001D01*
G75*
G02*
X135950001Y-145600000I-249999J0D01*
G01*
X135049999Y-145600000D01*
G75*
G02*
X134800000Y-145350001I0J249999D01*
G01*
X134800000Y-144649999D01*
G75*
G02*
X135049999Y-144400000I249999J0D01*
G01*
G37*
G36*
G01*
X135049999Y-142400000D02*
X135950001Y-142400000D01*
G75*
G02*
X136200000Y-142649999I0J-249999D01*
G01*
X136200000Y-143350001D01*
G75*
G02*
X135950001Y-143600000I-249999J0D01*
G01*
X135049999Y-143600000D01*
G75*
G02*
X134800000Y-143350001I0J249999D01*
G01*
X134800000Y-142649999D01*
G75*
G02*
X135049999Y-142400000I249999J0D01*
G01*
G37*
G36*
G01*
X112650001Y-133100000D02*
X111749999Y-133100000D01*
G75*
G02*
X111500000Y-132850001I0J249999D01*
G01*
X111500000Y-132149999D01*
G75*
G02*
X111749999Y-131900000I249999J0D01*
G01*
X112650001Y-131900000D01*
G75*
G02*
X112900000Y-132149999I0J-249999D01*
G01*
X112900000Y-132850001D01*
G75*
G02*
X112650001Y-133100000I-249999J0D01*
G01*
G37*
G36*
G01*
X112650001Y-135100000D02*
X111749999Y-135100000D01*
G75*
G02*
X111500000Y-134850001I0J249999D01*
G01*
X111500000Y-134149999D01*
G75*
G02*
X111749999Y-133900000I249999J0D01*
G01*
X112650001Y-133900000D01*
G75*
G02*
X112900000Y-134149999I0J-249999D01*
G01*
X112900000Y-134850001D01*
G75*
G02*
X112650001Y-135100000I-249999J0D01*
G01*
G37*
G36*
G01*
X135750001Y-133500000D02*
X134849999Y-133500000D01*
G75*
G02*
X134600000Y-133250001I0J249999D01*
G01*
X134600000Y-132549999D01*
G75*
G02*
X134849999Y-132300000I249999J0D01*
G01*
X135750001Y-132300000D01*
G75*
G02*
X136000000Y-132549999I0J-249999D01*
G01*
X136000000Y-133250001D01*
G75*
G02*
X135750001Y-133500000I-249999J0D01*
G01*
G37*
G36*
G01*
X135750001Y-135500000D02*
X134849999Y-135500000D01*
G75*
G02*
X134600000Y-135250001I0J249999D01*
G01*
X134600000Y-134549999D01*
G75*
G02*
X134849999Y-134300000I249999J0D01*
G01*
X135750001Y-134300000D01*
G75*
G02*
X136000000Y-134549999I0J-249999D01*
G01*
X136000000Y-135250001D01*
G75*
G02*
X135750001Y-135500000I-249999J0D01*
G01*
G37*
G36*
G01*
X110650001Y-133100000D02*
X109749999Y-133100000D01*
G75*
G02*
X109500000Y-132850001I0J249999D01*
G01*
X109500000Y-132149999D01*
G75*
G02*
X109749999Y-131900000I249999J0D01*
G01*
X110650001Y-131900000D01*
G75*
G02*
X110900000Y-132149999I0J-249999D01*
G01*
X110900000Y-132850001D01*
G75*
G02*
X110650001Y-133100000I-249999J0D01*
G01*
G37*
G36*
G01*
X110650001Y-135100000D02*
X109749999Y-135100000D01*
G75*
G02*
X109500000Y-134850001I0J249999D01*
G01*
X109500000Y-134149999D01*
G75*
G02*
X109749999Y-133900000I249999J0D01*
G01*
X110650001Y-133900000D01*
G75*
G02*
X110900000Y-134149999I0J-249999D01*
G01*
X110900000Y-134850001D01*
G75*
G02*
X110650001Y-135100000I-249999J0D01*
G01*
G37*
G36*
G01*
X153249999Y-116400000D02*
X154150001Y-116400000D01*
G75*
G02*
X154400000Y-116649999I0J-249999D01*
G01*
X154400000Y-117350001D01*
G75*
G02*
X154150001Y-117600000I-249999J0D01*
G01*
X153249999Y-117600000D01*
G75*
G02*
X153000000Y-117350001I0J249999D01*
G01*
X153000000Y-116649999D01*
G75*
G02*
X153249999Y-116400000I249999J0D01*
G01*
G37*
G36*
G01*
X153249999Y-114400000D02*
X154150001Y-114400000D01*
G75*
G02*
X154400000Y-114649999I0J-249999D01*
G01*
X154400000Y-115350001D01*
G75*
G02*
X154150001Y-115600000I-249999J0D01*
G01*
X153249999Y-115600000D01*
G75*
G02*
X153000000Y-115350001I0J249999D01*
G01*
X153000000Y-114649999D01*
G75*
G02*
X153249999Y-114400000I249999J0D01*
G01*
G37*
G36*
G01*
X158150001Y-115600000D02*
X157249999Y-115600000D01*
G75*
G02*
X157000000Y-115350001I0J249999D01*
G01*
X157000000Y-114649999D01*
G75*
G02*
X157249999Y-114400000I249999J0D01*
G01*
X158150001Y-114400000D01*
G75*
G02*
X158400000Y-114649999I0J-249999D01*
G01*
X158400000Y-115350001D01*
G75*
G02*
X158150001Y-115600000I-249999J0D01*
G01*
G37*
G36*
G01*
X158150001Y-117600000D02*
X157249999Y-117600000D01*
G75*
G02*
X157000000Y-117350001I0J249999D01*
G01*
X157000000Y-116649999D01*
G75*
G02*
X157249999Y-116400000I249999J0D01*
G01*
X158150001Y-116400000D01*
G75*
G02*
X158400000Y-116649999I0J-249999D01*
G01*
X158400000Y-117350001D01*
G75*
G02*
X158150001Y-117600000I-249999J0D01*
G01*
G37*
G36*
G01*
X155249999Y-116400000D02*
X156150001Y-116400000D01*
G75*
G02*
X156400000Y-116649999I0J-249999D01*
G01*
X156400000Y-117350001D01*
G75*
G02*
X156150001Y-117600000I-249999J0D01*
G01*
X155249999Y-117600000D01*
G75*
G02*
X155000000Y-117350001I0J249999D01*
G01*
X155000000Y-116649999D01*
G75*
G02*
X155249999Y-116400000I249999J0D01*
G01*
G37*
G36*
G01*
X155249999Y-114400000D02*
X156150001Y-114400000D01*
G75*
G02*
X156400000Y-114649999I0J-249999D01*
G01*
X156400000Y-115350001D01*
G75*
G02*
X156150001Y-115600000I-249999J0D01*
G01*
X155249999Y-115600000D01*
G75*
G02*
X155000000Y-115350001I0J249999D01*
G01*
X155000000Y-114649999D01*
G75*
G02*
X155249999Y-114400000I249999J0D01*
G01*
G37*
G36*
G01*
X153249999Y-112400000D02*
X154150001Y-112400000D01*
G75*
G02*
X154400000Y-112649999I0J-249999D01*
G01*
X154400000Y-113350001D01*
G75*
G02*
X154150001Y-113600000I-249999J0D01*
G01*
X153249999Y-113600000D01*
G75*
G02*
X153000000Y-113350001I0J249999D01*
G01*
X153000000Y-112649999D01*
G75*
G02*
X153249999Y-112400000I249999J0D01*
G01*
G37*
G36*
G01*
X153249999Y-110400000D02*
X154150001Y-110400000D01*
G75*
G02*
X154400000Y-110649999I0J-249999D01*
G01*
X154400000Y-111350001D01*
G75*
G02*
X154150001Y-111600000I-249999J0D01*
G01*
X153249999Y-111600000D01*
G75*
G02*
X153000000Y-111350001I0J249999D01*
G01*
X153000000Y-110649999D01*
G75*
G02*
X153249999Y-110400000I249999J0D01*
G01*
G37*
G36*
G01*
X158150001Y-111600000D02*
X157249999Y-111600000D01*
G75*
G02*
X157000000Y-111350001I0J249999D01*
G01*
X157000000Y-110649999D01*
G75*
G02*
X157249999Y-110400000I249999J0D01*
G01*
X158150001Y-110400000D01*
G75*
G02*
X158400000Y-110649999I0J-249999D01*
G01*
X158400000Y-111350001D01*
G75*
G02*
X158150001Y-111600000I-249999J0D01*
G01*
G37*
G36*
G01*
X158150001Y-113600000D02*
X157249999Y-113600000D01*
G75*
G02*
X157000000Y-113350001I0J249999D01*
G01*
X157000000Y-112649999D01*
G75*
G02*
X157249999Y-112400000I249999J0D01*
G01*
X158150001Y-112400000D01*
G75*
G02*
X158400000Y-112649999I0J-249999D01*
G01*
X158400000Y-113350001D01*
G75*
G02*
X158150001Y-113600000I-249999J0D01*
G01*
G37*
G36*
G01*
X155249999Y-112400000D02*
X156150001Y-112400000D01*
G75*
G02*
X156400000Y-112649999I0J-249999D01*
G01*
X156400000Y-113350001D01*
G75*
G02*
X156150001Y-113600000I-249999J0D01*
G01*
X155249999Y-113600000D01*
G75*
G02*
X155000000Y-113350001I0J249999D01*
G01*
X155000000Y-112649999D01*
G75*
G02*
X155249999Y-112400000I249999J0D01*
G01*
G37*
G36*
G01*
X155249999Y-110400000D02*
X156150001Y-110400000D01*
G75*
G02*
X156400000Y-110649999I0J-249999D01*
G01*
X156400000Y-111350001D01*
G75*
G02*
X156150001Y-111600000I-249999J0D01*
G01*
X155249999Y-111600000D01*
G75*
G02*
X155000000Y-111350001I0J249999D01*
G01*
X155000000Y-110649999D01*
G75*
G02*
X155249999Y-110400000I249999J0D01*
G01*
G37*
G36*
G01*
X153249999Y-108400000D02*
X154150001Y-108400000D01*
G75*
G02*
X154400000Y-108649999I0J-249999D01*
G01*
X154400000Y-109350001D01*
G75*
G02*
X154150001Y-109600000I-249999J0D01*
G01*
X153249999Y-109600000D01*
G75*
G02*
X153000000Y-109350001I0J249999D01*
G01*
X153000000Y-108649999D01*
G75*
G02*
X153249999Y-108400000I249999J0D01*
G01*
G37*
G36*
G01*
X153249999Y-106400000D02*
X154150001Y-106400000D01*
G75*
G02*
X154400000Y-106649999I0J-249999D01*
G01*
X154400000Y-107350001D01*
G75*
G02*
X154150001Y-107600000I-249999J0D01*
G01*
X153249999Y-107600000D01*
G75*
G02*
X153000000Y-107350001I0J249999D01*
G01*
X153000000Y-106649999D01*
G75*
G02*
X153249999Y-106400000I249999J0D01*
G01*
G37*
G36*
G01*
X158150001Y-107600000D02*
X157249999Y-107600000D01*
G75*
G02*
X157000000Y-107350001I0J249999D01*
G01*
X157000000Y-106649999D01*
G75*
G02*
X157249999Y-106400000I249999J0D01*
G01*
X158150001Y-106400000D01*
G75*
G02*
X158400000Y-106649999I0J-249999D01*
G01*
X158400000Y-107350001D01*
G75*
G02*
X158150001Y-107600000I-249999J0D01*
G01*
G37*
G36*
G01*
X158150001Y-109600000D02*
X157249999Y-109600000D01*
G75*
G02*
X157000000Y-109350001I0J249999D01*
G01*
X157000000Y-108649999D01*
G75*
G02*
X157249999Y-108400000I249999J0D01*
G01*
X158150001Y-108400000D01*
G75*
G02*
X158400000Y-108649999I0J-249999D01*
G01*
X158400000Y-109350001D01*
G75*
G02*
X158150001Y-109600000I-249999J0D01*
G01*
G37*
G36*
G01*
X155249999Y-108400000D02*
X156150001Y-108400000D01*
G75*
G02*
X156400000Y-108649999I0J-249999D01*
G01*
X156400000Y-109350001D01*
G75*
G02*
X156150001Y-109600000I-249999J0D01*
G01*
X155249999Y-109600000D01*
G75*
G02*
X155000000Y-109350001I0J249999D01*
G01*
X155000000Y-108649999D01*
G75*
G02*
X155249999Y-108400000I249999J0D01*
G01*
G37*
G36*
G01*
X155249999Y-106400000D02*
X156150001Y-106400000D01*
G75*
G02*
X156400000Y-106649999I0J-249999D01*
G01*
X156400000Y-107350001D01*
G75*
G02*
X156150001Y-107600000I-249999J0D01*
G01*
X155249999Y-107600000D01*
G75*
G02*
X155000000Y-107350001I0J249999D01*
G01*
X155000000Y-106649999D01*
G75*
G02*
X155249999Y-106400000I249999J0D01*
G01*
G37*
G36*
G01*
X153249999Y-100400000D02*
X154150001Y-100400000D01*
G75*
G02*
X154400000Y-100649999I0J-249999D01*
G01*
X154400000Y-101350001D01*
G75*
G02*
X154150001Y-101600000I-249999J0D01*
G01*
X153249999Y-101600000D01*
G75*
G02*
X153000000Y-101350001I0J249999D01*
G01*
X153000000Y-100649999D01*
G75*
G02*
X153249999Y-100400000I249999J0D01*
G01*
G37*
G36*
G01*
X153249999Y-98400000D02*
X154150001Y-98400000D01*
G75*
G02*
X154400000Y-98649999I0J-249999D01*
G01*
X154400000Y-99350001D01*
G75*
G02*
X154150001Y-99600000I-249999J0D01*
G01*
X153249999Y-99600000D01*
G75*
G02*
X153000000Y-99350001I0J249999D01*
G01*
X153000000Y-98649999D01*
G75*
G02*
X153249999Y-98400000I249999J0D01*
G01*
G37*
G36*
G01*
X158150001Y-99600000D02*
X157249999Y-99600000D01*
G75*
G02*
X157000000Y-99350001I0J249999D01*
G01*
X157000000Y-98649999D01*
G75*
G02*
X157249999Y-98400000I249999J0D01*
G01*
X158150001Y-98400000D01*
G75*
G02*
X158400000Y-98649999I0J-249999D01*
G01*
X158400000Y-99350001D01*
G75*
G02*
X158150001Y-99600000I-249999J0D01*
G01*
G37*
G36*
G01*
X158150001Y-101600000D02*
X157249999Y-101600000D01*
G75*
G02*
X157000000Y-101350001I0J249999D01*
G01*
X157000000Y-100649999D01*
G75*
G02*
X157249999Y-100400000I249999J0D01*
G01*
X158150001Y-100400000D01*
G75*
G02*
X158400000Y-100649999I0J-249999D01*
G01*
X158400000Y-101350001D01*
G75*
G02*
X158150001Y-101600000I-249999J0D01*
G01*
G37*
G36*
G01*
X155249999Y-100400000D02*
X156150001Y-100400000D01*
G75*
G02*
X156400000Y-100649999I0J-249999D01*
G01*
X156400000Y-101350001D01*
G75*
G02*
X156150001Y-101600000I-249999J0D01*
G01*
X155249999Y-101600000D01*
G75*
G02*
X155000000Y-101350001I0J249999D01*
G01*
X155000000Y-100649999D01*
G75*
G02*
X155249999Y-100400000I249999J0D01*
G01*
G37*
G36*
G01*
X155249999Y-98400000D02*
X156150001Y-98400000D01*
G75*
G02*
X156400000Y-98649999I0J-249999D01*
G01*
X156400000Y-99350001D01*
G75*
G02*
X156150001Y-99600000I-249999J0D01*
G01*
X155249999Y-99600000D01*
G75*
G02*
X155000000Y-99350001I0J249999D01*
G01*
X155000000Y-98649999D01*
G75*
G02*
X155249999Y-98400000I249999J0D01*
G01*
G37*
G36*
G01*
X153249999Y-104400000D02*
X154150001Y-104400000D01*
G75*
G02*
X154400000Y-104649999I0J-249999D01*
G01*
X154400000Y-105350001D01*
G75*
G02*
X154150001Y-105600000I-249999J0D01*
G01*
X153249999Y-105600000D01*
G75*
G02*
X153000000Y-105350001I0J249999D01*
G01*
X153000000Y-104649999D01*
G75*
G02*
X153249999Y-104400000I249999J0D01*
G01*
G37*
G36*
G01*
X153249999Y-102400000D02*
X154150001Y-102400000D01*
G75*
G02*
X154400000Y-102649999I0J-249999D01*
G01*
X154400000Y-103350001D01*
G75*
G02*
X154150001Y-103600000I-249999J0D01*
G01*
X153249999Y-103600000D01*
G75*
G02*
X153000000Y-103350001I0J249999D01*
G01*
X153000000Y-102649999D01*
G75*
G02*
X153249999Y-102400000I249999J0D01*
G01*
G37*
G36*
G01*
X158150001Y-103600000D02*
X157249999Y-103600000D01*
G75*
G02*
X157000000Y-103350001I0J249999D01*
G01*
X157000000Y-102649999D01*
G75*
G02*
X157249999Y-102400000I249999J0D01*
G01*
X158150001Y-102400000D01*
G75*
G02*
X158400000Y-102649999I0J-249999D01*
G01*
X158400000Y-103350001D01*
G75*
G02*
X158150001Y-103600000I-249999J0D01*
G01*
G37*
G36*
G01*
X158150001Y-105600000D02*
X157249999Y-105600000D01*
G75*
G02*
X157000000Y-105350001I0J249999D01*
G01*
X157000000Y-104649999D01*
G75*
G02*
X157249999Y-104400000I249999J0D01*
G01*
X158150001Y-104400000D01*
G75*
G02*
X158400000Y-104649999I0J-249999D01*
G01*
X158400000Y-105350001D01*
G75*
G02*
X158150001Y-105600000I-249999J0D01*
G01*
G37*
G36*
G01*
X155249999Y-104400000D02*
X156150001Y-104400000D01*
G75*
G02*
X156400000Y-104649999I0J-249999D01*
G01*
X156400000Y-105350001D01*
G75*
G02*
X156150001Y-105600000I-249999J0D01*
G01*
X155249999Y-105600000D01*
G75*
G02*
X155000000Y-105350001I0J249999D01*
G01*
X155000000Y-104649999D01*
G75*
G02*
X155249999Y-104400000I249999J0D01*
G01*
G37*
G36*
G01*
X155249999Y-102400000D02*
X156150001Y-102400000D01*
G75*
G02*
X156400000Y-102649999I0J-249999D01*
G01*
X156400000Y-103350001D01*
G75*
G02*
X156150001Y-103600000I-249999J0D01*
G01*
X155249999Y-103600000D01*
G75*
G02*
X155000000Y-103350001I0J249999D01*
G01*
X155000000Y-102649999D01*
G75*
G02*
X155249999Y-102400000I249999J0D01*
G01*
G37*
G36*
G01*
X153249999Y-120400000D02*
X154150001Y-120400000D01*
G75*
G02*
X154400000Y-120649999I0J-249999D01*
G01*
X154400000Y-121350001D01*
G75*
G02*
X154150001Y-121600000I-249999J0D01*
G01*
X153249999Y-121600000D01*
G75*
G02*
X153000000Y-121350001I0J249999D01*
G01*
X153000000Y-120649999D01*
G75*
G02*
X153249999Y-120400000I249999J0D01*
G01*
G37*
G36*
G01*
X153249999Y-118400000D02*
X154150001Y-118400000D01*
G75*
G02*
X154400000Y-118649999I0J-249999D01*
G01*
X154400000Y-119350001D01*
G75*
G02*
X154150001Y-119600000I-249999J0D01*
G01*
X153249999Y-119600000D01*
G75*
G02*
X153000000Y-119350001I0J249999D01*
G01*
X153000000Y-118649999D01*
G75*
G02*
X153249999Y-118400000I249999J0D01*
G01*
G37*
G36*
G01*
X158150001Y-119600000D02*
X157249999Y-119600000D01*
G75*
G02*
X157000000Y-119350001I0J249999D01*
G01*
X157000000Y-118649999D01*
G75*
G02*
X157249999Y-118400000I249999J0D01*
G01*
X158150001Y-118400000D01*
G75*
G02*
X158400000Y-118649999I0J-249999D01*
G01*
X158400000Y-119350001D01*
G75*
G02*
X158150001Y-119600000I-249999J0D01*
G01*
G37*
G36*
G01*
X158150001Y-121600000D02*
X157249999Y-121600000D01*
G75*
G02*
X157000000Y-121350001I0J249999D01*
G01*
X157000000Y-120649999D01*
G75*
G02*
X157249999Y-120400000I249999J0D01*
G01*
X158150001Y-120400000D01*
G75*
G02*
X158400000Y-120649999I0J-249999D01*
G01*
X158400000Y-121350001D01*
G75*
G02*
X158150001Y-121600000I-249999J0D01*
G01*
G37*
G36*
G01*
X155249999Y-120400000D02*
X156150001Y-120400000D01*
G75*
G02*
X156400000Y-120649999I0J-249999D01*
G01*
X156400000Y-121350001D01*
G75*
G02*
X156150001Y-121600000I-249999J0D01*
G01*
X155249999Y-121600000D01*
G75*
G02*
X155000000Y-121350001I0J249999D01*
G01*
X155000000Y-120649999D01*
G75*
G02*
X155249999Y-120400000I249999J0D01*
G01*
G37*
G36*
G01*
X155249999Y-118400000D02*
X156150001Y-118400000D01*
G75*
G02*
X156400000Y-118649999I0J-249999D01*
G01*
X156400000Y-119350001D01*
G75*
G02*
X156150001Y-119600000I-249999J0D01*
G01*
X155249999Y-119600000D01*
G75*
G02*
X155000000Y-119350001I0J249999D01*
G01*
X155000000Y-118649999D01*
G75*
G02*
X155249999Y-118400000I249999J0D01*
G01*
G37*
G36*
G01*
X155249999Y-128400000D02*
X156150001Y-128400000D01*
G75*
G02*
X156400000Y-128649999I0J-249999D01*
G01*
X156400000Y-129350001D01*
G75*
G02*
X156150001Y-129600000I-249999J0D01*
G01*
X155249999Y-129600000D01*
G75*
G02*
X155000000Y-129350001I0J249999D01*
G01*
X155000000Y-128649999D01*
G75*
G02*
X155249999Y-128400000I249999J0D01*
G01*
G37*
G36*
G01*
X155249999Y-126400000D02*
X156150001Y-126400000D01*
G75*
G02*
X156400000Y-126649999I0J-249999D01*
G01*
X156400000Y-127350001D01*
G75*
G02*
X156150001Y-127600000I-249999J0D01*
G01*
X155249999Y-127600000D01*
G75*
G02*
X155000000Y-127350001I0J249999D01*
G01*
X155000000Y-126649999D01*
G75*
G02*
X155249999Y-126400000I249999J0D01*
G01*
G37*
G36*
G01*
X157249999Y-128400000D02*
X158150001Y-128400000D01*
G75*
G02*
X158400000Y-128649999I0J-249999D01*
G01*
X158400000Y-129350001D01*
G75*
G02*
X158150001Y-129600000I-249999J0D01*
G01*
X157249999Y-129600000D01*
G75*
G02*
X157000000Y-129350001I0J249999D01*
G01*
X157000000Y-128649999D01*
G75*
G02*
X157249999Y-128400000I249999J0D01*
G01*
G37*
G36*
G01*
X157249999Y-126400000D02*
X158150001Y-126400000D01*
G75*
G02*
X158400000Y-126649999I0J-249999D01*
G01*
X158400000Y-127350001D01*
G75*
G02*
X158150001Y-127600000I-249999J0D01*
G01*
X157249999Y-127600000D01*
G75*
G02*
X157000000Y-127350001I0J249999D01*
G01*
X157000000Y-126649999D01*
G75*
G02*
X157249999Y-126400000I249999J0D01*
G01*
G37*
G36*
G01*
X151900000Y-89350001D02*
X151900000Y-88449999D01*
G75*
G02*
X152149999Y-88200000I249999J0D01*
G01*
X152850001Y-88200000D01*
G75*
G02*
X153100000Y-88449999I0J-249999D01*
G01*
X153100000Y-89350001D01*
G75*
G02*
X152850001Y-89600000I-249999J0D01*
G01*
X152149999Y-89600000D01*
G75*
G02*
X151900000Y-89350001I0J249999D01*
G01*
G37*
G36*
G01*
X149900000Y-89350001D02*
X149900000Y-88449999D01*
G75*
G02*
X150149999Y-88200000I249999J0D01*
G01*
X150850001Y-88200000D01*
G75*
G02*
X151100000Y-88449999I0J-249999D01*
G01*
X151100000Y-89350001D01*
G75*
G02*
X150850001Y-89600000I-249999J0D01*
G01*
X150149999Y-89600000D01*
G75*
G02*
X149900000Y-89350001I0J249999D01*
G01*
G37*
G36*
G01*
X139300000Y-116250001D02*
X139300000Y-115349999D01*
G75*
G02*
X139549999Y-115100000I249999J0D01*
G01*
X140250001Y-115100000D01*
G75*
G02*
X140500000Y-115349999I0J-249999D01*
G01*
X140500000Y-116250001D01*
G75*
G02*
X140250001Y-116500000I-249999J0D01*
G01*
X139549999Y-116500000D01*
G75*
G02*
X139300000Y-116250001I0J249999D01*
G01*
G37*
G36*
G01*
X137300000Y-116250001D02*
X137300000Y-115349999D01*
G75*
G02*
X137549999Y-115100000I249999J0D01*
G01*
X138250001Y-115100000D01*
G75*
G02*
X138500000Y-115349999I0J-249999D01*
G01*
X138500000Y-116250001D01*
G75*
G02*
X138250001Y-116500000I-249999J0D01*
G01*
X137549999Y-116500000D01*
G75*
G02*
X137300000Y-116250001I0J249999D01*
G01*
G37*
G36*
G01*
X143100000Y-116250001D02*
X143100000Y-115349999D01*
G75*
G02*
X143349999Y-115100000I249999J0D01*
G01*
X144050001Y-115100000D01*
G75*
G02*
X144300000Y-115349999I0J-249999D01*
G01*
X144300000Y-116250001D01*
G75*
G02*
X144050001Y-116500000I-249999J0D01*
G01*
X143349999Y-116500000D01*
G75*
G02*
X143100000Y-116250001I0J249999D01*
G01*
G37*
G36*
G01*
X141100000Y-116250001D02*
X141100000Y-115349999D01*
G75*
G02*
X141349999Y-115100000I249999J0D01*
G01*
X142050001Y-115100000D01*
G75*
G02*
X142300000Y-115349999I0J-249999D01*
G01*
X142300000Y-116250001D01*
G75*
G02*
X142050001Y-116500000I-249999J0D01*
G01*
X141349999Y-116500000D01*
G75*
G02*
X141100000Y-116250001I0J249999D01*
G01*
G37*
G36*
G01*
X146900000Y-116250001D02*
X146900000Y-115349999D01*
G75*
G02*
X147149999Y-115100000I249999J0D01*
G01*
X147850001Y-115100000D01*
G75*
G02*
X148100000Y-115349999I0J-249999D01*
G01*
X148100000Y-116250001D01*
G75*
G02*
X147850001Y-116500000I-249999J0D01*
G01*
X147149999Y-116500000D01*
G75*
G02*
X146900000Y-116250001I0J249999D01*
G01*
G37*
G36*
G01*
X144900000Y-116250001D02*
X144900000Y-115349999D01*
G75*
G02*
X145149999Y-115100000I249999J0D01*
G01*
X145850001Y-115100000D01*
G75*
G02*
X146100000Y-115349999I0J-249999D01*
G01*
X146100000Y-116250001D01*
G75*
G02*
X145850001Y-116500000I-249999J0D01*
G01*
X145149999Y-116500000D01*
G75*
G02*
X144900000Y-116250001I0J249999D01*
G01*
G37*
G36*
G01*
X129249999Y-72800000D02*
X130150001Y-72800000D01*
G75*
G02*
X130400000Y-73049999I0J-249999D01*
G01*
X130400000Y-73750001D01*
G75*
G02*
X130150001Y-74000000I-249999J0D01*
G01*
X129249999Y-74000000D01*
G75*
G02*
X129000000Y-73750001I0J249999D01*
G01*
X129000000Y-73049999D01*
G75*
G02*
X129249999Y-72800000I249999J0D01*
G01*
G37*
G36*
G01*
X129249999Y-70800000D02*
X130150001Y-70800000D01*
G75*
G02*
X130400000Y-71049999I0J-249999D01*
G01*
X130400000Y-71750001D01*
G75*
G02*
X130150001Y-72000000I-249999J0D01*
G01*
X129249999Y-72000000D01*
G75*
G02*
X129000000Y-71750001I0J249999D01*
G01*
X129000000Y-71049999D01*
G75*
G02*
X129249999Y-70800000I249999J0D01*
G01*
G37*
G36*
G01*
X121649999Y-76500000D02*
X122550001Y-76500000D01*
G75*
G02*
X122800000Y-76749999I0J-249999D01*
G01*
X122800000Y-77450001D01*
G75*
G02*
X122550001Y-77700000I-249999J0D01*
G01*
X121649999Y-77700000D01*
G75*
G02*
X121400000Y-77450001I0J249999D01*
G01*
X121400000Y-76749999D01*
G75*
G02*
X121649999Y-76500000I249999J0D01*
G01*
G37*
G36*
G01*
X121649999Y-74500000D02*
X122550001Y-74500000D01*
G75*
G02*
X122800000Y-74749999I0J-249999D01*
G01*
X122800000Y-75450001D01*
G75*
G02*
X122550001Y-75700000I-249999J0D01*
G01*
X121649999Y-75700000D01*
G75*
G02*
X121400000Y-75450001I0J249999D01*
G01*
X121400000Y-74749999D01*
G75*
G02*
X121649999Y-74500000I249999J0D01*
G01*
G37*
G36*
G01*
X129249999Y-65200000D02*
X130150001Y-65200000D01*
G75*
G02*
X130400000Y-65449999I0J-249999D01*
G01*
X130400000Y-66150001D01*
G75*
G02*
X130150001Y-66400000I-249999J0D01*
G01*
X129249999Y-66400000D01*
G75*
G02*
X129000000Y-66150001I0J249999D01*
G01*
X129000000Y-65449999D01*
G75*
G02*
X129249999Y-65200000I249999J0D01*
G01*
G37*
G36*
G01*
X129249999Y-63200000D02*
X130150001Y-63200000D01*
G75*
G02*
X130400000Y-63449999I0J-249999D01*
G01*
X130400000Y-64150001D01*
G75*
G02*
X130150001Y-64400000I-249999J0D01*
G01*
X129249999Y-64400000D01*
G75*
G02*
X129000000Y-64150001I0J249999D01*
G01*
X129000000Y-63449999D01*
G75*
G02*
X129249999Y-63200000I249999J0D01*
G01*
G37*
G36*
G01*
X130150001Y-68200000D02*
X129249999Y-68200000D01*
G75*
G02*
X129000000Y-67950001I0J249999D01*
G01*
X129000000Y-67249999D01*
G75*
G02*
X129249999Y-67000000I249999J0D01*
G01*
X130150001Y-67000000D01*
G75*
G02*
X130400000Y-67249999I0J-249999D01*
G01*
X130400000Y-67950001D01*
G75*
G02*
X130150001Y-68200000I-249999J0D01*
G01*
G37*
G36*
G01*
X130150001Y-70200000D02*
X129249999Y-70200000D01*
G75*
G02*
X129000000Y-69950001I0J249999D01*
G01*
X129000000Y-69249999D01*
G75*
G02*
X129249999Y-69000000I249999J0D01*
G01*
X130150001Y-69000000D01*
G75*
G02*
X130400000Y-69249999I0J-249999D01*
G01*
X130400000Y-69950001D01*
G75*
G02*
X130150001Y-70200000I-249999J0D01*
G01*
G37*
G36*
G01*
X118800000Y-64749999D02*
X118800000Y-65650001D01*
G75*
G02*
X118550001Y-65900000I-249999J0D01*
G01*
X117849999Y-65900000D01*
G75*
G02*
X117600000Y-65650001I0J249999D01*
G01*
X117600000Y-64749999D01*
G75*
G02*
X117849999Y-64500000I249999J0D01*
G01*
X118550001Y-64500000D01*
G75*
G02*
X118800000Y-64749999I0J-249999D01*
G01*
G37*
G36*
G01*
X120800000Y-64749999D02*
X120800000Y-65650001D01*
G75*
G02*
X120550001Y-65900000I-249999J0D01*
G01*
X119849999Y-65900000D01*
G75*
G02*
X119600000Y-65650001I0J249999D01*
G01*
X119600000Y-64749999D01*
G75*
G02*
X119849999Y-64500000I249999J0D01*
G01*
X120550001Y-64500000D01*
G75*
G02*
X120800000Y-64749999I0J-249999D01*
G01*
G37*
G36*
G01*
X132150001Y-68200000D02*
X131249999Y-68200000D01*
G75*
G02*
X131000000Y-67950001I0J249999D01*
G01*
X131000000Y-67249999D01*
G75*
G02*
X131249999Y-67000000I249999J0D01*
G01*
X132150001Y-67000000D01*
G75*
G02*
X132400000Y-67249999I0J-249999D01*
G01*
X132400000Y-67950001D01*
G75*
G02*
X132150001Y-68200000I-249999J0D01*
G01*
G37*
G36*
G01*
X132150001Y-70200000D02*
X131249999Y-70200000D01*
G75*
G02*
X131000000Y-69950001I0J249999D01*
G01*
X131000000Y-69249999D01*
G75*
G02*
X131249999Y-69000000I249999J0D01*
G01*
X132150001Y-69000000D01*
G75*
G02*
X132400000Y-69249999I0J-249999D01*
G01*
X132400000Y-69950001D01*
G75*
G02*
X132150001Y-70200000I-249999J0D01*
G01*
G37*
G36*
G01*
X118650001Y-71800000D02*
X117749999Y-71800000D01*
G75*
G02*
X117500000Y-71550001I0J249999D01*
G01*
X117500000Y-70849999D01*
G75*
G02*
X117749999Y-70600000I249999J0D01*
G01*
X118650001Y-70600000D01*
G75*
G02*
X118900000Y-70849999I0J-249999D01*
G01*
X118900000Y-71550001D01*
G75*
G02*
X118650001Y-71800000I-249999J0D01*
G01*
G37*
G36*
G01*
X118650001Y-73800000D02*
X117749999Y-73800000D01*
G75*
G02*
X117500000Y-73550001I0J249999D01*
G01*
X117500000Y-72849999D01*
G75*
G02*
X117749999Y-72600000I249999J0D01*
G01*
X118650001Y-72600000D01*
G75*
G02*
X118900000Y-72849999I0J-249999D01*
G01*
X118900000Y-73550001D01*
G75*
G02*
X118650001Y-73800000I-249999J0D01*
G01*
G37*
G36*
G01*
X119600000Y-69750001D02*
X119600000Y-68849999D01*
G75*
G02*
X119849999Y-68600000I249999J0D01*
G01*
X120550001Y-68600000D01*
G75*
G02*
X120800000Y-68849999I0J-249999D01*
G01*
X120800000Y-69750001D01*
G75*
G02*
X120550001Y-70000000I-249999J0D01*
G01*
X119849999Y-70000000D01*
G75*
G02*
X119600000Y-69750001I0J249999D01*
G01*
G37*
G36*
G01*
X117600000Y-69750001D02*
X117600000Y-68849999D01*
G75*
G02*
X117849999Y-68600000I249999J0D01*
G01*
X118550001Y-68600000D01*
G75*
G02*
X118800000Y-68849999I0J-249999D01*
G01*
X118800000Y-69750001D01*
G75*
G02*
X118550001Y-70000000I-249999J0D01*
G01*
X117849999Y-70000000D01*
G75*
G02*
X117600000Y-69750001I0J249999D01*
G01*
G37*
G36*
G01*
X119749999Y-72600000D02*
X120650001Y-72600000D01*
G75*
G02*
X120900000Y-72849999I0J-249999D01*
G01*
X120900000Y-73550001D01*
G75*
G02*
X120650001Y-73800000I-249999J0D01*
G01*
X119749999Y-73800000D01*
G75*
G02*
X119500000Y-73550001I0J249999D01*
G01*
X119500000Y-72849999D01*
G75*
G02*
X119749999Y-72600000I249999J0D01*
G01*
G37*
G36*
G01*
X119749999Y-70600000D02*
X120650001Y-70600000D01*
G75*
G02*
X120900000Y-70849999I0J-249999D01*
G01*
X120900000Y-71550001D01*
G75*
G02*
X120650001Y-71800000I-249999J0D01*
G01*
X119749999Y-71800000D01*
G75*
G02*
X119500000Y-71550001I0J249999D01*
G01*
X119500000Y-70849999D01*
G75*
G02*
X119749999Y-70600000I249999J0D01*
G01*
G37*
G36*
G01*
X134150001Y-66300000D02*
X133249999Y-66300000D01*
G75*
G02*
X133000000Y-66050001I0J249999D01*
G01*
X133000000Y-65349999D01*
G75*
G02*
X133249999Y-65100000I249999J0D01*
G01*
X134150001Y-65100000D01*
G75*
G02*
X134400000Y-65349999I0J-249999D01*
G01*
X134400000Y-66050001D01*
G75*
G02*
X134150001Y-66300000I-249999J0D01*
G01*
G37*
G36*
G01*
X134150001Y-68300000D02*
X133249999Y-68300000D01*
G75*
G02*
X133000000Y-68050001I0J249999D01*
G01*
X133000000Y-67349999D01*
G75*
G02*
X133249999Y-67100000I249999J0D01*
G01*
X134150001Y-67100000D01*
G75*
G02*
X134400000Y-67349999I0J-249999D01*
G01*
X134400000Y-68050001D01*
G75*
G02*
X134150001Y-68300000I-249999J0D01*
G01*
G37*
G36*
G01*
X136150001Y-70100000D02*
X135249999Y-70100000D01*
G75*
G02*
X135000000Y-69850001I0J249999D01*
G01*
X135000000Y-69149999D01*
G75*
G02*
X135249999Y-68900000I249999J0D01*
G01*
X136150001Y-68900000D01*
G75*
G02*
X136400000Y-69149999I0J-249999D01*
G01*
X136400000Y-69850001D01*
G75*
G02*
X136150001Y-70100000I-249999J0D01*
G01*
G37*
G36*
G01*
X136150001Y-72100000D02*
X135249999Y-72100000D01*
G75*
G02*
X135000000Y-71850001I0J249999D01*
G01*
X135000000Y-71149999D01*
G75*
G02*
X135249999Y-70900000I249999J0D01*
G01*
X136150001Y-70900000D01*
G75*
G02*
X136400000Y-71149999I0J-249999D01*
G01*
X136400000Y-71850001D01*
G75*
G02*
X136150001Y-72100000I-249999J0D01*
G01*
G37*
G36*
G01*
X134150001Y-70100000D02*
X133249999Y-70100000D01*
G75*
G02*
X133000000Y-69850001I0J249999D01*
G01*
X133000000Y-69149999D01*
G75*
G02*
X133249999Y-68900000I249999J0D01*
G01*
X134150001Y-68900000D01*
G75*
G02*
X134400000Y-69149999I0J-249999D01*
G01*
X134400000Y-69850001D01*
G75*
G02*
X134150001Y-70100000I-249999J0D01*
G01*
G37*
G36*
G01*
X134150001Y-72100000D02*
X133249999Y-72100000D01*
G75*
G02*
X133000000Y-71850001I0J249999D01*
G01*
X133000000Y-71149999D01*
G75*
G02*
X133249999Y-70900000I249999J0D01*
G01*
X134150001Y-70900000D01*
G75*
G02*
X134400000Y-71149999I0J-249999D01*
G01*
X134400000Y-71850001D01*
G75*
G02*
X134150001Y-72100000I-249999J0D01*
G01*
G37*
G36*
G01*
X133249999Y-63200000D02*
X134150001Y-63200000D01*
G75*
G02*
X134400000Y-63449999I0J-249999D01*
G01*
X134400000Y-64150001D01*
G75*
G02*
X134150001Y-64400000I-249999J0D01*
G01*
X133249999Y-64400000D01*
G75*
G02*
X133000000Y-64150001I0J249999D01*
G01*
X133000000Y-63449999D01*
G75*
G02*
X133249999Y-63200000I249999J0D01*
G01*
G37*
G36*
G01*
X133249999Y-61200000D02*
X134150001Y-61200000D01*
G75*
G02*
X134400000Y-61449999I0J-249999D01*
G01*
X134400000Y-62150001D01*
G75*
G02*
X134150001Y-62400000I-249999J0D01*
G01*
X133249999Y-62400000D01*
G75*
G02*
X133000000Y-62150001I0J249999D01*
G01*
X133000000Y-61449999D01*
G75*
G02*
X133249999Y-61200000I249999J0D01*
G01*
G37*
G36*
G01*
X126450001Y-58600000D02*
X125549999Y-58600000D01*
G75*
G02*
X125300000Y-58350001I0J249999D01*
G01*
X125300000Y-57649999D01*
G75*
G02*
X125549999Y-57400000I249999J0D01*
G01*
X126450001Y-57400000D01*
G75*
G02*
X126700000Y-57649999I0J-249999D01*
G01*
X126700000Y-58350001D01*
G75*
G02*
X126450001Y-58600000I-249999J0D01*
G01*
G37*
G36*
G01*
X126450001Y-60600000D02*
X125549999Y-60600000D01*
G75*
G02*
X125300000Y-60350001I0J249999D01*
G01*
X125300000Y-59649999D01*
G75*
G02*
X125549999Y-59400000I249999J0D01*
G01*
X126450001Y-59400000D01*
G75*
G02*
X126700000Y-59649999I0J-249999D01*
G01*
X126700000Y-60350001D01*
G75*
G02*
X126450001Y-60600000I-249999J0D01*
G01*
G37*
G36*
G01*
X127549999Y-59400000D02*
X128450001Y-59400000D01*
G75*
G02*
X128700000Y-59649999I0J-249999D01*
G01*
X128700000Y-60350001D01*
G75*
G02*
X128450001Y-60600000I-249999J0D01*
G01*
X127549999Y-60600000D01*
G75*
G02*
X127300000Y-60350001I0J249999D01*
G01*
X127300000Y-59649999D01*
G75*
G02*
X127549999Y-59400000I249999J0D01*
G01*
G37*
G36*
G01*
X127549999Y-57400000D02*
X128450001Y-57400000D01*
G75*
G02*
X128700000Y-57649999I0J-249999D01*
G01*
X128700000Y-58350001D01*
G75*
G02*
X128450001Y-58600000I-249999J0D01*
G01*
X127549999Y-58600000D01*
G75*
G02*
X127300000Y-58350001I0J249999D01*
G01*
X127300000Y-57649999D01*
G75*
G02*
X127549999Y-57400000I249999J0D01*
G01*
G37*
G36*
G01*
X131300000Y-58450001D02*
X131300000Y-57549999D01*
G75*
G02*
X131549999Y-57300000I249999J0D01*
G01*
X132250001Y-57300000D01*
G75*
G02*
X132500000Y-57549999I0J-249999D01*
G01*
X132500000Y-58450001D01*
G75*
G02*
X132250001Y-58700000I-249999J0D01*
G01*
X131549999Y-58700000D01*
G75*
G02*
X131300000Y-58450001I0J249999D01*
G01*
G37*
G36*
G01*
X129300000Y-58450001D02*
X129300000Y-57549999D01*
G75*
G02*
X129549999Y-57300000I249999J0D01*
G01*
X130250001Y-57300000D01*
G75*
G02*
X130500000Y-57549999I0J-249999D01*
G01*
X130500000Y-58450001D01*
G75*
G02*
X130250001Y-58700000I-249999J0D01*
G01*
X129549999Y-58700000D01*
G75*
G02*
X129300000Y-58450001I0J249999D01*
G01*
G37*
G36*
G01*
X135100000Y-58450001D02*
X135100000Y-57549999D01*
G75*
G02*
X135349999Y-57300000I249999J0D01*
G01*
X136050001Y-57300000D01*
G75*
G02*
X136300000Y-57549999I0J-249999D01*
G01*
X136300000Y-58450001D01*
G75*
G02*
X136050001Y-58700000I-249999J0D01*
G01*
X135349999Y-58700000D01*
G75*
G02*
X135100000Y-58450001I0J249999D01*
G01*
G37*
G36*
G01*
X133100000Y-58450001D02*
X133100000Y-57549999D01*
G75*
G02*
X133349999Y-57300000I249999J0D01*
G01*
X134050001Y-57300000D01*
G75*
G02*
X134300000Y-57549999I0J-249999D01*
G01*
X134300000Y-58450001D01*
G75*
G02*
X134050001Y-58700000I-249999J0D01*
G01*
X133349999Y-58700000D01*
G75*
G02*
X133100000Y-58450001I0J249999D01*
G01*
G37*
G36*
G01*
X131249999Y-65200000D02*
X132150001Y-65200000D01*
G75*
G02*
X132400000Y-65449999I0J-249999D01*
G01*
X132400000Y-66150001D01*
G75*
G02*
X132150001Y-66400000I-249999J0D01*
G01*
X131249999Y-66400000D01*
G75*
G02*
X131000000Y-66150001I0J249999D01*
G01*
X131000000Y-65449999D01*
G75*
G02*
X131249999Y-65200000I249999J0D01*
G01*
G37*
G36*
G01*
X131249999Y-63200000D02*
X132150001Y-63200000D01*
G75*
G02*
X132400000Y-63449999I0J-249999D01*
G01*
X132400000Y-64150001D01*
G75*
G02*
X132150001Y-64400000I-249999J0D01*
G01*
X131249999Y-64400000D01*
G75*
G02*
X131000000Y-64150001I0J249999D01*
G01*
X131000000Y-63449999D01*
G75*
G02*
X131249999Y-63200000I249999J0D01*
G01*
G37*
G36*
G01*
X122700000Y-59549999D02*
X122700000Y-60450001D01*
G75*
G02*
X122450001Y-60700000I-249999J0D01*
G01*
X121749999Y-60700000D01*
G75*
G02*
X121500000Y-60450001I0J249999D01*
G01*
X121500000Y-59549999D01*
G75*
G02*
X121749999Y-59300000I249999J0D01*
G01*
X122450001Y-59300000D01*
G75*
G02*
X122700000Y-59549999I0J-249999D01*
G01*
G37*
G36*
G01*
X124700000Y-59549999D02*
X124700000Y-60450001D01*
G75*
G02*
X124450001Y-60700000I-249999J0D01*
G01*
X123749999Y-60700000D01*
G75*
G02*
X123500000Y-60450001I0J249999D01*
G01*
X123500000Y-59549999D01*
G75*
G02*
X123749999Y-59300000I249999J0D01*
G01*
X124450001Y-59300000D01*
G75*
G02*
X124700000Y-59549999I0J-249999D01*
G01*
G37*
G36*
G01*
X135249999Y-67100000D02*
X136150001Y-67100000D01*
G75*
G02*
X136400000Y-67349999I0J-249999D01*
G01*
X136400000Y-68050001D01*
G75*
G02*
X136150001Y-68300000I-249999J0D01*
G01*
X135249999Y-68300000D01*
G75*
G02*
X135000000Y-68050001I0J249999D01*
G01*
X135000000Y-67349999D01*
G75*
G02*
X135249999Y-67100000I249999J0D01*
G01*
G37*
G36*
G01*
X135249999Y-65100000D02*
X136150001Y-65100000D01*
G75*
G02*
X136400000Y-65349999I0J-249999D01*
G01*
X136400000Y-66050001D01*
G75*
G02*
X136150001Y-66300000I-249999J0D01*
G01*
X135249999Y-66300000D01*
G75*
G02*
X135000000Y-66050001I0J249999D01*
G01*
X135000000Y-65349999D01*
G75*
G02*
X135249999Y-65100000I249999J0D01*
G01*
G37*
G36*
G01*
X123500000Y-62450001D02*
X123500000Y-61549999D01*
G75*
G02*
X123749999Y-61300000I249999J0D01*
G01*
X124450001Y-61300000D01*
G75*
G02*
X124700000Y-61549999I0J-249999D01*
G01*
X124700000Y-62450001D01*
G75*
G02*
X124450001Y-62700000I-249999J0D01*
G01*
X123749999Y-62700000D01*
G75*
G02*
X123500000Y-62450001I0J249999D01*
G01*
G37*
G36*
G01*
X121500000Y-62450001D02*
X121500000Y-61549999D01*
G75*
G02*
X121749999Y-61300000I249999J0D01*
G01*
X122450001Y-61300000D01*
G75*
G02*
X122700000Y-61549999I0J-249999D01*
G01*
X122700000Y-62450001D01*
G75*
G02*
X122450001Y-62700000I-249999J0D01*
G01*
X121749999Y-62700000D01*
G75*
G02*
X121500000Y-62450001I0J249999D01*
G01*
G37*
G36*
G01*
X127300000Y-62450001D02*
X127300000Y-61549999D01*
G75*
G02*
X127549999Y-61300000I249999J0D01*
G01*
X128250001Y-61300000D01*
G75*
G02*
X128500000Y-61549999I0J-249999D01*
G01*
X128500000Y-62450001D01*
G75*
G02*
X128250001Y-62700000I-249999J0D01*
G01*
X127549999Y-62700000D01*
G75*
G02*
X127300000Y-62450001I0J249999D01*
G01*
G37*
G36*
G01*
X125300000Y-62450001D02*
X125300000Y-61549999D01*
G75*
G02*
X125549999Y-61300000I249999J0D01*
G01*
X126250001Y-61300000D01*
G75*
G02*
X126500000Y-61549999I0J-249999D01*
G01*
X126500000Y-62450001D01*
G75*
G02*
X126250001Y-62700000I-249999J0D01*
G01*
X125549999Y-62700000D01*
G75*
G02*
X125300000Y-62450001I0J249999D01*
G01*
G37*
G36*
G01*
X131350001Y-60600000D02*
X130449999Y-60600000D01*
G75*
G02*
X130200000Y-60350001I0J249999D01*
G01*
X130200000Y-59649999D01*
G75*
G02*
X130449999Y-59400000I249999J0D01*
G01*
X131350001Y-59400000D01*
G75*
G02*
X131600000Y-59649999I0J-249999D01*
G01*
X131600000Y-60350001D01*
G75*
G02*
X131350001Y-60600000I-249999J0D01*
G01*
G37*
G36*
G01*
X131350001Y-62600000D02*
X130449999Y-62600000D01*
G75*
G02*
X130200000Y-62350001I0J249999D01*
G01*
X130200000Y-61649999D01*
G75*
G02*
X130449999Y-61400000I249999J0D01*
G01*
X131350001Y-61400000D01*
G75*
G02*
X131600000Y-61649999I0J-249999D01*
G01*
X131600000Y-62350001D01*
G75*
G02*
X131350001Y-62600000I-249999J0D01*
G01*
G37*
G36*
G01*
X145750001Y-65800000D02*
X144849999Y-65800000D01*
G75*
G02*
X144600000Y-65550001I0J249999D01*
G01*
X144600000Y-64849999D01*
G75*
G02*
X144849999Y-64600000I249999J0D01*
G01*
X145750001Y-64600000D01*
G75*
G02*
X146000000Y-64849999I0J-249999D01*
G01*
X146000000Y-65550001D01*
G75*
G02*
X145750001Y-65800000I-249999J0D01*
G01*
G37*
G36*
G01*
X145750001Y-67800000D02*
X144849999Y-67800000D01*
G75*
G02*
X144600000Y-67550001I0J249999D01*
G01*
X144600000Y-66849999D01*
G75*
G02*
X144849999Y-66600000I249999J0D01*
G01*
X145750001Y-66600000D01*
G75*
G02*
X146000000Y-66849999I0J-249999D01*
G01*
X146000000Y-67550001D01*
G75*
G02*
X145750001Y-67800000I-249999J0D01*
G01*
G37*
G36*
G01*
X145900000Y-62749999D02*
X145900000Y-63650001D01*
G75*
G02*
X145650001Y-63900000I-249999J0D01*
G01*
X144949999Y-63900000D01*
G75*
G02*
X144700000Y-63650001I0J249999D01*
G01*
X144700000Y-62749999D01*
G75*
G02*
X144949999Y-62500000I249999J0D01*
G01*
X145650001Y-62500000D01*
G75*
G02*
X145900000Y-62749999I0J-249999D01*
G01*
G37*
G36*
G01*
X147900000Y-62749999D02*
X147900000Y-63650001D01*
G75*
G02*
X147650001Y-63900000I-249999J0D01*
G01*
X146949999Y-63900000D01*
G75*
G02*
X146700000Y-63650001I0J249999D01*
G01*
X146700000Y-62749999D01*
G75*
G02*
X146949999Y-62500000I249999J0D01*
G01*
X147650001Y-62500000D01*
G75*
G02*
X147900000Y-62749999I0J-249999D01*
G01*
G37*
D29*
X124500000Y-137100000D03*
X126500000Y-138050000D03*
X126500000Y-136150000D03*
D12*
X103000000Y-134300000D03*
D11*
X105540000Y-134300000D03*
X146000000Y-144460000D03*
D12*
X146000000Y-147000000D03*
D11*
X127840000Y-147000000D03*
X130380000Y-147000000D03*
X132920000Y-147000000D03*
X135460000Y-147000000D03*
D12*
X138000000Y-147000000D03*
D11*
X133160000Y-55000000D03*
X130620000Y-55000000D03*
X128080000Y-55000000D03*
X125540000Y-55000000D03*
D12*
X123000000Y-55000000D03*
D11*
X104260000Y-60300000D03*
D12*
X106800000Y-60300000D03*
D16*
X150500000Y-86840000D03*
D17*
X150500000Y-84300000D03*
D30*
X124150000Y-64000000D03*
X122050000Y-64000000D03*
X127950000Y-64000000D03*
X125850000Y-64000000D03*
G36*
G01*
X120250000Y-134575000D02*
X120250000Y-133625000D01*
G75*
G02*
X120500000Y-133375000I250000J0D01*
G01*
X121175000Y-133375000D01*
G75*
G02*
X121425000Y-133625000I0J-250000D01*
G01*
X121425000Y-134575000D01*
G75*
G02*
X121175000Y-134825000I-250000J0D01*
G01*
X120500000Y-134825000D01*
G75*
G02*
X120250000Y-134575000I0J250000D01*
G01*
G37*
G36*
G01*
X118175000Y-134575000D02*
X118175000Y-133625000D01*
G75*
G02*
X118425000Y-133375000I250000J0D01*
G01*
X119100000Y-133375000D01*
G75*
G02*
X119350000Y-133625000I0J-250000D01*
G01*
X119350000Y-134575000D01*
G75*
G02*
X119100000Y-134825000I-250000J0D01*
G01*
X118425000Y-134825000D01*
G75*
G02*
X118175000Y-134575000I0J250000D01*
G01*
G37*
G36*
G01*
X124950000Y-139425000D02*
X124950000Y-140375000D01*
G75*
G02*
X124700000Y-140625000I-250000J0D01*
G01*
X124025000Y-140625000D01*
G75*
G02*
X123775000Y-140375000I0J250000D01*
G01*
X123775000Y-139425000D01*
G75*
G02*
X124025000Y-139175000I250000J0D01*
G01*
X124700000Y-139175000D01*
G75*
G02*
X124950000Y-139425000I0J-250000D01*
G01*
G37*
G36*
G01*
X127025000Y-139425000D02*
X127025000Y-140375000D01*
G75*
G02*
X126775000Y-140625000I-250000J0D01*
G01*
X126100000Y-140625000D01*
G75*
G02*
X125850000Y-140375000I0J250000D01*
G01*
X125850000Y-139425000D01*
G75*
G02*
X126100000Y-139175000I250000J0D01*
G01*
X126775000Y-139175000D01*
G75*
G02*
X127025000Y-139425000I0J-250000D01*
G01*
G37*
G36*
G01*
X120525000Y-139550000D02*
X121475000Y-139550000D01*
G75*
G02*
X121725000Y-139800000I0J-250000D01*
G01*
X121725000Y-140475000D01*
G75*
G02*
X121475000Y-140725000I-250000J0D01*
G01*
X120525000Y-140725000D01*
G75*
G02*
X120275000Y-140475000I0J250000D01*
G01*
X120275000Y-139800000D01*
G75*
G02*
X120525000Y-139550000I250000J0D01*
G01*
G37*
G36*
G01*
X120525000Y-137475000D02*
X121475000Y-137475000D01*
G75*
G02*
X121725000Y-137725000I0J-250000D01*
G01*
X121725000Y-138400000D01*
G75*
G02*
X121475000Y-138650000I-250000J0D01*
G01*
X120525000Y-138650000D01*
G75*
G02*
X120275000Y-138400000I0J250000D01*
G01*
X120275000Y-137725000D01*
G75*
G02*
X120525000Y-137475000I250000J0D01*
G01*
G37*
G36*
G01*
X151175000Y-136850000D02*
X150225000Y-136850000D01*
G75*
G02*
X149975000Y-136600000I0J250000D01*
G01*
X149975000Y-135925000D01*
G75*
G02*
X150225000Y-135675000I250000J0D01*
G01*
X151175000Y-135675000D01*
G75*
G02*
X151425000Y-135925000I0J-250000D01*
G01*
X151425000Y-136600000D01*
G75*
G02*
X151175000Y-136850000I-250000J0D01*
G01*
G37*
G36*
G01*
X151175000Y-138925000D02*
X150225000Y-138925000D01*
G75*
G02*
X149975000Y-138675000I0J250000D01*
G01*
X149975000Y-138000000D01*
G75*
G02*
X150225000Y-137750000I250000J0D01*
G01*
X151175000Y-137750000D01*
G75*
G02*
X151425000Y-138000000I0J-250000D01*
G01*
X151425000Y-138675000D01*
G75*
G02*
X151175000Y-138925000I-250000J0D01*
G01*
G37*
G36*
G01*
X152175000Y-115550000D02*
X151225000Y-115550000D01*
G75*
G02*
X150975000Y-115300000I0J250000D01*
G01*
X150975000Y-114625000D01*
G75*
G02*
X151225000Y-114375000I250000J0D01*
G01*
X152175000Y-114375000D01*
G75*
G02*
X152425000Y-114625000I0J-250000D01*
G01*
X152425000Y-115300000D01*
G75*
G02*
X152175000Y-115550000I-250000J0D01*
G01*
G37*
G36*
G01*
X152175000Y-117625000D02*
X151225000Y-117625000D01*
G75*
G02*
X150975000Y-117375000I0J250000D01*
G01*
X150975000Y-116700000D01*
G75*
G02*
X151225000Y-116450000I250000J0D01*
G01*
X152175000Y-116450000D01*
G75*
G02*
X152425000Y-116700000I0J-250000D01*
G01*
X152425000Y-117375000D01*
G75*
G02*
X152175000Y-117625000I-250000J0D01*
G01*
G37*
G36*
G01*
X152175000Y-111550000D02*
X151225000Y-111550000D01*
G75*
G02*
X150975000Y-111300000I0J250000D01*
G01*
X150975000Y-110625000D01*
G75*
G02*
X151225000Y-110375000I250000J0D01*
G01*
X152175000Y-110375000D01*
G75*
G02*
X152425000Y-110625000I0J-250000D01*
G01*
X152425000Y-111300000D01*
G75*
G02*
X152175000Y-111550000I-250000J0D01*
G01*
G37*
G36*
G01*
X152175000Y-113625000D02*
X151225000Y-113625000D01*
G75*
G02*
X150975000Y-113375000I0J250000D01*
G01*
X150975000Y-112700000D01*
G75*
G02*
X151225000Y-112450000I250000J0D01*
G01*
X152175000Y-112450000D01*
G75*
G02*
X152425000Y-112700000I0J-250000D01*
G01*
X152425000Y-113375000D01*
G75*
G02*
X152175000Y-113625000I-250000J0D01*
G01*
G37*
G36*
G01*
X152175000Y-107550000D02*
X151225000Y-107550000D01*
G75*
G02*
X150975000Y-107300000I0J250000D01*
G01*
X150975000Y-106625000D01*
G75*
G02*
X151225000Y-106375000I250000J0D01*
G01*
X152175000Y-106375000D01*
G75*
G02*
X152425000Y-106625000I0J-250000D01*
G01*
X152425000Y-107300000D01*
G75*
G02*
X152175000Y-107550000I-250000J0D01*
G01*
G37*
G36*
G01*
X152175000Y-109625000D02*
X151225000Y-109625000D01*
G75*
G02*
X150975000Y-109375000I0J250000D01*
G01*
X150975000Y-108700000D01*
G75*
G02*
X151225000Y-108450000I250000J0D01*
G01*
X152175000Y-108450000D01*
G75*
G02*
X152425000Y-108700000I0J-250000D01*
G01*
X152425000Y-109375000D01*
G75*
G02*
X152175000Y-109625000I-250000J0D01*
G01*
G37*
G36*
G01*
X152175000Y-99550000D02*
X151225000Y-99550000D01*
G75*
G02*
X150975000Y-99300000I0J250000D01*
G01*
X150975000Y-98625000D01*
G75*
G02*
X151225000Y-98375000I250000J0D01*
G01*
X152175000Y-98375000D01*
G75*
G02*
X152425000Y-98625000I0J-250000D01*
G01*
X152425000Y-99300000D01*
G75*
G02*
X152175000Y-99550000I-250000J0D01*
G01*
G37*
G36*
G01*
X152175000Y-101625000D02*
X151225000Y-101625000D01*
G75*
G02*
X150975000Y-101375000I0J250000D01*
G01*
X150975000Y-100700000D01*
G75*
G02*
X151225000Y-100450000I250000J0D01*
G01*
X152175000Y-100450000D01*
G75*
G02*
X152425000Y-100700000I0J-250000D01*
G01*
X152425000Y-101375000D01*
G75*
G02*
X152175000Y-101625000I-250000J0D01*
G01*
G37*
G36*
G01*
X152175000Y-103550000D02*
X151225000Y-103550000D01*
G75*
G02*
X150975000Y-103300000I0J250000D01*
G01*
X150975000Y-102625000D01*
G75*
G02*
X151225000Y-102375000I250000J0D01*
G01*
X152175000Y-102375000D01*
G75*
G02*
X152425000Y-102625000I0J-250000D01*
G01*
X152425000Y-103300000D01*
G75*
G02*
X152175000Y-103550000I-250000J0D01*
G01*
G37*
G36*
G01*
X152175000Y-105625000D02*
X151225000Y-105625000D01*
G75*
G02*
X150975000Y-105375000I0J250000D01*
G01*
X150975000Y-104700000D01*
G75*
G02*
X151225000Y-104450000I250000J0D01*
G01*
X152175000Y-104450000D01*
G75*
G02*
X152425000Y-104700000I0J-250000D01*
G01*
X152425000Y-105375000D01*
G75*
G02*
X152175000Y-105625000I-250000J0D01*
G01*
G37*
G36*
G01*
X152175000Y-119550000D02*
X151225000Y-119550000D01*
G75*
G02*
X150975000Y-119300000I0J250000D01*
G01*
X150975000Y-118625000D01*
G75*
G02*
X151225000Y-118375000I250000J0D01*
G01*
X152175000Y-118375000D01*
G75*
G02*
X152425000Y-118625000I0J-250000D01*
G01*
X152425000Y-119300000D01*
G75*
G02*
X152175000Y-119550000I-250000J0D01*
G01*
G37*
G36*
G01*
X152175000Y-121625000D02*
X151225000Y-121625000D01*
G75*
G02*
X150975000Y-121375000I0J250000D01*
G01*
X150975000Y-120700000D01*
G75*
G02*
X151225000Y-120450000I250000J0D01*
G01*
X152175000Y-120450000D01*
G75*
G02*
X152425000Y-120700000I0J-250000D01*
G01*
X152425000Y-121375000D01*
G75*
G02*
X152175000Y-121625000I-250000J0D01*
G01*
G37*
G36*
G01*
X139350000Y-118275000D02*
X139350000Y-117325000D01*
G75*
G02*
X139600000Y-117075000I250000J0D01*
G01*
X140275000Y-117075000D01*
G75*
G02*
X140525000Y-117325000I0J-250000D01*
G01*
X140525000Y-118275000D01*
G75*
G02*
X140275000Y-118525000I-250000J0D01*
G01*
X139600000Y-118525000D01*
G75*
G02*
X139350000Y-118275000I0J250000D01*
G01*
G37*
G36*
G01*
X137275000Y-118275000D02*
X137275000Y-117325000D01*
G75*
G02*
X137525000Y-117075000I250000J0D01*
G01*
X138200000Y-117075000D01*
G75*
G02*
X138450000Y-117325000I0J-250000D01*
G01*
X138450000Y-118275000D01*
G75*
G02*
X138200000Y-118525000I-250000J0D01*
G01*
X137525000Y-118525000D01*
G75*
G02*
X137275000Y-118275000I0J250000D01*
G01*
G37*
G36*
G01*
X143150000Y-118275000D02*
X143150000Y-117325000D01*
G75*
G02*
X143400000Y-117075000I250000J0D01*
G01*
X144075000Y-117075000D01*
G75*
G02*
X144325000Y-117325000I0J-250000D01*
G01*
X144325000Y-118275000D01*
G75*
G02*
X144075000Y-118525000I-250000J0D01*
G01*
X143400000Y-118525000D01*
G75*
G02*
X143150000Y-118275000I0J250000D01*
G01*
G37*
G36*
G01*
X141075000Y-118275000D02*
X141075000Y-117325000D01*
G75*
G02*
X141325000Y-117075000I250000J0D01*
G01*
X142000000Y-117075000D01*
G75*
G02*
X142250000Y-117325000I0J-250000D01*
G01*
X142250000Y-118275000D01*
G75*
G02*
X142000000Y-118525000I-250000J0D01*
G01*
X141325000Y-118525000D01*
G75*
G02*
X141075000Y-118275000I0J250000D01*
G01*
G37*
G36*
G01*
X146950000Y-118275000D02*
X146950000Y-117325000D01*
G75*
G02*
X147200000Y-117075000I250000J0D01*
G01*
X147875000Y-117075000D01*
G75*
G02*
X148125000Y-117325000I0J-250000D01*
G01*
X148125000Y-118275000D01*
G75*
G02*
X147875000Y-118525000I-250000J0D01*
G01*
X147200000Y-118525000D01*
G75*
G02*
X146950000Y-118275000I0J250000D01*
G01*
G37*
G36*
G01*
X144875000Y-118275000D02*
X144875000Y-117325000D01*
G75*
G02*
X145125000Y-117075000I250000J0D01*
G01*
X145800000Y-117075000D01*
G75*
G02*
X146050000Y-117325000I0J-250000D01*
G01*
X146050000Y-118275000D01*
G75*
G02*
X145800000Y-118525000I-250000J0D01*
G01*
X145125000Y-118525000D01*
G75*
G02*
X144875000Y-118275000I0J250000D01*
G01*
G37*
G36*
G01*
X131525000Y-117212500D02*
X132475000Y-117212500D01*
G75*
G02*
X132725000Y-117462500I0J-250000D01*
G01*
X132725000Y-118137500D01*
G75*
G02*
X132475000Y-118387500I-250000J0D01*
G01*
X131525000Y-118387500D01*
G75*
G02*
X131275000Y-118137500I0J250000D01*
G01*
X131275000Y-117462500D01*
G75*
G02*
X131525000Y-117212500I250000J0D01*
G01*
G37*
G36*
G01*
X131525000Y-115137500D02*
X132475000Y-115137500D01*
G75*
G02*
X132725000Y-115387500I0J-250000D01*
G01*
X132725000Y-116062500D01*
G75*
G02*
X132475000Y-116312500I-250000J0D01*
G01*
X131525000Y-116312500D01*
G75*
G02*
X131275000Y-116062500I0J250000D01*
G01*
X131275000Y-115387500D01*
G75*
G02*
X131525000Y-115137500I250000J0D01*
G01*
G37*
G36*
G01*
X118750000Y-66825000D02*
X118750000Y-67775000D01*
G75*
G02*
X118500000Y-68025000I-250000J0D01*
G01*
X117825000Y-68025000D01*
G75*
G02*
X117575000Y-67775000I0J250000D01*
G01*
X117575000Y-66825000D01*
G75*
G02*
X117825000Y-66575000I250000J0D01*
G01*
X118500000Y-66575000D01*
G75*
G02*
X118750000Y-66825000I0J-250000D01*
G01*
G37*
G36*
G01*
X120825000Y-66825000D02*
X120825000Y-67775000D01*
G75*
G02*
X120575000Y-68025000I-250000J0D01*
G01*
X119900000Y-68025000D01*
G75*
G02*
X119650000Y-67775000I0J250000D01*
G01*
X119650000Y-66825000D01*
G75*
G02*
X119900000Y-66575000I250000J0D01*
G01*
X120575000Y-66575000D01*
G75*
G02*
X120825000Y-66825000I0J-250000D01*
G01*
G37*
G36*
G01*
X136175000Y-62350000D02*
X135225000Y-62350000D01*
G75*
G02*
X134975000Y-62100000I0J250000D01*
G01*
X134975000Y-61425000D01*
G75*
G02*
X135225000Y-61175000I250000J0D01*
G01*
X136175000Y-61175000D01*
G75*
G02*
X136425000Y-61425000I0J-250000D01*
G01*
X136425000Y-62100000D01*
G75*
G02*
X136175000Y-62350000I-250000J0D01*
G01*
G37*
G36*
G01*
X136175000Y-64425000D02*
X135225000Y-64425000D01*
G75*
G02*
X134975000Y-64175000I0J250000D01*
G01*
X134975000Y-63500000D01*
G75*
G02*
X135225000Y-63250000I250000J0D01*
G01*
X136175000Y-63250000D01*
G75*
G02*
X136425000Y-63500000I0J-250000D01*
G01*
X136425000Y-64175000D01*
G75*
G02*
X136175000Y-64425000I-250000J0D01*
G01*
G37*
G36*
G01*
X138950000Y-58475000D02*
X138950000Y-57525000D01*
G75*
G02*
X139200000Y-57275000I250000J0D01*
G01*
X139875000Y-57275000D01*
G75*
G02*
X140125000Y-57525000I0J-250000D01*
G01*
X140125000Y-58475000D01*
G75*
G02*
X139875000Y-58725000I-250000J0D01*
G01*
X139200000Y-58725000D01*
G75*
G02*
X138950000Y-58475000I0J250000D01*
G01*
G37*
G36*
G01*
X136875000Y-58475000D02*
X136875000Y-57525000D01*
G75*
G02*
X137125000Y-57275000I250000J0D01*
G01*
X137800000Y-57275000D01*
G75*
G02*
X138050000Y-57525000I0J-250000D01*
G01*
X138050000Y-58475000D01*
G75*
G02*
X137800000Y-58725000I-250000J0D01*
G01*
X137125000Y-58725000D01*
G75*
G02*
X136875000Y-58475000I0J250000D01*
G01*
G37*
G36*
G01*
X122650000Y-57525000D02*
X122650000Y-58475000D01*
G75*
G02*
X122400000Y-58725000I-250000J0D01*
G01*
X121725000Y-58725000D01*
G75*
G02*
X121475000Y-58475000I0J250000D01*
G01*
X121475000Y-57525000D01*
G75*
G02*
X121725000Y-57275000I250000J0D01*
G01*
X122400000Y-57275000D01*
G75*
G02*
X122650000Y-57525000I0J-250000D01*
G01*
G37*
G36*
G01*
X124725000Y-57525000D02*
X124725000Y-58475000D01*
G75*
G02*
X124475000Y-58725000I-250000J0D01*
G01*
X123800000Y-58725000D01*
G75*
G02*
X123550000Y-58475000I0J250000D01*
G01*
X123550000Y-57525000D01*
G75*
G02*
X123800000Y-57275000I250000J0D01*
G01*
X124475000Y-57275000D01*
G75*
G02*
X124725000Y-57525000I0J-250000D01*
G01*
G37*
G36*
G01*
X144875000Y-73475000D02*
X146125000Y-73475000D01*
G75*
G02*
X146375000Y-73725000I0J-250000D01*
G01*
X146375000Y-74650000D01*
G75*
G02*
X146125000Y-74900000I-250000J0D01*
G01*
X144875000Y-74900000D01*
G75*
G02*
X144625000Y-74650000I0J250000D01*
G01*
X144625000Y-73725000D01*
G75*
G02*
X144875000Y-73475000I250000J0D01*
G01*
G37*
G36*
G01*
X144875000Y-70500000D02*
X146125000Y-70500000D01*
G75*
G02*
X146375000Y-70750000I0J-250000D01*
G01*
X146375000Y-71675000D01*
G75*
G02*
X146125000Y-71925000I-250000J0D01*
G01*
X144875000Y-71925000D01*
G75*
G02*
X144625000Y-71675000I0J250000D01*
G01*
X144625000Y-70750000D01*
G75*
G02*
X144875000Y-70500000I250000J0D01*
G01*
G37*
G36*
G01*
X145850000Y-68625000D02*
X145850000Y-69575000D01*
G75*
G02*
X145600000Y-69825000I-250000J0D01*
G01*
X144925000Y-69825000D01*
G75*
G02*
X144675000Y-69575000I0J250000D01*
G01*
X144675000Y-68625000D01*
G75*
G02*
X144925000Y-68375000I250000J0D01*
G01*
X145600000Y-68375000D01*
G75*
G02*
X145850000Y-68625000I0J-250000D01*
G01*
G37*
G36*
G01*
X147925000Y-68625000D02*
X147925000Y-69575000D01*
G75*
G02*
X147675000Y-69825000I-250000J0D01*
G01*
X147000000Y-69825000D01*
G75*
G02*
X146750000Y-69575000I0J250000D01*
G01*
X146750000Y-68625000D01*
G75*
G02*
X147000000Y-68375000I250000J0D01*
G01*
X147675000Y-68375000D01*
G75*
G02*
X147925000Y-68625000I0J-250000D01*
G01*
G37*
G36*
G01*
X147875000Y-65750000D02*
X146925000Y-65750000D01*
G75*
G02*
X146675000Y-65500000I0J250000D01*
G01*
X146675000Y-64825000D01*
G75*
G02*
X146925000Y-64575000I250000J0D01*
G01*
X147875000Y-64575000D01*
G75*
G02*
X148125000Y-64825000I0J-250000D01*
G01*
X148125000Y-65500000D01*
G75*
G02*
X147875000Y-65750000I-250000J0D01*
G01*
G37*
G36*
G01*
X147875000Y-67825000D02*
X146925000Y-67825000D01*
G75*
G02*
X146675000Y-67575000I0J250000D01*
G01*
X146675000Y-66900000D01*
G75*
G02*
X146925000Y-66650000I250000J0D01*
G01*
X147875000Y-66650000D01*
G75*
G02*
X148125000Y-66900000I0J-250000D01*
G01*
X148125000Y-67575000D01*
G75*
G02*
X147875000Y-67825000I-250000J0D01*
G01*
G37*
G36*
G01*
X114375000Y-120550000D02*
X113425000Y-120550000D01*
G75*
G02*
X113175000Y-120300000I0J250000D01*
G01*
X113175000Y-119625000D01*
G75*
G02*
X113425000Y-119375000I250000J0D01*
G01*
X114375000Y-119375000D01*
G75*
G02*
X114625000Y-119625000I0J-250000D01*
G01*
X114625000Y-120300000D01*
G75*
G02*
X114375000Y-120550000I-250000J0D01*
G01*
G37*
G36*
G01*
X114375000Y-122625000D02*
X113425000Y-122625000D01*
G75*
G02*
X113175000Y-122375000I0J250000D01*
G01*
X113175000Y-121700000D01*
G75*
G02*
X113425000Y-121450000I250000J0D01*
G01*
X114375000Y-121450000D01*
G75*
G02*
X114625000Y-121700000I0J-250000D01*
G01*
X114625000Y-122375000D01*
G75*
G02*
X114375000Y-122625000I-250000J0D01*
G01*
G37*
G36*
G01*
X110450000Y-118375000D02*
X110450000Y-117425000D01*
G75*
G02*
X110700000Y-117175000I250000J0D01*
G01*
X111375000Y-117175000D01*
G75*
G02*
X111625000Y-117425000I0J-250000D01*
G01*
X111625000Y-118375000D01*
G75*
G02*
X111375000Y-118625000I-250000J0D01*
G01*
X110700000Y-118625000D01*
G75*
G02*
X110450000Y-118375000I0J250000D01*
G01*
G37*
G36*
G01*
X108375000Y-118375000D02*
X108375000Y-117425000D01*
G75*
G02*
X108625000Y-117175000I250000J0D01*
G01*
X109300000Y-117175000D01*
G75*
G02*
X109550000Y-117425000I0J-250000D01*
G01*
X109550000Y-118375000D01*
G75*
G02*
X109300000Y-118625000I-250000J0D01*
G01*
X108625000Y-118625000D01*
G75*
G02*
X108375000Y-118375000I0J250000D01*
G01*
G37*
G36*
G01*
X105625000Y-121450000D02*
X106575000Y-121450000D01*
G75*
G02*
X106825000Y-121700000I0J-250000D01*
G01*
X106825000Y-122375000D01*
G75*
G02*
X106575000Y-122625000I-250000J0D01*
G01*
X105625000Y-122625000D01*
G75*
G02*
X105375000Y-122375000I0J250000D01*
G01*
X105375000Y-121700000D01*
G75*
G02*
X105625000Y-121450000I250000J0D01*
G01*
G37*
G36*
G01*
X105625000Y-119375000D02*
X106575000Y-119375000D01*
G75*
G02*
X106825000Y-119625000I0J-250000D01*
G01*
X106825000Y-120300000D01*
G75*
G02*
X106575000Y-120550000I-250000J0D01*
G01*
X105625000Y-120550000D01*
G75*
G02*
X105375000Y-120300000I0J250000D01*
G01*
X105375000Y-119625000D01*
G75*
G02*
X105625000Y-119375000I250000J0D01*
G01*
G37*
G36*
G01*
X103750000Y-67075000D02*
X103750000Y-66125000D01*
G75*
G02*
X104000000Y-65875000I250000J0D01*
G01*
X104675000Y-65875000D01*
G75*
G02*
X104925000Y-66125000I0J-250000D01*
G01*
X104925000Y-67075000D01*
G75*
G02*
X104675000Y-67325000I-250000J0D01*
G01*
X104000000Y-67325000D01*
G75*
G02*
X103750000Y-67075000I0J250000D01*
G01*
G37*
G36*
G01*
X101675000Y-67075000D02*
X101675000Y-66125000D01*
G75*
G02*
X101925000Y-65875000I250000J0D01*
G01*
X102600000Y-65875000D01*
G75*
G02*
X102850000Y-66125000I0J-250000D01*
G01*
X102850000Y-67075000D01*
G75*
G02*
X102600000Y-67325000I-250000J0D01*
G01*
X101925000Y-67325000D01*
G75*
G02*
X101675000Y-67075000I0J250000D01*
G01*
G37*
M02*
