%FSLAX45Y45*%
G04 Gerber Fmt 4.5, Leading zero omitted, Abs format (unit mm)*
G04 Created by KiCad (PCBNEW (5.1.9)-1) date 2021-08-29 17:24:41*
%MOMM*%
%LPD*%
G01*
G04 APERTURE LIST*
%TA.AperFunction,Profile*%
%ADD10C,0.050000*%
%TD*%
%ADD11C,0.200000*%
%ADD12C,0.300000*%
G04 APERTURE END LIST*
D10*
X16500000Y-5000000D02*
G75*
G02*
X17000000Y-5500000I0J-500000D01*
G01*
X17000000Y-14500000D02*
G75*
G02*
X16500000Y-15000000I-500000J0D01*
G01*
X10500000Y-15000000D02*
G75*
G02*
X10000000Y-14500000I0J500000D01*
G01*
X10000000Y-5500000D02*
G75*
G02*
X10500000Y-5000000I500000J0D01*
G01*
X10000000Y-5500000D02*
X10000000Y-14500000D01*
X16500000Y-5000000D02*
X10500000Y-5000000D01*
X17000000Y-14500000D02*
X17000000Y-5500000D01*
X10500000Y-15000000D02*
X16500000Y-15000000D01*
D11*
X10780000Y-13310000D02*
X10800000Y-13330000D01*
X10800000Y-13310000D02*
X10780000Y-13330000D01*
X10870000Y-12200000D02*
X10890000Y-12220000D01*
X10890000Y-12200000D02*
X10870000Y-12220000D01*
X10870000Y-12340000D02*
X10890000Y-12360000D01*
X10890000Y-12340000D02*
X10870000Y-12360000D01*
X10890000Y-13200000D02*
X10910000Y-13220000D01*
X10910000Y-13200000D02*
X10890000Y-13220000D01*
X10990000Y-12200000D02*
X11010000Y-12220000D01*
X11010000Y-12200000D02*
X10990000Y-12220000D01*
X10990000Y-12340000D02*
X11010000Y-12360000D01*
X11010000Y-12340000D02*
X10990000Y-12360000D01*
X11110000Y-12200000D02*
X11130000Y-12220000D01*
X11130000Y-12200000D02*
X11110000Y-12220000D01*
X11110000Y-12340000D02*
X11130000Y-12360000D01*
X11130000Y-12340000D02*
X11110000Y-12360000D01*
X11160000Y-6030000D02*
X11180000Y-6050000D01*
X11180000Y-6030000D02*
X11160000Y-6050000D01*
X11160000Y-8480000D02*
X11180000Y-8500000D01*
X11180000Y-8480000D02*
X11160000Y-8500000D01*
X11190000Y-10180000D02*
X11210000Y-10200000D01*
X11210000Y-10180000D02*
X11190000Y-10200000D01*
X11190000Y-10490000D02*
X11210000Y-10510000D01*
X11210000Y-10490000D02*
X11190000Y-10510000D01*
X11190000Y-10840000D02*
X11210000Y-10860000D01*
X11210000Y-10840000D02*
X11190000Y-10860000D01*
X11270000Y-6130000D02*
X11290000Y-6150000D01*
X11290000Y-6130000D02*
X11270000Y-6150000D01*
X11350000Y-14330000D02*
X11370000Y-14350000D01*
X11370000Y-14330000D02*
X11350000Y-14350000D01*
X11380000Y-6080000D02*
X11400000Y-6100000D01*
X11400000Y-6080000D02*
X11380000Y-6100000D01*
X11430000Y-13120000D02*
X11450000Y-13140000D01*
X11450000Y-13120000D02*
X11430000Y-13140000D01*
X11500000Y-13120000D02*
X11520000Y-13140000D01*
X11520000Y-13120000D02*
X11500000Y-13140000D01*
X11570000Y-6270000D02*
X11590000Y-6290000D01*
X11590000Y-6270000D02*
X11570000Y-6290000D01*
X11620000Y-8040000D02*
X11640000Y-8060000D01*
X11640000Y-8040000D02*
X11620000Y-8060000D01*
X11740000Y-14310000D02*
X11760000Y-14330000D01*
X11760000Y-14310000D02*
X11740000Y-14330000D01*
X11830000Y-14220000D02*
X11850000Y-14240000D01*
X11850000Y-14220000D02*
X11830000Y-14240000D01*
X11940000Y-8090000D02*
X11960000Y-8110000D01*
X11960000Y-8090000D02*
X11940000Y-8110000D01*
X12130000Y-7080000D02*
X12150000Y-7100000D01*
X12150000Y-7080000D02*
X12130000Y-7100000D01*
X12340000Y-5910000D02*
X12360000Y-5930000D01*
X12360000Y-5910000D02*
X12340000Y-5930000D01*
X12620000Y-7330000D02*
X12640000Y-7350000D01*
X12640000Y-7330000D02*
X12620000Y-7350000D01*
X13445000Y-11555000D02*
X13465000Y-11575000D01*
X13465000Y-11555000D02*
X13445000Y-11575000D01*
X13690000Y-10930000D02*
X13710000Y-10950000D01*
X13710000Y-10930000D02*
X13690000Y-10950000D01*
X13740000Y-6790000D02*
X13760000Y-6810000D01*
X13760000Y-6790000D02*
X13740000Y-6810000D01*
X13760000Y-13380000D02*
X13780000Y-13400000D01*
X13780000Y-13380000D02*
X13760000Y-13400000D01*
X14080000Y-12610000D02*
X14100000Y-12630000D01*
X14100000Y-12610000D02*
X14080000Y-12630000D01*
X14300000Y-7350000D02*
X14320000Y-7370000D01*
X14320000Y-7350000D02*
X14300000Y-7370000D01*
X14480000Y-9990000D02*
X14500000Y-10010000D01*
X14500000Y-9990000D02*
X14480000Y-10010000D01*
X14670000Y-12610000D02*
X14690000Y-12630000D01*
X14690000Y-12610000D02*
X14670000Y-12630000D01*
X14700000Y-13200000D02*
X14720000Y-13220000D01*
X14720000Y-13200000D02*
X14700000Y-13220000D01*
X14820000Y-10720000D02*
X14840000Y-10740000D01*
X14840000Y-10720000D02*
X14820000Y-10740000D01*
X14820000Y-10790000D02*
X14840000Y-10810000D01*
X14840000Y-10790000D02*
X14820000Y-10810000D01*
X14820000Y-11570000D02*
X14840000Y-11590000D01*
X14840000Y-11570000D02*
X14820000Y-11590000D01*
X14820000Y-11770000D02*
X14840000Y-11790000D01*
X14840000Y-11770000D02*
X14820000Y-11790000D01*
X14820000Y-12480000D02*
X14840000Y-12500000D01*
X14840000Y-12480000D02*
X14820000Y-12500000D01*
X14900000Y-8090000D02*
X14920000Y-8110000D01*
X14920000Y-8090000D02*
X14900000Y-8110000D01*
X15040000Y-9850000D02*
X15060000Y-9870000D01*
X15060000Y-9850000D02*
X15040000Y-9870000D01*
X15060000Y-13040000D02*
X15080000Y-13060000D01*
X15080000Y-13040000D02*
X15060000Y-13060000D01*
X15140000Y-13760000D02*
X15160000Y-13780000D01*
X15160000Y-13760000D02*
X15140000Y-13780000D01*
X15160000Y-9460000D02*
X15180000Y-9480000D01*
X15180000Y-9460000D02*
X15160000Y-9480000D01*
X15210000Y-7780000D02*
X15230000Y-7800000D01*
X15230000Y-7780000D02*
X15210000Y-7800000D01*
X15260000Y-7320000D02*
X15280000Y-7340000D01*
X15280000Y-7320000D02*
X15260000Y-7340000D01*
X15260000Y-10090000D02*
X15280000Y-10110000D01*
X15280000Y-10090000D02*
X15260000Y-10110000D01*
X15260000Y-10490000D02*
X15280000Y-10510000D01*
X15280000Y-10490000D02*
X15260000Y-10510000D01*
X15260000Y-10890000D02*
X15280000Y-10910000D01*
X15280000Y-10890000D02*
X15260000Y-10910000D01*
X15260000Y-11290000D02*
X15280000Y-11310000D01*
X15280000Y-11290000D02*
X15260000Y-11310000D01*
X15260000Y-11690000D02*
X15280000Y-11710000D01*
X15280000Y-11690000D02*
X15260000Y-11710000D01*
X15260000Y-12090000D02*
X15280000Y-12110000D01*
X15280000Y-12090000D02*
X15260000Y-12110000D01*
X15510000Y-12790000D02*
X15530000Y-12810000D01*
X15530000Y-12790000D02*
X15510000Y-12810000D01*
X15590000Y-7800000D02*
X15610000Y-7820000D01*
X15610000Y-7800000D02*
X15590000Y-7820000D01*
X15620000Y-13960000D02*
X15640000Y-13980000D01*
X15640000Y-13960000D02*
X15620000Y-13980000D01*
X15640000Y-6610000D02*
X15660000Y-6630000D01*
X15660000Y-6610000D02*
X15640000Y-6630000D01*
X15960000Y-7800000D02*
X15980000Y-7820000D01*
X15980000Y-7800000D02*
X15960000Y-7820000D01*
X15980000Y-6480000D02*
X16000000Y-6500000D01*
X16000000Y-6480000D02*
X15980000Y-6500000D01*
X10260000Y-6550000D02*
G75*
G03*
X10260000Y-6550000I-20000J0D01*
G01*
X10550000Y-12120000D02*
G75*
G03*
X10550000Y-12120000I-20000J0D01*
G01*
X10690000Y-11910000D02*
G75*
G03*
X10690000Y-11910000I-20000J0D01*
G01*
X10770000Y-6660000D02*
G75*
G03*
X10770000Y-6660000I-20000J0D01*
G01*
X11020000Y-11890000D02*
G75*
G03*
X11020000Y-11890000I-20000J0D01*
G01*
X11250000Y-12220000D02*
G75*
G03*
X11250000Y-12220000I-20000J0D01*
G01*
X11350000Y-11910000D02*
G75*
G03*
X11350000Y-11910000I-20000J0D01*
G01*
X11730000Y-12590000D02*
G75*
G03*
X11730000Y-12590000I-20000J0D01*
G01*
X11730000Y-12960000D02*
G75*
G03*
X11730000Y-12960000I-20000J0D01*
G01*
X11920000Y-6240000D02*
G75*
G03*
X11920000Y-6240000I-20000J0D01*
G01*
X11970000Y-6390000D02*
G75*
G03*
X11970000Y-6390000I-20000J0D01*
G01*
X12410000Y-6910000D02*
G75*
G03*
X12410000Y-6910000I-20000J0D01*
G01*
X12470000Y-12750000D02*
G75*
G03*
X12470000Y-12750000I-20000J0D01*
G01*
X12640000Y-6910000D02*
G75*
G03*
X12640000Y-6910000I-20000J0D01*
G01*
X13110000Y-11590000D02*
G75*
G03*
X13110000Y-11590000I-20000J0D01*
G01*
X13260000Y-6560000D02*
G75*
G03*
X13260000Y-6560000I-20000J0D01*
G01*
X13270000Y-13730000D02*
G75*
G03*
X13270000Y-13730000I-20000J0D01*
G01*
X13500000Y-11690000D02*
G75*
G03*
X13500000Y-11690000I-20000J0D01*
G01*
X13750000Y-13970000D02*
G75*
G03*
X13750000Y-13970000I-20000J0D01*
G01*
X13770000Y-6510000D02*
G75*
G03*
X13770000Y-6510000I-20000J0D01*
G01*
X13830000Y-7970000D02*
G75*
G03*
X13830000Y-7970000I-20000J0D01*
G01*
X14310000Y-7460000D02*
G75*
G03*
X14310000Y-7460000I-20000J0D01*
G01*
X14520000Y-13910000D02*
G75*
G03*
X14520000Y-13910000I-20000J0D01*
G01*
X14680000Y-5950000D02*
G75*
G03*
X14680000Y-5950000I-20000J0D01*
G01*
X14910000Y-13420000D02*
G75*
G03*
X14910000Y-13420000I-20000J0D01*
G01*
X15400000Y-8030000D02*
G75*
G03*
X15400000Y-8030000I-20000J0D01*
G01*
X15450000Y-6740000D02*
G75*
G03*
X15450000Y-6740000I-20000J0D01*
G01*
X15550000Y-6640000D02*
G75*
G03*
X15550000Y-6640000I-20000J0D01*
G01*
X15560000Y-8190000D02*
G75*
G03*
X15560000Y-8190000I-20000J0D01*
G01*
X15570000Y-6870000D02*
G75*
G03*
X15570000Y-6870000I-20000J0D01*
G01*
X15820000Y-8050000D02*
G75*
G03*
X15820000Y-8050000I-20000J0D01*
G01*
X10260000Y-5475000D02*
X10260000Y-5525000D01*
X10235000Y-5500000D02*
X10285000Y-5500000D01*
X10260000Y-14475000D02*
X10260000Y-14525000D01*
X10235000Y-14500000D02*
X10285000Y-14500000D01*
X10330294Y-5305294D02*
X10330294Y-5355294D01*
X10305294Y-5330294D02*
X10355294Y-5330294D01*
X10330294Y-5644706D02*
X10330294Y-5694706D01*
X10305294Y-5669706D02*
X10355294Y-5669706D01*
X10330294Y-14305294D02*
X10330294Y-14355294D01*
X10305294Y-14330294D02*
X10355294Y-14330294D01*
X10330294Y-14644706D02*
X10330294Y-14694706D01*
X10305294Y-14669706D02*
X10355294Y-14669706D01*
X10500000Y-5235000D02*
X10500000Y-5285000D01*
X10475000Y-5260000D02*
X10525000Y-5260000D01*
X10500000Y-5715000D02*
X10500000Y-5765000D01*
X10475000Y-5740000D02*
X10525000Y-5740000D01*
X10500000Y-14235000D02*
X10500000Y-14285000D01*
X10475000Y-14260000D02*
X10525000Y-14260000D01*
X10500000Y-14715000D02*
X10500000Y-14765000D01*
X10475000Y-14740000D02*
X10525000Y-14740000D01*
X10669706Y-5305294D02*
X10669706Y-5355294D01*
X10644706Y-5330294D02*
X10694706Y-5330294D01*
X10669706Y-5644706D02*
X10669706Y-5694706D01*
X10644706Y-5669706D02*
X10694706Y-5669706D01*
X10669706Y-14305294D02*
X10669706Y-14355294D01*
X10644706Y-14330294D02*
X10694706Y-14330294D01*
X10669706Y-14644706D02*
X10669706Y-14694706D01*
X10644706Y-14669706D02*
X10694706Y-14669706D01*
X10740000Y-5475000D02*
X10740000Y-5525000D01*
X10715000Y-5500000D02*
X10765000Y-5500000D01*
X10740000Y-14475000D02*
X10740000Y-14525000D01*
X10715000Y-14500000D02*
X10765000Y-14500000D01*
X16260000Y-5475000D02*
X16260000Y-5525000D01*
X16235000Y-5500000D02*
X16285000Y-5500000D01*
X16260000Y-14475000D02*
X16260000Y-14525000D01*
X16235000Y-14500000D02*
X16285000Y-14500000D01*
X16330294Y-5305294D02*
X16330294Y-5355294D01*
X16305294Y-5330294D02*
X16355294Y-5330294D01*
X16330294Y-5644706D02*
X16330294Y-5694706D01*
X16305294Y-5669706D02*
X16355294Y-5669706D01*
X16330294Y-14305294D02*
X16330294Y-14355294D01*
X16305294Y-14330294D02*
X16355294Y-14330294D01*
X16330294Y-14644706D02*
X16330294Y-14694706D01*
X16305294Y-14669706D02*
X16355294Y-14669706D01*
X16500000Y-5235000D02*
X16500000Y-5285000D01*
X16475000Y-5260000D02*
X16525000Y-5260000D01*
X16500000Y-5715000D02*
X16500000Y-5765000D01*
X16475000Y-5740000D02*
X16525000Y-5740000D01*
X16500000Y-14235000D02*
X16500000Y-14285000D01*
X16475000Y-14260000D02*
X16525000Y-14260000D01*
X16500000Y-14715000D02*
X16500000Y-14765000D01*
X16475000Y-14740000D02*
X16525000Y-14740000D01*
X16669706Y-5305294D02*
X16669706Y-5355294D01*
X16644706Y-5330294D02*
X16694706Y-5330294D01*
X16669706Y-5644706D02*
X16669706Y-5694706D01*
X16644706Y-5669706D02*
X16694706Y-5669706D01*
X16669706Y-14305294D02*
X16669706Y-14355294D01*
X16644706Y-14330294D02*
X16694706Y-14330294D01*
X16669706Y-14644706D02*
X16669706Y-14694706D01*
X16644706Y-14669706D02*
X16694706Y-14669706D01*
X16740000Y-5475000D02*
X16740000Y-5525000D01*
X16715000Y-5500000D02*
X16765000Y-5500000D01*
X16740000Y-14475000D02*
X16740000Y-14525000D01*
X16715000Y-14500000D02*
X16765000Y-14500000D01*
X12748284Y-7598284D02*
X12748284Y-7541715D01*
X12691715Y-7541715D01*
X12691715Y-7598284D01*
X12748284Y-7598284D01*
X12858284Y-12918284D02*
X12858284Y-12861715D01*
X12801715Y-12861715D01*
X12801715Y-12918284D01*
X12858284Y-12918284D01*
X12858284Y-13518284D02*
X12858284Y-13461715D01*
X12801715Y-13461715D01*
X12801715Y-13518284D01*
X12858284Y-13518284D01*
X13002284Y-7598284D02*
X13002284Y-7541715D01*
X12945715Y-7541715D01*
X12945715Y-7598284D01*
X13002284Y-7598284D01*
X13112284Y-12918284D02*
X13112284Y-12861715D01*
X13055715Y-12861715D01*
X13055715Y-12918284D01*
X13112284Y-12918284D01*
X13112284Y-13518284D02*
X13112284Y-13461715D01*
X13055715Y-13461715D01*
X13055715Y-13518284D01*
X13112284Y-13518284D01*
X13208284Y-11356284D02*
X13208284Y-11299715D01*
X13151715Y-11299715D01*
X13151715Y-11356284D01*
X13208284Y-11356284D01*
X13208284Y-12118284D02*
X13208284Y-12061715D01*
X13151715Y-12061715D01*
X13151715Y-12118284D01*
X13208284Y-12118284D01*
X13256284Y-7598284D02*
X13256284Y-7541715D01*
X13199715Y-7541715D01*
X13199715Y-7598284D01*
X13256284Y-7598284D01*
X13366284Y-12918284D02*
X13366284Y-12861715D01*
X13309715Y-12861715D01*
X13309715Y-12918284D01*
X13366284Y-12918284D01*
X13366284Y-13518284D02*
X13366284Y-13461715D01*
X13309715Y-13461715D01*
X13309715Y-13518284D01*
X13366284Y-13518284D01*
X13462284Y-11356284D02*
X13462284Y-11299715D01*
X13405715Y-11299715D01*
X13405715Y-11356284D01*
X13462284Y-11356284D01*
X13462284Y-12118284D02*
X13462284Y-12061715D01*
X13405715Y-12061715D01*
X13405715Y-12118284D01*
X13462284Y-12118284D01*
X13716284Y-11356284D02*
X13716284Y-11299715D01*
X13659715Y-11299715D01*
X13659715Y-11356284D01*
X13716284Y-11356284D01*
X13716284Y-12118284D02*
X13716284Y-12061715D01*
X13659715Y-12061715D01*
X13659715Y-12118284D01*
X13716284Y-12118284D01*
X13970284Y-11356284D02*
X13970284Y-11299715D01*
X13913715Y-11299715D01*
X13913715Y-11356284D01*
X13970284Y-11356284D01*
X13970284Y-12118284D02*
X13970284Y-12061715D01*
X13913715Y-12061715D01*
X13913715Y-12118284D01*
X13970284Y-12118284D01*
X14148284Y-12968284D02*
X14148284Y-12911715D01*
X14091715Y-12911715D01*
X14091715Y-12968284D01*
X14148284Y-12968284D01*
X14148284Y-13222284D02*
X14148284Y-13165715D01*
X14091715Y-13165715D01*
X14091715Y-13222284D01*
X14148284Y-13222284D01*
X14148284Y-13476284D02*
X14148284Y-13419715D01*
X14091715Y-13419715D01*
X14091715Y-13476284D01*
X14148284Y-13476284D01*
X14198284Y-10248285D02*
X14198284Y-10191716D01*
X14141715Y-10191716D01*
X14141715Y-10248285D01*
X14198284Y-10248285D01*
X14198284Y-10848285D02*
X14198284Y-10791716D01*
X14141715Y-10791716D01*
X14141715Y-10848285D01*
X14198284Y-10848285D01*
X14224284Y-11356284D02*
X14224284Y-11299715D01*
X14167715Y-11299715D01*
X14167715Y-11356284D01*
X14224284Y-11356284D01*
X14224284Y-12118284D02*
X14224284Y-12061715D01*
X14167715Y-12061715D01*
X14167715Y-12118284D01*
X14224284Y-12118284D01*
X14452284Y-10248285D02*
X14452284Y-10191716D01*
X14395715Y-10191716D01*
X14395715Y-10248285D01*
X14452284Y-10248285D01*
X14452284Y-10848285D02*
X14452284Y-10791716D01*
X14395715Y-10791716D01*
X14395715Y-10848285D01*
X14452284Y-10848285D01*
X14478284Y-11356284D02*
X14478284Y-11299715D01*
X14421715Y-11299715D01*
X14421715Y-11356284D01*
X14478284Y-11356284D01*
X14478284Y-12118284D02*
X14478284Y-12061715D01*
X14421715Y-12061715D01*
X14421715Y-12118284D01*
X14478284Y-12118284D01*
X14706284Y-10248285D02*
X14706284Y-10191716D01*
X14649715Y-10191716D01*
X14649715Y-10248285D01*
X14706284Y-10248285D01*
X14706284Y-10848285D02*
X14706284Y-10791716D01*
X14649715Y-10791716D01*
X14649715Y-10848285D01*
X14706284Y-10848285D01*
X14732284Y-11356284D02*
X14732284Y-11299715D01*
X14675715Y-11299715D01*
X14675715Y-11356284D01*
X14732284Y-11356284D01*
X14732284Y-12118284D02*
X14732284Y-12061715D01*
X14675715Y-12061715D01*
X14675715Y-12118284D01*
X14732284Y-12118284D01*
X14828284Y-7130284D02*
X14828284Y-7073715D01*
X14771715Y-7073715D01*
X14771715Y-7130284D01*
X14828284Y-7130284D01*
X14828284Y-7384284D02*
X14828284Y-7327715D01*
X14771715Y-7327715D01*
X14771715Y-7384284D01*
X14828284Y-7384284D01*
X14828284Y-7638284D02*
X14828284Y-7581715D01*
X14771715Y-7581715D01*
X14771715Y-7638284D01*
X14828284Y-7638284D01*
X15308284Y-12968284D02*
X15308284Y-12911715D01*
X15251715Y-12911715D01*
X15251715Y-12968284D01*
X15308284Y-12968284D01*
X15308284Y-13222284D02*
X15308284Y-13165715D01*
X15251715Y-13165715D01*
X15251715Y-13222284D01*
X15308284Y-13222284D01*
X15308284Y-13476284D02*
X15308284Y-13419715D01*
X15251715Y-13419715D01*
X15251715Y-13476284D01*
X15308284Y-13476284D01*
X15050000Y-8475000D02*
X15095000Y-8430000D01*
X15050000Y-8385000D01*
X15005000Y-8430000D01*
X15050000Y-8475000D01*
X15050000Y-8729000D02*
X15095000Y-8684000D01*
X15050000Y-8639000D01*
X15005000Y-8684000D01*
X15050000Y-8729000D01*
X16500000Y-7245000D02*
X16545000Y-7200000D01*
X16500000Y-7155000D01*
X16455000Y-7200000D01*
X16500000Y-7245000D01*
X16500000Y-7499000D02*
X16545000Y-7454000D01*
X16500000Y-7409000D01*
X16455000Y-7454000D01*
X16500000Y-7499000D01*
X10250000Y-13380000D02*
X10350000Y-13480000D01*
X10350000Y-13380000D02*
X10250000Y-13480000D01*
X10350000Y-13430000D02*
G75*
G03*
X10350000Y-13430000I-50000J0D01*
G01*
X10250000Y-13780000D02*
X10350000Y-13880000D01*
X10350000Y-13780000D02*
X10250000Y-13880000D01*
X10350000Y-13830000D02*
G75*
G03*
X10350000Y-13830000I-50000J0D01*
G01*
X10376000Y-5980000D02*
X10476000Y-6080000D01*
X10476000Y-5980000D02*
X10376000Y-6080000D01*
X10476000Y-6030000D02*
G75*
G03*
X10476000Y-6030000I-50000J0D01*
G01*
X10450000Y-8550000D02*
X10550000Y-8650000D01*
X10550000Y-8550000D02*
X10450000Y-8650000D01*
X10550000Y-8600000D02*
G75*
G03*
X10550000Y-8600000I-50000J0D01*
G01*
X10450000Y-8804000D02*
X10550000Y-8904000D01*
X10550000Y-8804000D02*
X10450000Y-8904000D01*
X10550000Y-8854000D02*
G75*
G03*
X10550000Y-8854000I-50000J0D01*
G01*
X10450000Y-9058000D02*
X10550000Y-9158000D01*
X10550000Y-9058000D02*
X10450000Y-9158000D01*
X10550000Y-9108000D02*
G75*
G03*
X10550000Y-9108000I-50000J0D01*
G01*
X10450000Y-9312000D02*
X10550000Y-9412000D01*
X10550000Y-9312000D02*
X10450000Y-9412000D01*
X10550000Y-9362000D02*
G75*
G03*
X10550000Y-9362000I-50000J0D01*
G01*
X10450000Y-9566000D02*
X10550000Y-9666000D01*
X10550000Y-9566000D02*
X10450000Y-9666000D01*
X10550000Y-9616000D02*
G75*
G03*
X10550000Y-9616000I-50000J0D01*
G01*
X10450000Y-9820000D02*
X10550000Y-9920000D01*
X10550000Y-9820000D02*
X10450000Y-9920000D01*
X10550000Y-9870000D02*
G75*
G03*
X10550000Y-9870000I-50000J0D01*
G01*
X10450000Y-10074000D02*
X10550000Y-10174000D01*
X10550000Y-10074000D02*
X10450000Y-10174000D01*
X10550000Y-10124000D02*
G75*
G03*
X10550000Y-10124000I-50000J0D01*
G01*
X10450000Y-10328000D02*
X10550000Y-10428000D01*
X10550000Y-10328000D02*
X10450000Y-10428000D01*
X10550000Y-10378000D02*
G75*
G03*
X10550000Y-10378000I-50000J0D01*
G01*
X10450000Y-10582000D02*
X10550000Y-10682000D01*
X10550000Y-10582000D02*
X10450000Y-10682000D01*
X10550000Y-10632000D02*
G75*
G03*
X10550000Y-10632000I-50000J0D01*
G01*
X10450000Y-10836000D02*
X10550000Y-10936000D01*
X10550000Y-10836000D02*
X10450000Y-10936000D01*
X10550000Y-10886000D02*
G75*
G03*
X10550000Y-10886000I-50000J0D01*
G01*
X10450000Y-11090000D02*
X10550000Y-11190000D01*
X10550000Y-11090000D02*
X10450000Y-11190000D01*
X10550000Y-11140000D02*
G75*
G03*
X10550000Y-11140000I-50000J0D01*
G01*
X10450000Y-11344000D02*
X10550000Y-11444000D01*
X10550000Y-11344000D02*
X10450000Y-11444000D01*
X10550000Y-11394000D02*
G75*
G03*
X10550000Y-11394000I-50000J0D01*
G01*
X10504000Y-13380000D02*
X10604000Y-13480000D01*
X10604000Y-13380000D02*
X10504000Y-13480000D01*
X10604000Y-13430000D02*
G75*
G03*
X10604000Y-13430000I-50000J0D01*
G01*
X10504000Y-13780000D02*
X10604000Y-13880000D01*
X10604000Y-13780000D02*
X10504000Y-13880000D01*
X10604000Y-13830000D02*
G75*
G03*
X10604000Y-13830000I-50000J0D01*
G01*
X10630000Y-5980000D02*
X10730000Y-6080000D01*
X10730000Y-5980000D02*
X10630000Y-6080000D01*
X10730000Y-6030000D02*
G75*
G03*
X10730000Y-6030000I-50000J0D01*
G01*
X11020000Y-13600000D02*
X11120000Y-13700000D01*
X11120000Y-13600000D02*
X11020000Y-13700000D01*
X11120000Y-13650000D02*
G75*
G03*
X11120000Y-13650000I-50000J0D01*
G01*
X11020000Y-14000000D02*
X11120000Y-14100000D01*
X11120000Y-14000000D02*
X11020000Y-14100000D01*
X11120000Y-14050000D02*
G75*
G03*
X11120000Y-14050000I-50000J0D01*
G01*
X11120000Y-14396000D02*
X11220000Y-14496000D01*
X11220000Y-14396000D02*
X11120000Y-14496000D01*
X11220000Y-14446000D02*
G75*
G03*
X11220000Y-14446000I-50000J0D01*
G01*
X11120000Y-14650000D02*
X11220000Y-14750000D01*
X11220000Y-14650000D02*
X11120000Y-14750000D01*
X11220000Y-14700000D02*
G75*
G03*
X11220000Y-14700000I-50000J0D01*
G01*
X11274000Y-13600000D02*
X11374000Y-13700000D01*
X11374000Y-13600000D02*
X11274000Y-13700000D01*
X11374000Y-13650000D02*
G75*
G03*
X11374000Y-13650000I-50000J0D01*
G01*
X11274000Y-14000000D02*
X11374000Y-14100000D01*
X11374000Y-14000000D02*
X11274000Y-14100000D01*
X11374000Y-14050000D02*
G75*
G03*
X11374000Y-14050000I-50000J0D01*
G01*
X11340000Y-5450000D02*
X11440000Y-5550000D01*
X11440000Y-5450000D02*
X11340000Y-5550000D01*
X11440000Y-5500000D02*
G75*
G03*
X11440000Y-5500000I-50000J0D01*
G01*
X11520000Y-14400000D02*
X11620000Y-14500000D01*
X11620000Y-14400000D02*
X11520000Y-14500000D01*
X11620000Y-14450000D02*
G75*
G03*
X11620000Y-14450000I-50000J0D01*
G01*
X11520000Y-14654000D02*
X11620000Y-14754000D01*
X11620000Y-14654000D02*
X11520000Y-14754000D01*
X11620000Y-14704000D02*
G75*
G03*
X11620000Y-14704000I-50000J0D01*
G01*
X11528000Y-13600000D02*
X11628000Y-13700000D01*
X11628000Y-13600000D02*
X11528000Y-13700000D01*
X11628000Y-13650000D02*
G75*
G03*
X11628000Y-13650000I-50000J0D01*
G01*
X11528000Y-14000000D02*
X11628000Y-14100000D01*
X11628000Y-14000000D02*
X11528000Y-14100000D01*
X11628000Y-14050000D02*
G75*
G03*
X11628000Y-14050000I-50000J0D01*
G01*
X11594000Y-5450000D02*
X11694000Y-5550000D01*
X11694000Y-5450000D02*
X11594000Y-5550000D01*
X11694000Y-5500000D02*
G75*
G03*
X11694000Y-5500000I-50000J0D01*
G01*
X11848000Y-5450000D02*
X11948000Y-5550000D01*
X11948000Y-5450000D02*
X11848000Y-5550000D01*
X11948000Y-5500000D02*
G75*
G03*
X11948000Y-5500000I-50000J0D01*
G01*
X11920000Y-14150000D02*
X12020000Y-14250000D01*
X12020000Y-14150000D02*
X11920000Y-14250000D01*
X12020000Y-14200000D02*
G75*
G03*
X12020000Y-14200000I-50000J0D01*
G01*
X11920000Y-14404000D02*
X12020000Y-14504000D01*
X12020000Y-14404000D02*
X11920000Y-14504000D01*
X12020000Y-14454000D02*
G75*
G03*
X12020000Y-14454000I-50000J0D01*
G01*
X11920000Y-14658000D02*
X12020000Y-14758000D01*
X12020000Y-14658000D02*
X11920000Y-14758000D01*
X12020000Y-14708000D02*
G75*
G03*
X12020000Y-14708000I-50000J0D01*
G01*
X12250000Y-5450000D02*
X12350000Y-5550000D01*
X12350000Y-5450000D02*
X12250000Y-5550000D01*
X12350000Y-5500000D02*
G75*
G03*
X12350000Y-5500000I-50000J0D01*
G01*
X12320000Y-14150000D02*
X12420000Y-14250000D01*
X12420000Y-14150000D02*
X12320000Y-14250000D01*
X12420000Y-14200000D02*
G75*
G03*
X12420000Y-14200000I-50000J0D01*
G01*
X12320000Y-14404000D02*
X12420000Y-14504000D01*
X12420000Y-14404000D02*
X12320000Y-14504000D01*
X12420000Y-14454000D02*
G75*
G03*
X12420000Y-14454000I-50000J0D01*
G01*
X12320000Y-14658000D02*
X12420000Y-14758000D01*
X12420000Y-14658000D02*
X12320000Y-14758000D01*
X12420000Y-14708000D02*
G75*
G03*
X12420000Y-14708000I-50000J0D01*
G01*
X12504000Y-5450000D02*
X12604000Y-5550000D01*
X12604000Y-5450000D02*
X12504000Y-5550000D01*
X12604000Y-5500000D02*
G75*
G03*
X12604000Y-5500000I-50000J0D01*
G01*
X12734000Y-14650000D02*
X12834000Y-14750000D01*
X12834000Y-14650000D02*
X12734000Y-14750000D01*
X12834000Y-14700000D02*
G75*
G03*
X12834000Y-14700000I-50000J0D01*
G01*
X12758000Y-5450000D02*
X12858000Y-5550000D01*
X12858000Y-5450000D02*
X12758000Y-5550000D01*
X12858000Y-5500000D02*
G75*
G03*
X12858000Y-5500000I-50000J0D01*
G01*
X12988000Y-14650000D02*
X13088000Y-14750000D01*
X13088000Y-14650000D02*
X12988000Y-14750000D01*
X13088000Y-14700000D02*
G75*
G03*
X13088000Y-14700000I-50000J0D01*
G01*
X13012000Y-5450000D02*
X13112000Y-5550000D01*
X13112000Y-5450000D02*
X13012000Y-5550000D01*
X13112000Y-5500000D02*
G75*
G03*
X13112000Y-5500000I-50000J0D01*
G01*
X13242000Y-14650000D02*
X13342000Y-14750000D01*
X13342000Y-14650000D02*
X13242000Y-14750000D01*
X13342000Y-14700000D02*
G75*
G03*
X13342000Y-14700000I-50000J0D01*
G01*
X13266000Y-5450000D02*
X13366000Y-5550000D01*
X13366000Y-5450000D02*
X13266000Y-5550000D01*
X13366000Y-5500000D02*
G75*
G03*
X13366000Y-5500000I-50000J0D01*
G01*
X13496000Y-14650000D02*
X13596000Y-14750000D01*
X13596000Y-14650000D02*
X13496000Y-14750000D01*
X13596000Y-14700000D02*
G75*
G03*
X13596000Y-14700000I-50000J0D01*
G01*
X13670000Y-5450000D02*
X13770000Y-5550000D01*
X13770000Y-5450000D02*
X13670000Y-5550000D01*
X13770000Y-5500000D02*
G75*
G03*
X13770000Y-5500000I-50000J0D01*
G01*
X13740000Y-14270000D02*
X13840000Y-14370000D01*
X13840000Y-14270000D02*
X13740000Y-14370000D01*
X13840000Y-14320000D02*
G75*
G03*
X13840000Y-14320000I-50000J0D01*
G01*
X13750000Y-14650000D02*
X13850000Y-14750000D01*
X13850000Y-14650000D02*
X13750000Y-14750000D01*
X13850000Y-14700000D02*
G75*
G03*
X13850000Y-14700000I-50000J0D01*
G01*
X13924000Y-5450000D02*
X14024000Y-5550000D01*
X14024000Y-5450000D02*
X13924000Y-5550000D01*
X14024000Y-5500000D02*
G75*
G03*
X14024000Y-5500000I-50000J0D01*
G01*
X14150000Y-14150000D02*
X14250000Y-14250000D01*
X14250000Y-14150000D02*
X14150000Y-14250000D01*
X14250000Y-14200000D02*
G75*
G03*
X14250000Y-14200000I-50000J0D01*
G01*
X14150000Y-14404000D02*
X14250000Y-14504000D01*
X14250000Y-14404000D02*
X14150000Y-14504000D01*
X14250000Y-14454000D02*
G75*
G03*
X14250000Y-14454000I-50000J0D01*
G01*
X14150000Y-14658000D02*
X14250000Y-14758000D01*
X14250000Y-14658000D02*
X14150000Y-14758000D01*
X14250000Y-14708000D02*
G75*
G03*
X14250000Y-14708000I-50000J0D01*
G01*
X14178000Y-5450000D02*
X14278000Y-5550000D01*
X14278000Y-5450000D02*
X14178000Y-5550000D01*
X14278000Y-5500000D02*
G75*
G03*
X14278000Y-5500000I-50000J0D01*
G01*
X14550000Y-14396000D02*
X14650000Y-14496000D01*
X14650000Y-14396000D02*
X14550000Y-14496000D01*
X14650000Y-14446000D02*
G75*
G03*
X14650000Y-14446000I-50000J0D01*
G01*
X14550000Y-14650000D02*
X14650000Y-14750000D01*
X14650000Y-14650000D02*
X14550000Y-14750000D01*
X14650000Y-14700000D02*
G75*
G03*
X14650000Y-14700000I-50000J0D01*
G01*
X14580000Y-5450000D02*
X14680000Y-5550000D01*
X14680000Y-5450000D02*
X14580000Y-5550000D01*
X14680000Y-5500000D02*
G75*
G03*
X14680000Y-5500000I-50000J0D01*
G01*
X14834000Y-5450000D02*
X14934000Y-5550000D01*
X14934000Y-5450000D02*
X14834000Y-5550000D01*
X14934000Y-5500000D02*
G75*
G03*
X14934000Y-5500000I-50000J0D01*
G01*
X14950000Y-14396000D02*
X15050000Y-14496000D01*
X15050000Y-14396000D02*
X14950000Y-14496000D01*
X15050000Y-14446000D02*
G75*
G03*
X15050000Y-14446000I-50000J0D01*
G01*
X14950000Y-14650000D02*
X15050000Y-14750000D01*
X15050000Y-14650000D02*
X14950000Y-14750000D01*
X15050000Y-14700000D02*
G75*
G03*
X15050000Y-14700000I-50000J0D01*
G01*
X15050000Y-9042000D02*
X15150000Y-9142000D01*
X15150000Y-9042000D02*
X15050000Y-9142000D01*
X15150000Y-9092000D02*
G75*
G03*
X15150000Y-9092000I-50000J0D01*
G01*
X15050000Y-9296000D02*
X15150000Y-9396000D01*
X15150000Y-9296000D02*
X15050000Y-9396000D01*
X15150000Y-9346000D02*
G75*
G03*
X15150000Y-9346000I-50000J0D01*
G01*
X15050000Y-9550000D02*
X15150000Y-9650000D01*
X15150000Y-9550000D02*
X15050000Y-9650000D01*
X15150000Y-9600000D02*
G75*
G03*
X15150000Y-9600000I-50000J0D01*
G01*
X15088000Y-5450000D02*
X15188000Y-5550000D01*
X15188000Y-5450000D02*
X15088000Y-5550000D01*
X15188000Y-5500000D02*
G75*
G03*
X15188000Y-5500000I-50000J0D01*
G01*
X15342000Y-5450000D02*
X15442000Y-5550000D01*
X15442000Y-5450000D02*
X15342000Y-5550000D01*
X15442000Y-5500000D02*
G75*
G03*
X15442000Y-5500000I-50000J0D01*
G01*
X15350000Y-14150000D02*
X15450000Y-14250000D01*
X15450000Y-14150000D02*
X15350000Y-14250000D01*
X15450000Y-14200000D02*
G75*
G03*
X15450000Y-14200000I-50000J0D01*
G01*
X15350000Y-14404000D02*
X15450000Y-14504000D01*
X15450000Y-14404000D02*
X15350000Y-14504000D01*
X15450000Y-14454000D02*
G75*
G03*
X15450000Y-14454000I-50000J0D01*
G01*
X15350000Y-14658000D02*
X15450000Y-14758000D01*
X15450000Y-14658000D02*
X15350000Y-14758000D01*
X15450000Y-14708000D02*
G75*
G03*
X15450000Y-14708000I-50000J0D01*
G01*
X15450000Y-9042000D02*
X15550000Y-9142000D01*
X15550000Y-9042000D02*
X15450000Y-9142000D01*
X15550000Y-9092000D02*
G75*
G03*
X15550000Y-9092000I-50000J0D01*
G01*
X15450000Y-9296000D02*
X15550000Y-9396000D01*
X15550000Y-9296000D02*
X15450000Y-9396000D01*
X15550000Y-9346000D02*
G75*
G03*
X15550000Y-9346000I-50000J0D01*
G01*
X15450000Y-9550000D02*
X15550000Y-9650000D01*
X15550000Y-9550000D02*
X15450000Y-9650000D01*
X15550000Y-9600000D02*
G75*
G03*
X15550000Y-9600000I-50000J0D01*
G01*
X15750000Y-14150000D02*
X15850000Y-14250000D01*
X15850000Y-14150000D02*
X15750000Y-14250000D01*
X15850000Y-14200000D02*
G75*
G03*
X15850000Y-14200000I-50000J0D01*
G01*
X15750000Y-14404000D02*
X15850000Y-14504000D01*
X15850000Y-14404000D02*
X15750000Y-14504000D01*
X15850000Y-14454000D02*
G75*
G03*
X15850000Y-14454000I-50000J0D01*
G01*
X15750000Y-14658000D02*
X15850000Y-14758000D01*
X15850000Y-14658000D02*
X15750000Y-14758000D01*
X15850000Y-14708000D02*
G75*
G03*
X15850000Y-14708000I-50000J0D01*
G01*
X15942000Y-9950000D02*
X16042000Y-10050000D01*
X16042000Y-9950000D02*
X15942000Y-10050000D01*
X16042000Y-10000000D02*
G75*
G03*
X16042000Y-10000000I-50000J0D01*
G01*
X15942000Y-10350000D02*
X16042000Y-10450000D01*
X16042000Y-10350000D02*
X15942000Y-10450000D01*
X16042000Y-10400000D02*
G75*
G03*
X16042000Y-10400000I-50000J0D01*
G01*
X15942000Y-10750000D02*
X16042000Y-10850000D01*
X16042000Y-10750000D02*
X15942000Y-10850000D01*
X16042000Y-10800000D02*
G75*
G03*
X16042000Y-10800000I-50000J0D01*
G01*
X15942000Y-11150000D02*
X16042000Y-11250000D01*
X16042000Y-11150000D02*
X15942000Y-11250000D01*
X16042000Y-11200000D02*
G75*
G03*
X16042000Y-11200000I-50000J0D01*
G01*
X15942000Y-11550000D02*
X16042000Y-11650000D01*
X16042000Y-11550000D02*
X15942000Y-11650000D01*
X16042000Y-11600000D02*
G75*
G03*
X16042000Y-11600000I-50000J0D01*
G01*
X15942000Y-11950000D02*
X16042000Y-12050000D01*
X16042000Y-11950000D02*
X15942000Y-12050000D01*
X16042000Y-12000000D02*
G75*
G03*
X16042000Y-12000000I-50000J0D01*
G01*
X15942000Y-12750000D02*
X16042000Y-12850000D01*
X16042000Y-12750000D02*
X15942000Y-12850000D01*
X16042000Y-12800000D02*
G75*
G03*
X16042000Y-12800000I-50000J0D01*
G01*
X15950000Y-13550000D02*
X16050000Y-13650000D01*
X16050000Y-13550000D02*
X15950000Y-13650000D01*
X16050000Y-13600000D02*
G75*
G03*
X16050000Y-13600000I-50000J0D01*
G01*
X16050000Y-9050000D02*
X16150000Y-9150000D01*
X16150000Y-9050000D02*
X16050000Y-9150000D01*
X16150000Y-9100000D02*
G75*
G03*
X16150000Y-9100000I-50000J0D01*
G01*
X16050000Y-9304000D02*
X16150000Y-9404000D01*
X16150000Y-9304000D02*
X16050000Y-9404000D01*
X16150000Y-9354000D02*
G75*
G03*
X16150000Y-9354000I-50000J0D01*
G01*
X16050000Y-9558000D02*
X16150000Y-9658000D01*
X16150000Y-9558000D02*
X16050000Y-9658000D01*
X16150000Y-9608000D02*
G75*
G03*
X16150000Y-9608000I-50000J0D01*
G01*
X16196000Y-9950000D02*
X16296000Y-10050000D01*
X16296000Y-9950000D02*
X16196000Y-10050000D01*
X16296000Y-10000000D02*
G75*
G03*
X16296000Y-10000000I-50000J0D01*
G01*
X16196000Y-10350000D02*
X16296000Y-10450000D01*
X16296000Y-10350000D02*
X16196000Y-10450000D01*
X16296000Y-10400000D02*
G75*
G03*
X16296000Y-10400000I-50000J0D01*
G01*
X16196000Y-10750000D02*
X16296000Y-10850000D01*
X16296000Y-10750000D02*
X16196000Y-10850000D01*
X16296000Y-10800000D02*
G75*
G03*
X16296000Y-10800000I-50000J0D01*
G01*
X16196000Y-11150000D02*
X16296000Y-11250000D01*
X16296000Y-11150000D02*
X16196000Y-11250000D01*
X16296000Y-11200000D02*
G75*
G03*
X16296000Y-11200000I-50000J0D01*
G01*
X16196000Y-11550000D02*
X16296000Y-11650000D01*
X16296000Y-11550000D02*
X16196000Y-11650000D01*
X16296000Y-11600000D02*
G75*
G03*
X16296000Y-11600000I-50000J0D01*
G01*
X16196000Y-11950000D02*
X16296000Y-12050000D01*
X16296000Y-11950000D02*
X16196000Y-12050000D01*
X16296000Y-12000000D02*
G75*
G03*
X16296000Y-12000000I-50000J0D01*
G01*
X16196000Y-12350000D02*
X16296000Y-12450000D01*
X16296000Y-12350000D02*
X16196000Y-12450000D01*
X16296000Y-12400000D02*
G75*
G03*
X16296000Y-12400000I-50000J0D01*
G01*
X16196000Y-12750000D02*
X16296000Y-12850000D01*
X16296000Y-12750000D02*
X16196000Y-12850000D01*
X16296000Y-12800000D02*
G75*
G03*
X16296000Y-12800000I-50000J0D01*
G01*
X16196000Y-13150000D02*
X16296000Y-13250000D01*
X16296000Y-13150000D02*
X16196000Y-13250000D01*
X16296000Y-13200000D02*
G75*
G03*
X16296000Y-13200000I-50000J0D01*
G01*
X16204000Y-13550000D02*
X16304000Y-13650000D01*
X16304000Y-13550000D02*
X16204000Y-13650000D01*
X16304000Y-13600000D02*
G75*
G03*
X16304000Y-13600000I-50000J0D01*
G01*
X16450000Y-7788000D02*
X16550000Y-7888000D01*
X16550000Y-7788000D02*
X16450000Y-7888000D01*
X16550000Y-7838000D02*
G75*
G03*
X16550000Y-7838000I-50000J0D01*
G01*
X16450000Y-8042000D02*
X16550000Y-8142000D01*
X16550000Y-8042000D02*
X16450000Y-8142000D01*
X16550000Y-8092000D02*
G75*
G03*
X16550000Y-8092000I-50000J0D01*
G01*
X16450000Y-8296000D02*
X16550000Y-8396000D01*
X16550000Y-8296000D02*
X16450000Y-8396000D01*
X16550000Y-8346000D02*
G75*
G03*
X16550000Y-8346000I-50000J0D01*
G01*
X16450000Y-8550000D02*
X16550000Y-8650000D01*
X16550000Y-8550000D02*
X16450000Y-8650000D01*
X16550000Y-8600000D02*
G75*
G03*
X16550000Y-8600000I-50000J0D01*
G01*
X16450000Y-9050000D02*
X16550000Y-9150000D01*
X16550000Y-9050000D02*
X16450000Y-9150000D01*
X16550000Y-9100000D02*
G75*
G03*
X16550000Y-9100000I-50000J0D01*
G01*
X16450000Y-9304000D02*
X16550000Y-9404000D01*
X16550000Y-9304000D02*
X16450000Y-9404000D01*
X16550000Y-9354000D02*
G75*
G03*
X16550000Y-9354000I-50000J0D01*
G01*
X16450000Y-9558000D02*
X16550000Y-9658000D01*
X16550000Y-9558000D02*
X16450000Y-9658000D01*
X16550000Y-9608000D02*
G75*
G03*
X16550000Y-9608000I-50000J0D01*
G01*
X16450000Y-9950000D02*
X16550000Y-10050000D01*
X16550000Y-9950000D02*
X16450000Y-10050000D01*
X16550000Y-10000000D02*
G75*
G03*
X16550000Y-10000000I-50000J0D01*
G01*
X16450000Y-10350000D02*
X16550000Y-10450000D01*
X16550000Y-10350000D02*
X16450000Y-10450000D01*
X16550000Y-10400000D02*
G75*
G03*
X16550000Y-10400000I-50000J0D01*
G01*
X16450000Y-10750000D02*
X16550000Y-10850000D01*
X16550000Y-10750000D02*
X16450000Y-10850000D01*
X16550000Y-10800000D02*
G75*
G03*
X16550000Y-10800000I-50000J0D01*
G01*
X16450000Y-11150000D02*
X16550000Y-11250000D01*
X16550000Y-11150000D02*
X16450000Y-11250000D01*
X16550000Y-11200000D02*
G75*
G03*
X16550000Y-11200000I-50000J0D01*
G01*
X16450000Y-11550000D02*
X16550000Y-11650000D01*
X16550000Y-11550000D02*
X16450000Y-11650000D01*
X16550000Y-11600000D02*
G75*
G03*
X16550000Y-11600000I-50000J0D01*
G01*
X16450000Y-11950000D02*
X16550000Y-12050000D01*
X16550000Y-11950000D02*
X16450000Y-12050000D01*
X16550000Y-12000000D02*
G75*
G03*
X16550000Y-12000000I-50000J0D01*
G01*
X16450000Y-12350000D02*
X16550000Y-12450000D01*
X16550000Y-12350000D02*
X16450000Y-12450000D01*
X16550000Y-12400000D02*
G75*
G03*
X16550000Y-12400000I-50000J0D01*
G01*
X16450000Y-12750000D02*
X16550000Y-12850000D01*
X16550000Y-12750000D02*
X16450000Y-12850000D01*
X16550000Y-12800000D02*
G75*
G03*
X16550000Y-12800000I-50000J0D01*
G01*
X16450000Y-13150000D02*
X16550000Y-13250000D01*
X16550000Y-13150000D02*
X16450000Y-13250000D01*
X16550000Y-13200000D02*
G75*
G03*
X16550000Y-13200000I-50000J0D01*
G01*
X16458000Y-13550000D02*
X16558000Y-13650000D01*
X16558000Y-13550000D02*
X16458000Y-13650000D01*
X16558000Y-13600000D02*
G75*
G03*
X16558000Y-13600000I-50000J0D01*
G01*
X10245000Y-6285000D02*
X10355000Y-6395000D01*
X10355000Y-6285000D02*
X10245000Y-6395000D01*
X10300000Y-6285000D02*
X10300000Y-6395000D01*
X10245000Y-6340000D02*
X10355000Y-6340000D01*
X10499000Y-6285000D02*
X10609000Y-6395000D01*
X10609000Y-6285000D02*
X10499000Y-6395000D01*
X10554000Y-6285000D02*
X10554000Y-6395000D01*
X10499000Y-6340000D02*
X10609000Y-6340000D01*
X10753000Y-6285000D02*
X10863000Y-6395000D01*
X10863000Y-6285000D02*
X10753000Y-6395000D01*
X10808000Y-6285000D02*
X10808000Y-6395000D01*
X10753000Y-6340000D02*
X10863000Y-6340000D01*
X10340000Y-5340000D02*
X10660000Y-5660000D01*
X10660000Y-5340000D02*
X10340000Y-5660000D01*
X10613138Y-5613138D02*
X10613138Y-5386862D01*
X10386862Y-5386862D01*
X10386862Y-5613138D01*
X10613138Y-5613138D01*
X10340000Y-14340000D02*
X10660000Y-14660000D01*
X10660000Y-14340000D02*
X10340000Y-14660000D01*
X10613138Y-14613138D02*
X10613138Y-14386862D01*
X10386862Y-14386862D01*
X10386862Y-14613138D01*
X10613138Y-14613138D01*
X16340000Y-5340000D02*
X16660000Y-5660000D01*
X16660000Y-5340000D02*
X16340000Y-5660000D01*
X16613138Y-5613138D02*
X16613138Y-5386862D01*
X16386862Y-5386862D01*
X16386862Y-5613138D01*
X16613138Y-5613138D01*
X16340000Y-14340000D02*
X16660000Y-14660000D01*
X16660000Y-14340000D02*
X16340000Y-14660000D01*
X16613138Y-14613138D02*
X16613138Y-14386862D01*
X16386862Y-14386862D01*
X16386862Y-14613138D01*
X16613138Y-14613138D01*
D12*
X10283928Y-15468214D02*
X10283928Y-15168214D01*
X10355357Y-15168214D01*
X10398214Y-15182500D01*
X10426786Y-15211071D01*
X10441071Y-15239643D01*
X10455357Y-15296786D01*
X10455357Y-15339643D01*
X10441071Y-15396786D01*
X10426786Y-15425357D01*
X10398214Y-15453929D01*
X10355357Y-15468214D01*
X10283928Y-15468214D01*
X10583928Y-15468214D02*
X10583928Y-15268214D01*
X10583928Y-15325357D02*
X10598214Y-15296786D01*
X10612500Y-15282500D01*
X10641071Y-15268214D01*
X10669643Y-15268214D01*
X10769643Y-15468214D02*
X10769643Y-15268214D01*
X10769643Y-15168214D02*
X10755357Y-15182500D01*
X10769643Y-15196786D01*
X10783928Y-15182500D01*
X10769643Y-15168214D01*
X10769643Y-15196786D01*
X10955357Y-15468214D02*
X10926786Y-15453929D01*
X10912500Y-15425357D01*
X10912500Y-15168214D01*
X11112500Y-15468214D02*
X11083928Y-15453929D01*
X11069643Y-15425357D01*
X11069643Y-15168214D01*
X11455357Y-15468214D02*
X11455357Y-15168214D01*
X11555357Y-15382500D01*
X11655357Y-15168214D01*
X11655357Y-15468214D01*
X11926786Y-15468214D02*
X11926786Y-15311071D01*
X11912500Y-15282500D01*
X11883928Y-15268214D01*
X11826786Y-15268214D01*
X11798214Y-15282500D01*
X11926786Y-15453929D02*
X11898214Y-15468214D01*
X11826786Y-15468214D01*
X11798214Y-15453929D01*
X11783928Y-15425357D01*
X11783928Y-15396786D01*
X11798214Y-15368214D01*
X11826786Y-15353929D01*
X11898214Y-15353929D01*
X11926786Y-15339643D01*
X12069643Y-15268214D02*
X12069643Y-15568214D01*
X12069643Y-15282500D02*
X12098214Y-15268214D01*
X12155357Y-15268214D01*
X12183928Y-15282500D01*
X12198214Y-15296786D01*
X12212500Y-15325357D01*
X12212500Y-15411071D01*
X12198214Y-15439643D01*
X12183928Y-15453929D01*
X12155357Y-15468214D01*
X12098214Y-15468214D01*
X12069643Y-15453929D01*
X12341071Y-15439643D02*
X12355357Y-15453929D01*
X12341071Y-15468214D01*
X12326786Y-15453929D01*
X12341071Y-15439643D01*
X12341071Y-15468214D01*
X12341071Y-15282500D02*
X12355357Y-15296786D01*
X12341071Y-15311071D01*
X12326786Y-15296786D01*
X12341071Y-15282500D01*
X12341071Y-15311071D01*
X9977500Y-15952500D02*
X9997500Y-15972500D01*
X9997500Y-15952500D02*
X9977500Y-15972500D01*
X10341071Y-15798214D02*
X10369643Y-15798214D01*
X10398214Y-15812500D01*
X10412500Y-15826786D01*
X10426786Y-15855357D01*
X10441071Y-15912500D01*
X10441071Y-15983929D01*
X10426786Y-16041071D01*
X10412500Y-16069643D01*
X10398214Y-16083929D01*
X10369643Y-16098214D01*
X10341071Y-16098214D01*
X10312500Y-16083929D01*
X10298214Y-16069643D01*
X10283928Y-16041071D01*
X10269643Y-15983929D01*
X10269643Y-15912500D01*
X10283928Y-15855357D01*
X10298214Y-15826786D01*
X10312500Y-15812500D01*
X10341071Y-15798214D01*
X10569643Y-16069643D02*
X10583928Y-16083929D01*
X10569643Y-16098214D01*
X10555357Y-16083929D01*
X10569643Y-16069643D01*
X10569643Y-16098214D01*
X10698214Y-15826786D02*
X10712500Y-15812500D01*
X10741071Y-15798214D01*
X10812500Y-15798214D01*
X10841071Y-15812500D01*
X10855357Y-15826786D01*
X10869643Y-15855357D01*
X10869643Y-15883929D01*
X10855357Y-15926786D01*
X10683928Y-16098214D01*
X10869643Y-16098214D01*
X11055357Y-15798214D02*
X11083928Y-15798214D01*
X11112500Y-15812500D01*
X11126786Y-15826786D01*
X11141071Y-15855357D01*
X11155357Y-15912500D01*
X11155357Y-15983929D01*
X11141071Y-16041071D01*
X11126786Y-16069643D01*
X11112500Y-16083929D01*
X11083928Y-16098214D01*
X11055357Y-16098214D01*
X11026786Y-16083929D01*
X11012500Y-16069643D01*
X10998214Y-16041071D01*
X10983928Y-15983929D01*
X10983928Y-15912500D01*
X10998214Y-15855357D01*
X11012500Y-15826786D01*
X11026786Y-15812500D01*
X11055357Y-15798214D01*
X11283928Y-16098214D02*
X11283928Y-15898214D01*
X11283928Y-15926786D02*
X11298214Y-15912500D01*
X11326786Y-15898214D01*
X11369643Y-15898214D01*
X11398214Y-15912500D01*
X11412500Y-15941071D01*
X11412500Y-16098214D01*
X11412500Y-15941071D02*
X11426786Y-15912500D01*
X11455357Y-15898214D01*
X11498214Y-15898214D01*
X11526786Y-15912500D01*
X11541071Y-15941071D01*
X11541071Y-16098214D01*
X11683928Y-16098214D02*
X11683928Y-15898214D01*
X11683928Y-15926786D02*
X11698214Y-15912500D01*
X11726786Y-15898214D01*
X11769643Y-15898214D01*
X11798214Y-15912500D01*
X11812500Y-15941071D01*
X11812500Y-16098214D01*
X11812500Y-15941071D02*
X11826786Y-15912500D01*
X11855357Y-15898214D01*
X11898214Y-15898214D01*
X11926786Y-15912500D01*
X11941071Y-15941071D01*
X11941071Y-16098214D01*
X12526786Y-15783929D02*
X12269643Y-16169643D01*
X12912500Y-15798214D02*
X12941071Y-15798214D01*
X12969643Y-15812500D01*
X12983928Y-15826786D01*
X12998214Y-15855357D01*
X13012500Y-15912500D01*
X13012500Y-15983929D01*
X12998214Y-16041071D01*
X12983928Y-16069643D01*
X12969643Y-16083929D01*
X12941071Y-16098214D01*
X12912500Y-16098214D01*
X12883928Y-16083929D01*
X12869643Y-16069643D01*
X12855357Y-16041071D01*
X12841071Y-15983929D01*
X12841071Y-15912500D01*
X12855357Y-15855357D01*
X12869643Y-15826786D01*
X12883928Y-15812500D01*
X12912500Y-15798214D01*
X13141071Y-16069643D02*
X13155357Y-16083929D01*
X13141071Y-16098214D01*
X13126786Y-16083929D01*
X13141071Y-16069643D01*
X13141071Y-16098214D01*
X13341071Y-15798214D02*
X13369643Y-15798214D01*
X13398214Y-15812500D01*
X13412500Y-15826786D01*
X13426786Y-15855357D01*
X13441071Y-15912500D01*
X13441071Y-15983929D01*
X13426786Y-16041071D01*
X13412500Y-16069643D01*
X13398214Y-16083929D01*
X13369643Y-16098214D01*
X13341071Y-16098214D01*
X13312500Y-16083929D01*
X13298214Y-16069643D01*
X13283928Y-16041071D01*
X13269643Y-15983929D01*
X13269643Y-15912500D01*
X13283928Y-15855357D01*
X13298214Y-15826786D01*
X13312500Y-15812500D01*
X13341071Y-15798214D01*
X13626786Y-15798214D02*
X13655357Y-15798214D01*
X13683928Y-15812500D01*
X13698214Y-15826786D01*
X13712500Y-15855357D01*
X13726786Y-15912500D01*
X13726786Y-15983929D01*
X13712500Y-16041071D01*
X13698214Y-16069643D01*
X13683928Y-16083929D01*
X13655357Y-16098214D01*
X13626786Y-16098214D01*
X13598214Y-16083929D01*
X13583928Y-16069643D01*
X13569643Y-16041071D01*
X13555357Y-15983929D01*
X13555357Y-15912500D01*
X13569643Y-15855357D01*
X13583928Y-15826786D01*
X13598214Y-15812500D01*
X13626786Y-15798214D01*
X13898214Y-15926786D02*
X13869643Y-15912500D01*
X13855357Y-15898214D01*
X13841071Y-15869643D01*
X13841071Y-15855357D01*
X13855357Y-15826786D01*
X13869643Y-15812500D01*
X13898214Y-15798214D01*
X13955357Y-15798214D01*
X13983928Y-15812500D01*
X13998214Y-15826786D01*
X14012500Y-15855357D01*
X14012500Y-15869643D01*
X13998214Y-15898214D01*
X13983928Y-15912500D01*
X13955357Y-15926786D01*
X13898214Y-15926786D01*
X13869643Y-15941071D01*
X13855357Y-15955357D01*
X13841071Y-15983929D01*
X13841071Y-16041071D01*
X13855357Y-16069643D01*
X13869643Y-16083929D01*
X13898214Y-16098214D01*
X13955357Y-16098214D01*
X13983928Y-16083929D01*
X13998214Y-16069643D01*
X14012500Y-16041071D01*
X14012500Y-15983929D01*
X13998214Y-15955357D01*
X13983928Y-15941071D01*
X13955357Y-15926786D01*
X14126786Y-15798214D02*
X14126786Y-15855357D01*
X14241071Y-15798214D02*
X14241071Y-15855357D01*
X14683928Y-16212500D02*
X14669643Y-16198214D01*
X14641071Y-16155357D01*
X14626786Y-16126786D01*
X14612500Y-16083929D01*
X14598214Y-16012500D01*
X14598214Y-15955357D01*
X14612500Y-15883929D01*
X14626786Y-15841071D01*
X14641071Y-15812500D01*
X14669643Y-15769643D01*
X14683928Y-15755357D01*
X14941071Y-15798214D02*
X14798214Y-15798214D01*
X14783928Y-15941071D01*
X14798214Y-15926786D01*
X14826786Y-15912500D01*
X14898214Y-15912500D01*
X14926786Y-15926786D01*
X14941071Y-15941071D01*
X14955357Y-15969643D01*
X14955357Y-16041071D01*
X14941071Y-16069643D01*
X14926786Y-16083929D01*
X14898214Y-16098214D01*
X14826786Y-16098214D01*
X14798214Y-16083929D01*
X14783928Y-16069643D01*
X15098214Y-16098214D02*
X15155357Y-16098214D01*
X15183928Y-16083929D01*
X15198214Y-16069643D01*
X15226786Y-16026786D01*
X15241071Y-15969643D01*
X15241071Y-15855357D01*
X15226786Y-15826786D01*
X15212500Y-15812500D01*
X15183928Y-15798214D01*
X15126786Y-15798214D01*
X15098214Y-15812500D01*
X15083928Y-15826786D01*
X15069643Y-15855357D01*
X15069643Y-15926786D01*
X15083928Y-15955357D01*
X15098214Y-15969643D01*
X15126786Y-15983929D01*
X15183928Y-15983929D01*
X15212500Y-15969643D01*
X15226786Y-15955357D01*
X15241071Y-15926786D01*
X15598214Y-16098214D02*
X15598214Y-15798214D01*
X15726786Y-16098214D02*
X15726786Y-15941071D01*
X15712500Y-15912500D01*
X15683928Y-15898214D01*
X15641071Y-15898214D01*
X15612500Y-15912500D01*
X15598214Y-15926786D01*
X15912500Y-16098214D02*
X15883928Y-16083929D01*
X15869643Y-16069643D01*
X15855357Y-16041071D01*
X15855357Y-15955357D01*
X15869643Y-15926786D01*
X15883928Y-15912500D01*
X15912500Y-15898214D01*
X15955357Y-15898214D01*
X15983928Y-15912500D01*
X15998214Y-15926786D01*
X16012500Y-15955357D01*
X16012500Y-16041071D01*
X15998214Y-16069643D01*
X15983928Y-16083929D01*
X15955357Y-16098214D01*
X15912500Y-16098214D01*
X16183928Y-16098214D02*
X16155357Y-16083929D01*
X16141071Y-16055357D01*
X16141071Y-15798214D01*
X16412500Y-16083929D02*
X16383928Y-16098214D01*
X16326786Y-16098214D01*
X16298214Y-16083929D01*
X16283928Y-16055357D01*
X16283928Y-15941071D01*
X16298214Y-15912500D01*
X16326786Y-15898214D01*
X16383928Y-15898214D01*
X16412500Y-15912500D01*
X16426786Y-15941071D01*
X16426786Y-15969643D01*
X16283928Y-15998214D01*
X16541071Y-16083929D02*
X16569643Y-16098214D01*
X16626786Y-16098214D01*
X16655357Y-16083929D01*
X16669643Y-16055357D01*
X16669643Y-16041071D01*
X16655357Y-16012500D01*
X16626786Y-15998214D01*
X16583928Y-15998214D01*
X16555357Y-15983929D01*
X16541071Y-15955357D01*
X16541071Y-15941071D01*
X16555357Y-15912500D01*
X16583928Y-15898214D01*
X16626786Y-15898214D01*
X16655357Y-15912500D01*
X16769643Y-16212500D02*
X16783928Y-16198214D01*
X16812500Y-16155357D01*
X16826786Y-16126786D01*
X16841071Y-16083929D01*
X16855357Y-16012500D01*
X16855357Y-15955357D01*
X16841071Y-15883929D01*
X16826786Y-15841071D01*
X16812500Y-15812500D01*
X16783928Y-15769643D01*
X16769643Y-15755357D01*
X9997500Y-16358500D02*
G75*
G03*
X9997500Y-16358500I-20000J0D01*
G01*
X10341071Y-16194214D02*
X10369643Y-16194214D01*
X10398214Y-16208500D01*
X10412500Y-16222786D01*
X10426786Y-16251357D01*
X10441071Y-16308500D01*
X10441071Y-16379929D01*
X10426786Y-16437071D01*
X10412500Y-16465643D01*
X10398214Y-16479929D01*
X10369643Y-16494214D01*
X10341071Y-16494214D01*
X10312500Y-16479929D01*
X10298214Y-16465643D01*
X10283928Y-16437071D01*
X10269643Y-16379929D01*
X10269643Y-16308500D01*
X10283928Y-16251357D01*
X10298214Y-16222786D01*
X10312500Y-16208500D01*
X10341071Y-16194214D01*
X10569643Y-16465643D02*
X10583928Y-16479929D01*
X10569643Y-16494214D01*
X10555357Y-16479929D01*
X10569643Y-16465643D01*
X10569643Y-16494214D01*
X10841071Y-16294214D02*
X10841071Y-16494214D01*
X10769643Y-16179929D02*
X10698214Y-16394214D01*
X10883928Y-16394214D01*
X11055357Y-16194214D02*
X11083928Y-16194214D01*
X11112500Y-16208500D01*
X11126786Y-16222786D01*
X11141071Y-16251357D01*
X11155357Y-16308500D01*
X11155357Y-16379929D01*
X11141071Y-16437071D01*
X11126786Y-16465643D01*
X11112500Y-16479929D01*
X11083928Y-16494214D01*
X11055357Y-16494214D01*
X11026786Y-16479929D01*
X11012500Y-16465643D01*
X10998214Y-16437071D01*
X10983928Y-16379929D01*
X10983928Y-16308500D01*
X10998214Y-16251357D01*
X11012500Y-16222786D01*
X11026786Y-16208500D01*
X11055357Y-16194214D01*
X11283928Y-16494214D02*
X11283928Y-16294214D01*
X11283928Y-16322786D02*
X11298214Y-16308500D01*
X11326786Y-16294214D01*
X11369643Y-16294214D01*
X11398214Y-16308500D01*
X11412500Y-16337071D01*
X11412500Y-16494214D01*
X11412500Y-16337071D02*
X11426786Y-16308500D01*
X11455357Y-16294214D01*
X11498214Y-16294214D01*
X11526786Y-16308500D01*
X11541071Y-16337071D01*
X11541071Y-16494214D01*
X11683928Y-16494214D02*
X11683928Y-16294214D01*
X11683928Y-16322786D02*
X11698214Y-16308500D01*
X11726786Y-16294214D01*
X11769643Y-16294214D01*
X11798214Y-16308500D01*
X11812500Y-16337071D01*
X11812500Y-16494214D01*
X11812500Y-16337071D02*
X11826786Y-16308500D01*
X11855357Y-16294214D01*
X11898214Y-16294214D01*
X11926786Y-16308500D01*
X11941071Y-16337071D01*
X11941071Y-16494214D01*
X12526786Y-16179929D02*
X12269643Y-16565643D01*
X12912500Y-16194214D02*
X12941071Y-16194214D01*
X12969643Y-16208500D01*
X12983928Y-16222786D01*
X12998214Y-16251357D01*
X13012500Y-16308500D01*
X13012500Y-16379929D01*
X12998214Y-16437071D01*
X12983928Y-16465643D01*
X12969643Y-16479929D01*
X12941071Y-16494214D01*
X12912500Y-16494214D01*
X12883928Y-16479929D01*
X12869643Y-16465643D01*
X12855357Y-16437071D01*
X12841071Y-16379929D01*
X12841071Y-16308500D01*
X12855357Y-16251357D01*
X12869643Y-16222786D01*
X12883928Y-16208500D01*
X12912500Y-16194214D01*
X13141071Y-16465643D02*
X13155357Y-16479929D01*
X13141071Y-16494214D01*
X13126786Y-16479929D01*
X13141071Y-16465643D01*
X13141071Y-16494214D01*
X13341071Y-16194214D02*
X13369643Y-16194214D01*
X13398214Y-16208500D01*
X13412500Y-16222786D01*
X13426786Y-16251357D01*
X13441071Y-16308500D01*
X13441071Y-16379929D01*
X13426786Y-16437071D01*
X13412500Y-16465643D01*
X13398214Y-16479929D01*
X13369643Y-16494214D01*
X13341071Y-16494214D01*
X13312500Y-16479929D01*
X13298214Y-16465643D01*
X13283928Y-16437071D01*
X13269643Y-16379929D01*
X13269643Y-16308500D01*
X13283928Y-16251357D01*
X13298214Y-16222786D01*
X13312500Y-16208500D01*
X13341071Y-16194214D01*
X13726786Y-16494214D02*
X13555357Y-16494214D01*
X13641071Y-16494214D02*
X13641071Y-16194214D01*
X13612500Y-16237071D01*
X13583928Y-16265643D01*
X13555357Y-16279929D01*
X13983928Y-16194214D02*
X13926786Y-16194214D01*
X13898214Y-16208500D01*
X13883928Y-16222786D01*
X13855357Y-16265643D01*
X13841071Y-16322786D01*
X13841071Y-16437071D01*
X13855357Y-16465643D01*
X13869643Y-16479929D01*
X13898214Y-16494214D01*
X13955357Y-16494214D01*
X13983928Y-16479929D01*
X13998214Y-16465643D01*
X14012500Y-16437071D01*
X14012500Y-16365643D01*
X13998214Y-16337071D01*
X13983928Y-16322786D01*
X13955357Y-16308500D01*
X13898214Y-16308500D01*
X13869643Y-16322786D01*
X13855357Y-16337071D01*
X13841071Y-16365643D01*
X14126786Y-16194214D02*
X14126786Y-16251357D01*
X14241071Y-16194214D02*
X14241071Y-16251357D01*
X14683928Y-16608500D02*
X14669643Y-16594214D01*
X14641071Y-16551357D01*
X14626786Y-16522786D01*
X14612500Y-16479929D01*
X14598214Y-16408500D01*
X14598214Y-16351357D01*
X14612500Y-16279929D01*
X14626786Y-16237071D01*
X14641071Y-16208500D01*
X14669643Y-16165643D01*
X14683928Y-16151357D01*
X14769643Y-16194214D02*
X14955357Y-16194214D01*
X14855357Y-16308500D01*
X14898214Y-16308500D01*
X14926786Y-16322786D01*
X14941071Y-16337071D01*
X14955357Y-16365643D01*
X14955357Y-16437071D01*
X14941071Y-16465643D01*
X14926786Y-16479929D01*
X14898214Y-16494214D01*
X14812500Y-16494214D01*
X14783928Y-16479929D01*
X14769643Y-16465643D01*
X15241071Y-16494214D02*
X15069643Y-16494214D01*
X15155357Y-16494214D02*
X15155357Y-16194214D01*
X15126786Y-16237071D01*
X15098214Y-16265643D01*
X15069643Y-16279929D01*
X15598214Y-16494214D02*
X15598214Y-16194214D01*
X15726786Y-16494214D02*
X15726786Y-16337071D01*
X15712500Y-16308500D01*
X15683928Y-16294214D01*
X15641071Y-16294214D01*
X15612500Y-16308500D01*
X15598214Y-16322786D01*
X15912500Y-16494214D02*
X15883928Y-16479929D01*
X15869643Y-16465643D01*
X15855357Y-16437071D01*
X15855357Y-16351357D01*
X15869643Y-16322786D01*
X15883928Y-16308500D01*
X15912500Y-16294214D01*
X15955357Y-16294214D01*
X15983928Y-16308500D01*
X15998214Y-16322786D01*
X16012500Y-16351357D01*
X16012500Y-16437071D01*
X15998214Y-16465643D01*
X15983928Y-16479929D01*
X15955357Y-16494214D01*
X15912500Y-16494214D01*
X16183928Y-16494214D02*
X16155357Y-16479929D01*
X16141071Y-16451357D01*
X16141071Y-16194214D01*
X16412500Y-16479929D02*
X16383928Y-16494214D01*
X16326786Y-16494214D01*
X16298214Y-16479929D01*
X16283928Y-16451357D01*
X16283928Y-16337071D01*
X16298214Y-16308500D01*
X16326786Y-16294214D01*
X16383928Y-16294214D01*
X16412500Y-16308500D01*
X16426786Y-16337071D01*
X16426786Y-16365643D01*
X16283928Y-16394214D01*
X16541071Y-16479929D02*
X16569643Y-16494214D01*
X16626786Y-16494214D01*
X16655357Y-16479929D01*
X16669643Y-16451357D01*
X16669643Y-16437071D01*
X16655357Y-16408500D01*
X16626786Y-16394214D01*
X16583928Y-16394214D01*
X16555357Y-16379929D01*
X16541071Y-16351357D01*
X16541071Y-16337071D01*
X16555357Y-16308500D01*
X16583928Y-16294214D01*
X16626786Y-16294214D01*
X16655357Y-16308500D01*
X16769643Y-16608500D02*
X16783928Y-16594214D01*
X16812500Y-16551357D01*
X16826786Y-16522786D01*
X16841071Y-16479929D01*
X16855357Y-16408500D01*
X16855357Y-16351357D01*
X16841071Y-16279929D01*
X16826786Y-16237071D01*
X16812500Y-16208500D01*
X16783928Y-16165643D01*
X16769643Y-16151357D01*
X9972500Y-16729500D02*
X9972500Y-16779500D01*
X9947500Y-16754500D02*
X9997500Y-16754500D01*
X10341071Y-16590214D02*
X10369643Y-16590214D01*
X10398214Y-16604500D01*
X10412500Y-16618786D01*
X10426786Y-16647357D01*
X10441071Y-16704500D01*
X10441071Y-16775929D01*
X10426786Y-16833072D01*
X10412500Y-16861643D01*
X10398214Y-16875929D01*
X10369643Y-16890214D01*
X10341071Y-16890214D01*
X10312500Y-16875929D01*
X10298214Y-16861643D01*
X10283928Y-16833072D01*
X10269643Y-16775929D01*
X10269643Y-16704500D01*
X10283928Y-16647357D01*
X10298214Y-16618786D01*
X10312500Y-16604500D01*
X10341071Y-16590214D01*
X10569643Y-16861643D02*
X10583928Y-16875929D01*
X10569643Y-16890214D01*
X10555357Y-16875929D01*
X10569643Y-16861643D01*
X10569643Y-16890214D01*
X10855357Y-16590214D02*
X10712500Y-16590214D01*
X10698214Y-16733071D01*
X10712500Y-16718786D01*
X10741071Y-16704500D01*
X10812500Y-16704500D01*
X10841071Y-16718786D01*
X10855357Y-16733071D01*
X10869643Y-16761643D01*
X10869643Y-16833072D01*
X10855357Y-16861643D01*
X10841071Y-16875929D01*
X10812500Y-16890214D01*
X10741071Y-16890214D01*
X10712500Y-16875929D01*
X10698214Y-16861643D01*
X11055357Y-16590214D02*
X11083928Y-16590214D01*
X11112500Y-16604500D01*
X11126786Y-16618786D01*
X11141071Y-16647357D01*
X11155357Y-16704500D01*
X11155357Y-16775929D01*
X11141071Y-16833072D01*
X11126786Y-16861643D01*
X11112500Y-16875929D01*
X11083928Y-16890214D01*
X11055357Y-16890214D01*
X11026786Y-16875929D01*
X11012500Y-16861643D01*
X10998214Y-16833072D01*
X10983928Y-16775929D01*
X10983928Y-16704500D01*
X10998214Y-16647357D01*
X11012500Y-16618786D01*
X11026786Y-16604500D01*
X11055357Y-16590214D01*
X11283928Y-16890214D02*
X11283928Y-16690214D01*
X11283928Y-16718786D02*
X11298214Y-16704500D01*
X11326786Y-16690214D01*
X11369643Y-16690214D01*
X11398214Y-16704500D01*
X11412500Y-16733071D01*
X11412500Y-16890214D01*
X11412500Y-16733071D02*
X11426786Y-16704500D01*
X11455357Y-16690214D01*
X11498214Y-16690214D01*
X11526786Y-16704500D01*
X11541071Y-16733071D01*
X11541071Y-16890214D01*
X11683928Y-16890214D02*
X11683928Y-16690214D01*
X11683928Y-16718786D02*
X11698214Y-16704500D01*
X11726786Y-16690214D01*
X11769643Y-16690214D01*
X11798214Y-16704500D01*
X11812500Y-16733071D01*
X11812500Y-16890214D01*
X11812500Y-16733071D02*
X11826786Y-16704500D01*
X11855357Y-16690214D01*
X11898214Y-16690214D01*
X11926786Y-16704500D01*
X11941071Y-16733071D01*
X11941071Y-16890214D01*
X12526786Y-16575929D02*
X12269643Y-16961643D01*
X12912500Y-16590214D02*
X12941071Y-16590214D01*
X12969643Y-16604500D01*
X12983928Y-16618786D01*
X12998214Y-16647357D01*
X13012500Y-16704500D01*
X13012500Y-16775929D01*
X12998214Y-16833072D01*
X12983928Y-16861643D01*
X12969643Y-16875929D01*
X12941071Y-16890214D01*
X12912500Y-16890214D01*
X12883928Y-16875929D01*
X12869643Y-16861643D01*
X12855357Y-16833072D01*
X12841071Y-16775929D01*
X12841071Y-16704500D01*
X12855357Y-16647357D01*
X12869643Y-16618786D01*
X12883928Y-16604500D01*
X12912500Y-16590214D01*
X13141071Y-16861643D02*
X13155357Y-16875929D01*
X13141071Y-16890214D01*
X13126786Y-16875929D01*
X13141071Y-16861643D01*
X13141071Y-16890214D01*
X13341071Y-16590214D02*
X13369643Y-16590214D01*
X13398214Y-16604500D01*
X13412500Y-16618786D01*
X13426786Y-16647357D01*
X13441071Y-16704500D01*
X13441071Y-16775929D01*
X13426786Y-16833072D01*
X13412500Y-16861643D01*
X13398214Y-16875929D01*
X13369643Y-16890214D01*
X13341071Y-16890214D01*
X13312500Y-16875929D01*
X13298214Y-16861643D01*
X13283928Y-16833072D01*
X13269643Y-16775929D01*
X13269643Y-16704500D01*
X13283928Y-16647357D01*
X13298214Y-16618786D01*
X13312500Y-16604500D01*
X13341071Y-16590214D01*
X13555357Y-16618786D02*
X13569643Y-16604500D01*
X13598214Y-16590214D01*
X13669643Y-16590214D01*
X13698214Y-16604500D01*
X13712500Y-16618786D01*
X13726786Y-16647357D01*
X13726786Y-16675929D01*
X13712500Y-16718786D01*
X13541071Y-16890214D01*
X13726786Y-16890214D01*
X13912500Y-16590214D02*
X13941071Y-16590214D01*
X13969643Y-16604500D01*
X13983928Y-16618786D01*
X13998214Y-16647357D01*
X14012500Y-16704500D01*
X14012500Y-16775929D01*
X13998214Y-16833072D01*
X13983928Y-16861643D01*
X13969643Y-16875929D01*
X13941071Y-16890214D01*
X13912500Y-16890214D01*
X13883928Y-16875929D01*
X13869643Y-16861643D01*
X13855357Y-16833072D01*
X13841071Y-16775929D01*
X13841071Y-16704500D01*
X13855357Y-16647357D01*
X13869643Y-16618786D01*
X13883928Y-16604500D01*
X13912500Y-16590214D01*
X14126786Y-16590214D02*
X14126786Y-16647357D01*
X14241071Y-16590214D02*
X14241071Y-16647357D01*
X14683928Y-17004500D02*
X14669643Y-16990214D01*
X14641071Y-16947357D01*
X14626786Y-16918786D01*
X14612500Y-16875929D01*
X14598214Y-16804500D01*
X14598214Y-16747357D01*
X14612500Y-16675929D01*
X14626786Y-16633071D01*
X14641071Y-16604500D01*
X14669643Y-16561643D01*
X14683928Y-16547357D01*
X14769643Y-16590214D02*
X14955357Y-16590214D01*
X14855357Y-16704500D01*
X14898214Y-16704500D01*
X14926786Y-16718786D01*
X14941071Y-16733071D01*
X14955357Y-16761643D01*
X14955357Y-16833072D01*
X14941071Y-16861643D01*
X14926786Y-16875929D01*
X14898214Y-16890214D01*
X14812500Y-16890214D01*
X14783928Y-16875929D01*
X14769643Y-16861643D01*
X15069643Y-16618786D02*
X15083928Y-16604500D01*
X15112500Y-16590214D01*
X15183928Y-16590214D01*
X15212500Y-16604500D01*
X15226786Y-16618786D01*
X15241071Y-16647357D01*
X15241071Y-16675929D01*
X15226786Y-16718786D01*
X15055357Y-16890214D01*
X15241071Y-16890214D01*
X15598214Y-16890214D02*
X15598214Y-16590214D01*
X15726786Y-16890214D02*
X15726786Y-16733071D01*
X15712500Y-16704500D01*
X15683928Y-16690214D01*
X15641071Y-16690214D01*
X15612500Y-16704500D01*
X15598214Y-16718786D01*
X15912500Y-16890214D02*
X15883928Y-16875929D01*
X15869643Y-16861643D01*
X15855357Y-16833072D01*
X15855357Y-16747357D01*
X15869643Y-16718786D01*
X15883928Y-16704500D01*
X15912500Y-16690214D01*
X15955357Y-16690214D01*
X15983928Y-16704500D01*
X15998214Y-16718786D01*
X16012500Y-16747357D01*
X16012500Y-16833072D01*
X15998214Y-16861643D01*
X15983928Y-16875929D01*
X15955357Y-16890214D01*
X15912500Y-16890214D01*
X16183928Y-16890214D02*
X16155357Y-16875929D01*
X16141071Y-16847357D01*
X16141071Y-16590214D01*
X16412500Y-16875929D02*
X16383928Y-16890214D01*
X16326786Y-16890214D01*
X16298214Y-16875929D01*
X16283928Y-16847357D01*
X16283928Y-16733071D01*
X16298214Y-16704500D01*
X16326786Y-16690214D01*
X16383928Y-16690214D01*
X16412500Y-16704500D01*
X16426786Y-16733071D01*
X16426786Y-16761643D01*
X16283928Y-16790214D01*
X16541071Y-16875929D02*
X16569643Y-16890214D01*
X16626786Y-16890214D01*
X16655357Y-16875929D01*
X16669643Y-16847357D01*
X16669643Y-16833072D01*
X16655357Y-16804500D01*
X16626786Y-16790214D01*
X16583928Y-16790214D01*
X16555357Y-16775929D01*
X16541071Y-16747357D01*
X16541071Y-16733071D01*
X16555357Y-16704500D01*
X16583928Y-16690214D01*
X16626786Y-16690214D01*
X16655357Y-16704500D01*
X16769643Y-17004500D02*
X16783928Y-16990214D01*
X16812500Y-16947357D01*
X16826786Y-16918786D01*
X16841071Y-16875929D01*
X16855357Y-16804500D01*
X16855357Y-16747357D01*
X16841071Y-16675929D01*
X16826786Y-16633071D01*
X16812500Y-16604500D01*
X16783928Y-16561643D01*
X16769643Y-16547357D01*
X9985784Y-17178785D02*
X9985784Y-17122216D01*
X9929215Y-17122216D01*
X9929215Y-17178785D01*
X9985784Y-17178785D01*
X10341071Y-16986214D02*
X10369643Y-16986214D01*
X10398214Y-17000500D01*
X10412500Y-17014786D01*
X10426786Y-17043357D01*
X10441071Y-17100500D01*
X10441071Y-17171929D01*
X10426786Y-17229072D01*
X10412500Y-17257643D01*
X10398214Y-17271929D01*
X10369643Y-17286214D01*
X10341071Y-17286214D01*
X10312500Y-17271929D01*
X10298214Y-17257643D01*
X10283928Y-17229072D01*
X10269643Y-17171929D01*
X10269643Y-17100500D01*
X10283928Y-17043357D01*
X10298214Y-17014786D01*
X10312500Y-17000500D01*
X10341071Y-16986214D01*
X10569643Y-17257643D02*
X10583928Y-17271929D01*
X10569643Y-17286214D01*
X10555357Y-17271929D01*
X10569643Y-17257643D01*
X10569643Y-17286214D01*
X10755357Y-17114786D02*
X10726786Y-17100500D01*
X10712500Y-17086214D01*
X10698214Y-17057643D01*
X10698214Y-17043357D01*
X10712500Y-17014786D01*
X10726786Y-17000500D01*
X10755357Y-16986214D01*
X10812500Y-16986214D01*
X10841071Y-17000500D01*
X10855357Y-17014786D01*
X10869643Y-17043357D01*
X10869643Y-17057643D01*
X10855357Y-17086214D01*
X10841071Y-17100500D01*
X10812500Y-17114786D01*
X10755357Y-17114786D01*
X10726786Y-17129072D01*
X10712500Y-17143357D01*
X10698214Y-17171929D01*
X10698214Y-17229072D01*
X10712500Y-17257643D01*
X10726786Y-17271929D01*
X10755357Y-17286214D01*
X10812500Y-17286214D01*
X10841071Y-17271929D01*
X10855357Y-17257643D01*
X10869643Y-17229072D01*
X10869643Y-17171929D01*
X10855357Y-17143357D01*
X10841071Y-17129072D01*
X10812500Y-17114786D01*
X11055357Y-16986214D02*
X11083928Y-16986214D01*
X11112500Y-17000500D01*
X11126786Y-17014786D01*
X11141071Y-17043357D01*
X11155357Y-17100500D01*
X11155357Y-17171929D01*
X11141071Y-17229072D01*
X11126786Y-17257643D01*
X11112500Y-17271929D01*
X11083928Y-17286214D01*
X11055357Y-17286214D01*
X11026786Y-17271929D01*
X11012500Y-17257643D01*
X10998214Y-17229072D01*
X10983928Y-17171929D01*
X10983928Y-17100500D01*
X10998214Y-17043357D01*
X11012500Y-17014786D01*
X11026786Y-17000500D01*
X11055357Y-16986214D01*
X11283928Y-17286214D02*
X11283928Y-17086214D01*
X11283928Y-17114786D02*
X11298214Y-17100500D01*
X11326786Y-17086214D01*
X11369643Y-17086214D01*
X11398214Y-17100500D01*
X11412500Y-17129072D01*
X11412500Y-17286214D01*
X11412500Y-17129072D02*
X11426786Y-17100500D01*
X11455357Y-17086214D01*
X11498214Y-17086214D01*
X11526786Y-17100500D01*
X11541071Y-17129072D01*
X11541071Y-17286214D01*
X11683928Y-17286214D02*
X11683928Y-17086214D01*
X11683928Y-17114786D02*
X11698214Y-17100500D01*
X11726786Y-17086214D01*
X11769643Y-17086214D01*
X11798214Y-17100500D01*
X11812500Y-17129072D01*
X11812500Y-17286214D01*
X11812500Y-17129072D02*
X11826786Y-17100500D01*
X11855357Y-17086214D01*
X11898214Y-17086214D01*
X11926786Y-17100500D01*
X11941071Y-17129072D01*
X11941071Y-17286214D01*
X12526786Y-16971929D02*
X12269643Y-17357643D01*
X12912500Y-16986214D02*
X12941071Y-16986214D01*
X12969643Y-17000500D01*
X12983928Y-17014786D01*
X12998214Y-17043357D01*
X13012500Y-17100500D01*
X13012500Y-17171929D01*
X12998214Y-17229072D01*
X12983928Y-17257643D01*
X12969643Y-17271929D01*
X12941071Y-17286214D01*
X12912500Y-17286214D01*
X12883928Y-17271929D01*
X12869643Y-17257643D01*
X12855357Y-17229072D01*
X12841071Y-17171929D01*
X12841071Y-17100500D01*
X12855357Y-17043357D01*
X12869643Y-17014786D01*
X12883928Y-17000500D01*
X12912500Y-16986214D01*
X13141071Y-17257643D02*
X13155357Y-17271929D01*
X13141071Y-17286214D01*
X13126786Y-17271929D01*
X13141071Y-17257643D01*
X13141071Y-17286214D01*
X13341071Y-16986214D02*
X13369643Y-16986214D01*
X13398214Y-17000500D01*
X13412500Y-17014786D01*
X13426786Y-17043357D01*
X13441071Y-17100500D01*
X13441071Y-17171929D01*
X13426786Y-17229072D01*
X13412500Y-17257643D01*
X13398214Y-17271929D01*
X13369643Y-17286214D01*
X13341071Y-17286214D01*
X13312500Y-17271929D01*
X13298214Y-17257643D01*
X13283928Y-17229072D01*
X13269643Y-17171929D01*
X13269643Y-17100500D01*
X13283928Y-17043357D01*
X13298214Y-17014786D01*
X13312500Y-17000500D01*
X13341071Y-16986214D01*
X13541071Y-16986214D02*
X13726786Y-16986214D01*
X13626786Y-17100500D01*
X13669643Y-17100500D01*
X13698214Y-17114786D01*
X13712500Y-17129072D01*
X13726786Y-17157643D01*
X13726786Y-17229072D01*
X13712500Y-17257643D01*
X13698214Y-17271929D01*
X13669643Y-17286214D01*
X13583928Y-17286214D01*
X13555357Y-17271929D01*
X13541071Y-17257643D01*
X14012500Y-17286214D02*
X13841071Y-17286214D01*
X13926786Y-17286214D02*
X13926786Y-16986214D01*
X13898214Y-17029072D01*
X13869643Y-17057643D01*
X13841071Y-17071929D01*
X14126786Y-16986214D02*
X14126786Y-17043357D01*
X14241071Y-16986214D02*
X14241071Y-17043357D01*
X14683928Y-17400500D02*
X14669643Y-17386214D01*
X14641071Y-17343357D01*
X14626786Y-17314786D01*
X14612500Y-17271929D01*
X14598214Y-17200500D01*
X14598214Y-17143357D01*
X14612500Y-17071929D01*
X14626786Y-17029072D01*
X14641071Y-17000500D01*
X14669643Y-16957643D01*
X14683928Y-16943357D01*
X14769643Y-16986214D02*
X14955357Y-16986214D01*
X14855357Y-17100500D01*
X14898214Y-17100500D01*
X14926786Y-17114786D01*
X14941071Y-17129072D01*
X14955357Y-17157643D01*
X14955357Y-17229072D01*
X14941071Y-17257643D01*
X14926786Y-17271929D01*
X14898214Y-17286214D01*
X14812500Y-17286214D01*
X14783928Y-17271929D01*
X14769643Y-17257643D01*
X15126786Y-17114786D02*
X15098214Y-17100500D01*
X15083928Y-17086214D01*
X15069643Y-17057643D01*
X15069643Y-17043357D01*
X15083928Y-17014786D01*
X15098214Y-17000500D01*
X15126786Y-16986214D01*
X15183928Y-16986214D01*
X15212500Y-17000500D01*
X15226786Y-17014786D01*
X15241071Y-17043357D01*
X15241071Y-17057643D01*
X15226786Y-17086214D01*
X15212500Y-17100500D01*
X15183928Y-17114786D01*
X15126786Y-17114786D01*
X15098214Y-17129072D01*
X15083928Y-17143357D01*
X15069643Y-17171929D01*
X15069643Y-17229072D01*
X15083928Y-17257643D01*
X15098214Y-17271929D01*
X15126786Y-17286214D01*
X15183928Y-17286214D01*
X15212500Y-17271929D01*
X15226786Y-17257643D01*
X15241071Y-17229072D01*
X15241071Y-17171929D01*
X15226786Y-17143357D01*
X15212500Y-17129072D01*
X15183928Y-17114786D01*
X15598214Y-17286214D02*
X15598214Y-16986214D01*
X15726786Y-17286214D02*
X15726786Y-17129072D01*
X15712500Y-17100500D01*
X15683928Y-17086214D01*
X15641071Y-17086214D01*
X15612500Y-17100500D01*
X15598214Y-17114786D01*
X15912500Y-17286214D02*
X15883928Y-17271929D01*
X15869643Y-17257643D01*
X15855357Y-17229072D01*
X15855357Y-17143357D01*
X15869643Y-17114786D01*
X15883928Y-17100500D01*
X15912500Y-17086214D01*
X15955357Y-17086214D01*
X15983928Y-17100500D01*
X15998214Y-17114786D01*
X16012500Y-17143357D01*
X16012500Y-17229072D01*
X15998214Y-17257643D01*
X15983928Y-17271929D01*
X15955357Y-17286214D01*
X15912500Y-17286214D01*
X16183928Y-17286214D02*
X16155357Y-17271929D01*
X16141071Y-17243357D01*
X16141071Y-16986214D01*
X16412500Y-17271929D02*
X16383928Y-17286214D01*
X16326786Y-17286214D01*
X16298214Y-17271929D01*
X16283928Y-17243357D01*
X16283928Y-17129072D01*
X16298214Y-17100500D01*
X16326786Y-17086214D01*
X16383928Y-17086214D01*
X16412500Y-17100500D01*
X16426786Y-17129072D01*
X16426786Y-17157643D01*
X16283928Y-17186214D01*
X16541071Y-17271929D02*
X16569643Y-17286214D01*
X16626786Y-17286214D01*
X16655357Y-17271929D01*
X16669643Y-17243357D01*
X16669643Y-17229072D01*
X16655357Y-17200500D01*
X16626786Y-17186214D01*
X16583928Y-17186214D01*
X16555357Y-17171929D01*
X16541071Y-17143357D01*
X16541071Y-17129072D01*
X16555357Y-17100500D01*
X16583928Y-17086214D01*
X16626786Y-17086214D01*
X16655357Y-17100500D01*
X16769643Y-17400500D02*
X16783928Y-17386214D01*
X16812500Y-17343357D01*
X16826786Y-17314786D01*
X16841071Y-17271929D01*
X16855357Y-17200500D01*
X16855357Y-17143357D01*
X16841071Y-17071929D01*
X16826786Y-17029072D01*
X16812500Y-17000500D01*
X16783928Y-16957643D01*
X16769643Y-16943357D01*
X9952500Y-17591500D02*
X9997500Y-17546500D01*
X9952500Y-17501500D01*
X9907500Y-17546500D01*
X9952500Y-17591500D01*
X10341071Y-17382214D02*
X10369643Y-17382214D01*
X10398214Y-17396500D01*
X10412500Y-17410786D01*
X10426786Y-17439357D01*
X10441071Y-17496500D01*
X10441071Y-17567929D01*
X10426786Y-17625072D01*
X10412500Y-17653643D01*
X10398214Y-17667929D01*
X10369643Y-17682214D01*
X10341071Y-17682214D01*
X10312500Y-17667929D01*
X10298214Y-17653643D01*
X10283928Y-17625072D01*
X10269643Y-17567929D01*
X10269643Y-17496500D01*
X10283928Y-17439357D01*
X10298214Y-17410786D01*
X10312500Y-17396500D01*
X10341071Y-17382214D01*
X10569643Y-17653643D02*
X10583928Y-17667929D01*
X10569643Y-17682214D01*
X10555357Y-17667929D01*
X10569643Y-17653643D01*
X10569643Y-17682214D01*
X10726786Y-17682214D02*
X10783928Y-17682214D01*
X10812500Y-17667929D01*
X10826786Y-17653643D01*
X10855357Y-17610786D01*
X10869643Y-17553643D01*
X10869643Y-17439357D01*
X10855357Y-17410786D01*
X10841071Y-17396500D01*
X10812500Y-17382214D01*
X10755357Y-17382214D01*
X10726786Y-17396500D01*
X10712500Y-17410786D01*
X10698214Y-17439357D01*
X10698214Y-17510786D01*
X10712500Y-17539357D01*
X10726786Y-17553643D01*
X10755357Y-17567929D01*
X10812500Y-17567929D01*
X10841071Y-17553643D01*
X10855357Y-17539357D01*
X10869643Y-17510786D01*
X11055357Y-17382214D02*
X11083928Y-17382214D01*
X11112500Y-17396500D01*
X11126786Y-17410786D01*
X11141071Y-17439357D01*
X11155357Y-17496500D01*
X11155357Y-17567929D01*
X11141071Y-17625072D01*
X11126786Y-17653643D01*
X11112500Y-17667929D01*
X11083928Y-17682214D01*
X11055357Y-17682214D01*
X11026786Y-17667929D01*
X11012500Y-17653643D01*
X10998214Y-17625072D01*
X10983928Y-17567929D01*
X10983928Y-17496500D01*
X10998214Y-17439357D01*
X11012500Y-17410786D01*
X11026786Y-17396500D01*
X11055357Y-17382214D01*
X11283928Y-17682214D02*
X11283928Y-17482214D01*
X11283928Y-17510786D02*
X11298214Y-17496500D01*
X11326786Y-17482214D01*
X11369643Y-17482214D01*
X11398214Y-17496500D01*
X11412500Y-17525072D01*
X11412500Y-17682214D01*
X11412500Y-17525072D02*
X11426786Y-17496500D01*
X11455357Y-17482214D01*
X11498214Y-17482214D01*
X11526786Y-17496500D01*
X11541071Y-17525072D01*
X11541071Y-17682214D01*
X11683928Y-17682214D02*
X11683928Y-17482214D01*
X11683928Y-17510786D02*
X11698214Y-17496500D01*
X11726786Y-17482214D01*
X11769643Y-17482214D01*
X11798214Y-17496500D01*
X11812500Y-17525072D01*
X11812500Y-17682214D01*
X11812500Y-17525072D02*
X11826786Y-17496500D01*
X11855357Y-17482214D01*
X11898214Y-17482214D01*
X11926786Y-17496500D01*
X11941071Y-17525072D01*
X11941071Y-17682214D01*
X12526786Y-17367929D02*
X12269643Y-17753643D01*
X12912500Y-17382214D02*
X12941071Y-17382214D01*
X12969643Y-17396500D01*
X12983928Y-17410786D01*
X12998214Y-17439357D01*
X13012500Y-17496500D01*
X13012500Y-17567929D01*
X12998214Y-17625072D01*
X12983928Y-17653643D01*
X12969643Y-17667929D01*
X12941071Y-17682214D01*
X12912500Y-17682214D01*
X12883928Y-17667929D01*
X12869643Y-17653643D01*
X12855357Y-17625072D01*
X12841071Y-17567929D01*
X12841071Y-17496500D01*
X12855357Y-17439357D01*
X12869643Y-17410786D01*
X12883928Y-17396500D01*
X12912500Y-17382214D01*
X13141071Y-17653643D02*
X13155357Y-17667929D01*
X13141071Y-17682214D01*
X13126786Y-17667929D01*
X13141071Y-17653643D01*
X13141071Y-17682214D01*
X13341071Y-17382214D02*
X13369643Y-17382214D01*
X13398214Y-17396500D01*
X13412500Y-17410786D01*
X13426786Y-17439357D01*
X13441071Y-17496500D01*
X13441071Y-17567929D01*
X13426786Y-17625072D01*
X13412500Y-17653643D01*
X13398214Y-17667929D01*
X13369643Y-17682214D01*
X13341071Y-17682214D01*
X13312500Y-17667929D01*
X13298214Y-17653643D01*
X13283928Y-17625072D01*
X13269643Y-17567929D01*
X13269643Y-17496500D01*
X13283928Y-17439357D01*
X13298214Y-17410786D01*
X13312500Y-17396500D01*
X13341071Y-17382214D01*
X13541071Y-17382214D02*
X13726786Y-17382214D01*
X13626786Y-17496500D01*
X13669643Y-17496500D01*
X13698214Y-17510786D01*
X13712500Y-17525072D01*
X13726786Y-17553643D01*
X13726786Y-17625072D01*
X13712500Y-17653643D01*
X13698214Y-17667929D01*
X13669643Y-17682214D01*
X13583928Y-17682214D01*
X13555357Y-17667929D01*
X13541071Y-17653643D01*
X13998214Y-17382214D02*
X13855357Y-17382214D01*
X13841071Y-17525072D01*
X13855357Y-17510786D01*
X13883928Y-17496500D01*
X13955357Y-17496500D01*
X13983928Y-17510786D01*
X13998214Y-17525072D01*
X14012500Y-17553643D01*
X14012500Y-17625072D01*
X13998214Y-17653643D01*
X13983928Y-17667929D01*
X13955357Y-17682214D01*
X13883928Y-17682214D01*
X13855357Y-17667929D01*
X13841071Y-17653643D01*
X14126786Y-17382214D02*
X14126786Y-17439357D01*
X14241071Y-17382214D02*
X14241071Y-17439357D01*
X14683928Y-17796500D02*
X14669643Y-17782214D01*
X14641071Y-17739357D01*
X14626786Y-17710786D01*
X14612500Y-17667929D01*
X14598214Y-17596500D01*
X14598214Y-17539357D01*
X14612500Y-17467929D01*
X14626786Y-17425072D01*
X14641071Y-17396500D01*
X14669643Y-17353643D01*
X14683928Y-17339357D01*
X14926786Y-17482214D02*
X14926786Y-17682214D01*
X14855357Y-17367929D02*
X14783928Y-17582214D01*
X14969643Y-17582214D01*
X15312500Y-17682214D02*
X15312500Y-17382214D01*
X15441071Y-17682214D02*
X15441071Y-17525072D01*
X15426786Y-17496500D01*
X15398214Y-17482214D01*
X15355357Y-17482214D01*
X15326786Y-17496500D01*
X15312500Y-17510786D01*
X15626786Y-17682214D02*
X15598214Y-17667929D01*
X15583928Y-17653643D01*
X15569643Y-17625072D01*
X15569643Y-17539357D01*
X15583928Y-17510786D01*
X15598214Y-17496500D01*
X15626786Y-17482214D01*
X15669643Y-17482214D01*
X15698214Y-17496500D01*
X15712500Y-17510786D01*
X15726786Y-17539357D01*
X15726786Y-17625072D01*
X15712500Y-17653643D01*
X15698214Y-17667929D01*
X15669643Y-17682214D01*
X15626786Y-17682214D01*
X15898214Y-17682214D02*
X15869643Y-17667929D01*
X15855357Y-17639357D01*
X15855357Y-17382214D01*
X16126786Y-17667929D02*
X16098214Y-17682214D01*
X16041071Y-17682214D01*
X16012500Y-17667929D01*
X15998214Y-17639357D01*
X15998214Y-17525072D01*
X16012500Y-17496500D01*
X16041071Y-17482214D01*
X16098214Y-17482214D01*
X16126786Y-17496500D01*
X16141071Y-17525072D01*
X16141071Y-17553643D01*
X15998214Y-17582214D01*
X16255357Y-17667929D02*
X16283928Y-17682214D01*
X16341071Y-17682214D01*
X16369643Y-17667929D01*
X16383928Y-17639357D01*
X16383928Y-17625072D01*
X16369643Y-17596500D01*
X16341071Y-17582214D01*
X16298214Y-17582214D01*
X16269643Y-17567929D01*
X16255357Y-17539357D01*
X16255357Y-17525072D01*
X16269643Y-17496500D01*
X16298214Y-17482214D01*
X16341071Y-17482214D01*
X16369643Y-17496500D01*
X16483928Y-17796500D02*
X16498214Y-17782214D01*
X16526786Y-17739357D01*
X16541071Y-17710786D01*
X16555357Y-17667929D01*
X16569643Y-17596500D01*
X16569643Y-17539357D01*
X16555357Y-17467929D01*
X16541071Y-17425072D01*
X16526786Y-17396500D01*
X16498214Y-17353643D01*
X16483928Y-17339357D01*
X9897500Y-17892500D02*
X9997500Y-17992500D01*
X9997500Y-17892500D02*
X9897500Y-17992500D01*
X9997500Y-17942500D02*
G75*
G03*
X9997500Y-17942500I-50000J0D01*
G01*
X10441071Y-18078214D02*
X10269643Y-18078214D01*
X10355357Y-18078214D02*
X10355357Y-17778214D01*
X10326786Y-17821072D01*
X10298214Y-17849643D01*
X10269643Y-17863929D01*
X10569643Y-18049643D02*
X10583928Y-18063929D01*
X10569643Y-18078214D01*
X10555357Y-18063929D01*
X10569643Y-18049643D01*
X10569643Y-18078214D01*
X10769643Y-17778214D02*
X10798214Y-17778214D01*
X10826786Y-17792500D01*
X10841071Y-17806786D01*
X10855357Y-17835357D01*
X10869643Y-17892500D01*
X10869643Y-17963929D01*
X10855357Y-18021072D01*
X10841071Y-18049643D01*
X10826786Y-18063929D01*
X10798214Y-18078214D01*
X10769643Y-18078214D01*
X10741071Y-18063929D01*
X10726786Y-18049643D01*
X10712500Y-18021072D01*
X10698214Y-17963929D01*
X10698214Y-17892500D01*
X10712500Y-17835357D01*
X10726786Y-17806786D01*
X10741071Y-17792500D01*
X10769643Y-17778214D01*
X11055357Y-17778214D02*
X11083928Y-17778214D01*
X11112500Y-17792500D01*
X11126786Y-17806786D01*
X11141071Y-17835357D01*
X11155357Y-17892500D01*
X11155357Y-17963929D01*
X11141071Y-18021072D01*
X11126786Y-18049643D01*
X11112500Y-18063929D01*
X11083928Y-18078214D01*
X11055357Y-18078214D01*
X11026786Y-18063929D01*
X11012500Y-18049643D01*
X10998214Y-18021072D01*
X10983928Y-17963929D01*
X10983928Y-17892500D01*
X10998214Y-17835357D01*
X11012500Y-17806786D01*
X11026786Y-17792500D01*
X11055357Y-17778214D01*
X11283928Y-18078214D02*
X11283928Y-17878214D01*
X11283928Y-17906786D02*
X11298214Y-17892500D01*
X11326786Y-17878214D01*
X11369643Y-17878214D01*
X11398214Y-17892500D01*
X11412500Y-17921072D01*
X11412500Y-18078214D01*
X11412500Y-17921072D02*
X11426786Y-17892500D01*
X11455357Y-17878214D01*
X11498214Y-17878214D01*
X11526786Y-17892500D01*
X11541071Y-17921072D01*
X11541071Y-18078214D01*
X11683928Y-18078214D02*
X11683928Y-17878214D01*
X11683928Y-17906786D02*
X11698214Y-17892500D01*
X11726786Y-17878214D01*
X11769643Y-17878214D01*
X11798214Y-17892500D01*
X11812500Y-17921072D01*
X11812500Y-18078214D01*
X11812500Y-17921072D02*
X11826786Y-17892500D01*
X11855357Y-17878214D01*
X11898214Y-17878214D01*
X11926786Y-17892500D01*
X11941071Y-17921072D01*
X11941071Y-18078214D01*
X12526786Y-17763929D02*
X12269643Y-18149643D01*
X12912500Y-17778214D02*
X12941071Y-17778214D01*
X12969643Y-17792500D01*
X12983928Y-17806786D01*
X12998214Y-17835357D01*
X13012500Y-17892500D01*
X13012500Y-17963929D01*
X12998214Y-18021072D01*
X12983928Y-18049643D01*
X12969643Y-18063929D01*
X12941071Y-18078214D01*
X12912500Y-18078214D01*
X12883928Y-18063929D01*
X12869643Y-18049643D01*
X12855357Y-18021072D01*
X12841071Y-17963929D01*
X12841071Y-17892500D01*
X12855357Y-17835357D01*
X12869643Y-17806786D01*
X12883928Y-17792500D01*
X12912500Y-17778214D01*
X13141071Y-18049643D02*
X13155357Y-18063929D01*
X13141071Y-18078214D01*
X13126786Y-18063929D01*
X13141071Y-18049643D01*
X13141071Y-18078214D01*
X13341071Y-17778214D02*
X13369643Y-17778214D01*
X13398214Y-17792500D01*
X13412500Y-17806786D01*
X13426786Y-17835357D01*
X13441071Y-17892500D01*
X13441071Y-17963929D01*
X13426786Y-18021072D01*
X13412500Y-18049643D01*
X13398214Y-18063929D01*
X13369643Y-18078214D01*
X13341071Y-18078214D01*
X13312500Y-18063929D01*
X13298214Y-18049643D01*
X13283928Y-18021072D01*
X13269643Y-17963929D01*
X13269643Y-17892500D01*
X13283928Y-17835357D01*
X13298214Y-17806786D01*
X13312500Y-17792500D01*
X13341071Y-17778214D01*
X13541071Y-17778214D02*
X13726786Y-17778214D01*
X13626786Y-17892500D01*
X13669643Y-17892500D01*
X13698214Y-17906786D01*
X13712500Y-17921072D01*
X13726786Y-17949643D01*
X13726786Y-18021072D01*
X13712500Y-18049643D01*
X13698214Y-18063929D01*
X13669643Y-18078214D01*
X13583928Y-18078214D01*
X13555357Y-18063929D01*
X13541071Y-18049643D01*
X13869643Y-18078214D02*
X13926786Y-18078214D01*
X13955357Y-18063929D01*
X13969643Y-18049643D01*
X13998214Y-18006786D01*
X14012500Y-17949643D01*
X14012500Y-17835357D01*
X13998214Y-17806786D01*
X13983928Y-17792500D01*
X13955357Y-17778214D01*
X13898214Y-17778214D01*
X13869643Y-17792500D01*
X13855357Y-17806786D01*
X13841071Y-17835357D01*
X13841071Y-17906786D01*
X13855357Y-17935357D01*
X13869643Y-17949643D01*
X13898214Y-17963929D01*
X13955357Y-17963929D01*
X13983928Y-17949643D01*
X13998214Y-17935357D01*
X14012500Y-17906786D01*
X14126786Y-17778214D02*
X14126786Y-17835357D01*
X14241071Y-17778214D02*
X14241071Y-17835357D01*
X14683928Y-18192500D02*
X14669643Y-18178214D01*
X14641071Y-18135357D01*
X14626786Y-18106786D01*
X14612500Y-18063929D01*
X14598214Y-17992500D01*
X14598214Y-17935357D01*
X14612500Y-17863929D01*
X14626786Y-17821072D01*
X14641071Y-17792500D01*
X14669643Y-17749643D01*
X14683928Y-17735357D01*
X14955357Y-18078214D02*
X14783928Y-18078214D01*
X14869643Y-18078214D02*
X14869643Y-17778214D01*
X14841071Y-17821072D01*
X14812500Y-17849643D01*
X14783928Y-17863929D01*
X15241071Y-18078214D02*
X15069643Y-18078214D01*
X15155357Y-18078214D02*
X15155357Y-17778214D01*
X15126786Y-17821072D01*
X15098214Y-17849643D01*
X15069643Y-17863929D01*
X15355357Y-17806786D02*
X15369643Y-17792500D01*
X15398214Y-17778214D01*
X15469643Y-17778214D01*
X15498214Y-17792500D01*
X15512500Y-17806786D01*
X15526786Y-17835357D01*
X15526786Y-17863929D01*
X15512500Y-17906786D01*
X15341071Y-18078214D01*
X15526786Y-18078214D01*
X15883928Y-18078214D02*
X15883928Y-17778214D01*
X16012500Y-18078214D02*
X16012500Y-17921072D01*
X15998214Y-17892500D01*
X15969643Y-17878214D01*
X15926786Y-17878214D01*
X15898214Y-17892500D01*
X15883928Y-17906786D01*
X16198214Y-18078214D02*
X16169643Y-18063929D01*
X16155357Y-18049643D01*
X16141071Y-18021072D01*
X16141071Y-17935357D01*
X16155357Y-17906786D01*
X16169643Y-17892500D01*
X16198214Y-17878214D01*
X16241071Y-17878214D01*
X16269643Y-17892500D01*
X16283928Y-17906786D01*
X16298214Y-17935357D01*
X16298214Y-18021072D01*
X16283928Y-18049643D01*
X16269643Y-18063929D01*
X16241071Y-18078214D01*
X16198214Y-18078214D01*
X16469643Y-18078214D02*
X16441071Y-18063929D01*
X16426786Y-18035357D01*
X16426786Y-17778214D01*
X16698214Y-18063929D02*
X16669643Y-18078214D01*
X16612500Y-18078214D01*
X16583928Y-18063929D01*
X16569643Y-18035357D01*
X16569643Y-17921072D01*
X16583928Y-17892500D01*
X16612500Y-17878214D01*
X16669643Y-17878214D01*
X16698214Y-17892500D01*
X16712500Y-17921072D01*
X16712500Y-17949643D01*
X16569643Y-17978214D01*
X16826786Y-18063929D02*
X16855357Y-18078214D01*
X16912500Y-18078214D01*
X16941071Y-18063929D01*
X16955357Y-18035357D01*
X16955357Y-18021072D01*
X16941071Y-17992500D01*
X16912500Y-17978214D01*
X16869643Y-17978214D01*
X16841071Y-17963929D01*
X16826786Y-17935357D01*
X16826786Y-17921072D01*
X16841071Y-17892500D01*
X16869643Y-17878214D01*
X16912500Y-17878214D01*
X16941071Y-17892500D01*
X17055357Y-18192500D02*
X17069643Y-18178214D01*
X17098214Y-18135357D01*
X17112500Y-18106786D01*
X17126786Y-18063929D01*
X17141071Y-17992500D01*
X17141071Y-17935357D01*
X17126786Y-17863929D01*
X17112500Y-17821072D01*
X17098214Y-17792500D01*
X17069643Y-17749643D01*
X17055357Y-17735357D01*
X9887500Y-18283500D02*
X9997500Y-18393500D01*
X9997500Y-18283500D02*
X9887500Y-18393500D01*
X9942500Y-18283500D02*
X9942500Y-18393500D01*
X9887500Y-18338500D02*
X9997500Y-18338500D01*
X10441071Y-18474214D02*
X10269643Y-18474214D01*
X10355357Y-18474214D02*
X10355357Y-18174214D01*
X10326786Y-18217072D01*
X10298214Y-18245643D01*
X10269643Y-18259929D01*
X10569643Y-18445643D02*
X10583928Y-18459929D01*
X10569643Y-18474214D01*
X10555357Y-18459929D01*
X10569643Y-18445643D01*
X10569643Y-18474214D01*
X10869643Y-18474214D02*
X10698214Y-18474214D01*
X10783928Y-18474214D02*
X10783928Y-18174214D01*
X10755357Y-18217072D01*
X10726786Y-18245643D01*
X10698214Y-18259929D01*
X11055357Y-18174214D02*
X11083928Y-18174214D01*
X11112500Y-18188500D01*
X11126786Y-18202786D01*
X11141071Y-18231357D01*
X11155357Y-18288500D01*
X11155357Y-18359929D01*
X11141071Y-18417072D01*
X11126786Y-18445643D01*
X11112500Y-18459929D01*
X11083928Y-18474214D01*
X11055357Y-18474214D01*
X11026786Y-18459929D01*
X11012500Y-18445643D01*
X10998214Y-18417072D01*
X10983928Y-18359929D01*
X10983928Y-18288500D01*
X10998214Y-18231357D01*
X11012500Y-18202786D01*
X11026786Y-18188500D01*
X11055357Y-18174214D01*
X11283928Y-18474214D02*
X11283928Y-18274214D01*
X11283928Y-18302786D02*
X11298214Y-18288500D01*
X11326786Y-18274214D01*
X11369643Y-18274214D01*
X11398214Y-18288500D01*
X11412500Y-18317072D01*
X11412500Y-18474214D01*
X11412500Y-18317072D02*
X11426786Y-18288500D01*
X11455357Y-18274214D01*
X11498214Y-18274214D01*
X11526786Y-18288500D01*
X11541071Y-18317072D01*
X11541071Y-18474214D01*
X11683928Y-18474214D02*
X11683928Y-18274214D01*
X11683928Y-18302786D02*
X11698214Y-18288500D01*
X11726786Y-18274214D01*
X11769643Y-18274214D01*
X11798214Y-18288500D01*
X11812500Y-18317072D01*
X11812500Y-18474214D01*
X11812500Y-18317072D02*
X11826786Y-18288500D01*
X11855357Y-18274214D01*
X11898214Y-18274214D01*
X11926786Y-18288500D01*
X11941071Y-18317072D01*
X11941071Y-18474214D01*
X12526786Y-18159929D02*
X12269643Y-18545643D01*
X12912500Y-18174214D02*
X12941071Y-18174214D01*
X12969643Y-18188500D01*
X12983928Y-18202786D01*
X12998214Y-18231357D01*
X13012500Y-18288500D01*
X13012500Y-18359929D01*
X12998214Y-18417072D01*
X12983928Y-18445643D01*
X12969643Y-18459929D01*
X12941071Y-18474214D01*
X12912500Y-18474214D01*
X12883928Y-18459929D01*
X12869643Y-18445643D01*
X12855357Y-18417072D01*
X12841071Y-18359929D01*
X12841071Y-18288500D01*
X12855357Y-18231357D01*
X12869643Y-18202786D01*
X12883928Y-18188500D01*
X12912500Y-18174214D01*
X13141071Y-18445643D02*
X13155357Y-18459929D01*
X13141071Y-18474214D01*
X13126786Y-18459929D01*
X13141071Y-18445643D01*
X13141071Y-18474214D01*
X13341071Y-18174214D02*
X13369643Y-18174214D01*
X13398214Y-18188500D01*
X13412500Y-18202786D01*
X13426786Y-18231357D01*
X13441071Y-18288500D01*
X13441071Y-18359929D01*
X13426786Y-18417072D01*
X13412500Y-18445643D01*
X13398214Y-18459929D01*
X13369643Y-18474214D01*
X13341071Y-18474214D01*
X13312500Y-18459929D01*
X13298214Y-18445643D01*
X13283928Y-18417072D01*
X13269643Y-18359929D01*
X13269643Y-18288500D01*
X13283928Y-18231357D01*
X13298214Y-18202786D01*
X13312500Y-18188500D01*
X13341071Y-18174214D01*
X13698214Y-18274214D02*
X13698214Y-18474214D01*
X13626786Y-18159929D02*
X13555357Y-18374214D01*
X13741071Y-18374214D01*
X13826786Y-18174214D02*
X14012500Y-18174214D01*
X13912500Y-18288500D01*
X13955357Y-18288500D01*
X13983928Y-18302786D01*
X13998214Y-18317072D01*
X14012500Y-18345643D01*
X14012500Y-18417072D01*
X13998214Y-18445643D01*
X13983928Y-18459929D01*
X13955357Y-18474214D01*
X13869643Y-18474214D01*
X13841071Y-18459929D01*
X13826786Y-18445643D01*
X14126786Y-18174214D02*
X14126786Y-18231357D01*
X14241071Y-18174214D02*
X14241071Y-18231357D01*
X14683928Y-18588500D02*
X14669643Y-18574214D01*
X14641071Y-18531357D01*
X14626786Y-18502786D01*
X14612500Y-18459929D01*
X14598214Y-18388500D01*
X14598214Y-18331357D01*
X14612500Y-18259929D01*
X14626786Y-18217072D01*
X14641071Y-18188500D01*
X14669643Y-18145643D01*
X14683928Y-18131357D01*
X14769643Y-18174214D02*
X14955357Y-18174214D01*
X14855357Y-18288500D01*
X14898214Y-18288500D01*
X14926786Y-18302786D01*
X14941071Y-18317072D01*
X14955357Y-18345643D01*
X14955357Y-18417072D01*
X14941071Y-18445643D01*
X14926786Y-18459929D01*
X14898214Y-18474214D01*
X14812500Y-18474214D01*
X14783928Y-18459929D01*
X14769643Y-18445643D01*
X15312500Y-18474214D02*
X15312500Y-18174214D01*
X15441071Y-18474214D02*
X15441071Y-18317072D01*
X15426786Y-18288500D01*
X15398214Y-18274214D01*
X15355357Y-18274214D01*
X15326786Y-18288500D01*
X15312500Y-18302786D01*
X15626786Y-18474214D02*
X15598214Y-18459929D01*
X15583928Y-18445643D01*
X15569643Y-18417072D01*
X15569643Y-18331357D01*
X15583928Y-18302786D01*
X15598214Y-18288500D01*
X15626786Y-18274214D01*
X15669643Y-18274214D01*
X15698214Y-18288500D01*
X15712500Y-18302786D01*
X15726786Y-18331357D01*
X15726786Y-18417072D01*
X15712500Y-18445643D01*
X15698214Y-18459929D01*
X15669643Y-18474214D01*
X15626786Y-18474214D01*
X15898214Y-18474214D02*
X15869643Y-18459929D01*
X15855357Y-18431357D01*
X15855357Y-18174214D01*
X16126786Y-18459929D02*
X16098214Y-18474214D01*
X16041071Y-18474214D01*
X16012500Y-18459929D01*
X15998214Y-18431357D01*
X15998214Y-18317072D01*
X16012500Y-18288500D01*
X16041071Y-18274214D01*
X16098214Y-18274214D01*
X16126786Y-18288500D01*
X16141071Y-18317072D01*
X16141071Y-18345643D01*
X15998214Y-18374214D01*
X16255357Y-18459929D02*
X16283928Y-18474214D01*
X16341071Y-18474214D01*
X16369643Y-18459929D01*
X16383928Y-18431357D01*
X16383928Y-18417072D01*
X16369643Y-18388500D01*
X16341071Y-18374214D01*
X16298214Y-18374214D01*
X16269643Y-18359929D01*
X16255357Y-18331357D01*
X16255357Y-18317072D01*
X16269643Y-18288500D01*
X16298214Y-18274214D01*
X16341071Y-18274214D01*
X16369643Y-18288500D01*
X16483928Y-18588500D02*
X16498214Y-18574214D01*
X16526786Y-18531357D01*
X16541071Y-18502786D01*
X16555357Y-18459929D01*
X16569643Y-18388500D01*
X16569643Y-18331357D01*
X16555357Y-18259929D01*
X16541071Y-18217072D01*
X16526786Y-18188500D01*
X16498214Y-18145643D01*
X16483928Y-18131357D01*
X9677500Y-18574500D02*
X9997500Y-18894500D01*
X9997500Y-18574500D02*
X9677500Y-18894500D01*
X9950638Y-18847638D02*
X9950638Y-18621362D01*
X9724362Y-18621362D01*
X9724362Y-18847638D01*
X9950638Y-18847638D01*
X10255357Y-18570214D02*
X10441071Y-18570214D01*
X10341071Y-18684500D01*
X10383928Y-18684500D01*
X10412500Y-18698786D01*
X10426786Y-18713072D01*
X10441071Y-18741643D01*
X10441071Y-18813072D01*
X10426786Y-18841643D01*
X10412500Y-18855929D01*
X10383928Y-18870214D01*
X10298214Y-18870214D01*
X10269643Y-18855929D01*
X10255357Y-18841643D01*
X10569643Y-18841643D02*
X10583928Y-18855929D01*
X10569643Y-18870214D01*
X10555357Y-18855929D01*
X10569643Y-18841643D01*
X10569643Y-18870214D01*
X10698214Y-18598786D02*
X10712500Y-18584500D01*
X10741071Y-18570214D01*
X10812500Y-18570214D01*
X10841071Y-18584500D01*
X10855357Y-18598786D01*
X10869643Y-18627357D01*
X10869643Y-18655929D01*
X10855357Y-18698786D01*
X10683928Y-18870214D01*
X10869643Y-18870214D01*
X11055357Y-18570214D02*
X11083928Y-18570214D01*
X11112500Y-18584500D01*
X11126786Y-18598786D01*
X11141071Y-18627357D01*
X11155357Y-18684500D01*
X11155357Y-18755929D01*
X11141071Y-18813072D01*
X11126786Y-18841643D01*
X11112500Y-18855929D01*
X11083928Y-18870214D01*
X11055357Y-18870214D01*
X11026786Y-18855929D01*
X11012500Y-18841643D01*
X10998214Y-18813072D01*
X10983928Y-18755929D01*
X10983928Y-18684500D01*
X10998214Y-18627357D01*
X11012500Y-18598786D01*
X11026786Y-18584500D01*
X11055357Y-18570214D01*
X11283928Y-18870214D02*
X11283928Y-18670214D01*
X11283928Y-18698786D02*
X11298214Y-18684500D01*
X11326786Y-18670214D01*
X11369643Y-18670214D01*
X11398214Y-18684500D01*
X11412500Y-18713072D01*
X11412500Y-18870214D01*
X11412500Y-18713072D02*
X11426786Y-18684500D01*
X11455357Y-18670214D01*
X11498214Y-18670214D01*
X11526786Y-18684500D01*
X11541071Y-18713072D01*
X11541071Y-18870214D01*
X11683928Y-18870214D02*
X11683928Y-18670214D01*
X11683928Y-18698786D02*
X11698214Y-18684500D01*
X11726786Y-18670214D01*
X11769643Y-18670214D01*
X11798214Y-18684500D01*
X11812500Y-18713072D01*
X11812500Y-18870214D01*
X11812500Y-18713072D02*
X11826786Y-18684500D01*
X11855357Y-18670214D01*
X11898214Y-18670214D01*
X11926786Y-18684500D01*
X11941071Y-18713072D01*
X11941071Y-18870214D01*
X12526786Y-18555929D02*
X12269643Y-18941643D01*
X12912500Y-18570214D02*
X12941071Y-18570214D01*
X12969643Y-18584500D01*
X12983928Y-18598786D01*
X12998214Y-18627357D01*
X13012500Y-18684500D01*
X13012500Y-18755929D01*
X12998214Y-18813072D01*
X12983928Y-18841643D01*
X12969643Y-18855929D01*
X12941071Y-18870214D01*
X12912500Y-18870214D01*
X12883928Y-18855929D01*
X12869643Y-18841643D01*
X12855357Y-18813072D01*
X12841071Y-18755929D01*
X12841071Y-18684500D01*
X12855357Y-18627357D01*
X12869643Y-18598786D01*
X12883928Y-18584500D01*
X12912500Y-18570214D01*
X13141071Y-18841643D02*
X13155357Y-18855929D01*
X13141071Y-18870214D01*
X13126786Y-18855929D01*
X13141071Y-18841643D01*
X13141071Y-18870214D01*
X13441071Y-18870214D02*
X13269643Y-18870214D01*
X13355357Y-18870214D02*
X13355357Y-18570214D01*
X13326786Y-18613072D01*
X13298214Y-18641643D01*
X13269643Y-18655929D01*
X13555357Y-18598786D02*
X13569643Y-18584500D01*
X13598214Y-18570214D01*
X13669643Y-18570214D01*
X13698214Y-18584500D01*
X13712500Y-18598786D01*
X13726786Y-18627357D01*
X13726786Y-18655929D01*
X13712500Y-18698786D01*
X13541071Y-18870214D01*
X13726786Y-18870214D01*
X13983928Y-18570214D02*
X13926786Y-18570214D01*
X13898214Y-18584500D01*
X13883928Y-18598786D01*
X13855357Y-18641643D01*
X13841071Y-18698786D01*
X13841071Y-18813072D01*
X13855357Y-18841643D01*
X13869643Y-18855929D01*
X13898214Y-18870214D01*
X13955357Y-18870214D01*
X13983928Y-18855929D01*
X13998214Y-18841643D01*
X14012500Y-18813072D01*
X14012500Y-18741643D01*
X13998214Y-18713072D01*
X13983928Y-18698786D01*
X13955357Y-18684500D01*
X13898214Y-18684500D01*
X13869643Y-18698786D01*
X13855357Y-18713072D01*
X13841071Y-18741643D01*
X14126786Y-18570214D02*
X14126786Y-18627357D01*
X14241071Y-18570214D02*
X14241071Y-18627357D01*
X14683928Y-18984500D02*
X14669643Y-18970214D01*
X14641071Y-18927357D01*
X14626786Y-18898786D01*
X14612500Y-18855929D01*
X14598214Y-18784500D01*
X14598214Y-18727357D01*
X14612500Y-18655929D01*
X14626786Y-18613072D01*
X14641071Y-18584500D01*
X14669643Y-18541643D01*
X14683928Y-18527357D01*
X14926786Y-18670214D02*
X14926786Y-18870214D01*
X14855357Y-18555929D02*
X14783928Y-18770214D01*
X14969643Y-18770214D01*
X15312500Y-18870214D02*
X15312500Y-18570214D01*
X15441071Y-18870214D02*
X15441071Y-18713072D01*
X15426786Y-18684500D01*
X15398214Y-18670214D01*
X15355357Y-18670214D01*
X15326786Y-18684500D01*
X15312500Y-18698786D01*
X15626786Y-18870214D02*
X15598214Y-18855929D01*
X15583928Y-18841643D01*
X15569643Y-18813072D01*
X15569643Y-18727357D01*
X15583928Y-18698786D01*
X15598214Y-18684500D01*
X15626786Y-18670214D01*
X15669643Y-18670214D01*
X15698214Y-18684500D01*
X15712500Y-18698786D01*
X15726786Y-18727357D01*
X15726786Y-18813072D01*
X15712500Y-18841643D01*
X15698214Y-18855929D01*
X15669643Y-18870214D01*
X15626786Y-18870214D01*
X15898214Y-18870214D02*
X15869643Y-18855929D01*
X15855357Y-18827357D01*
X15855357Y-18570214D01*
X16126786Y-18855929D02*
X16098214Y-18870214D01*
X16041071Y-18870214D01*
X16012500Y-18855929D01*
X15998214Y-18827357D01*
X15998214Y-18713072D01*
X16012500Y-18684500D01*
X16041071Y-18670214D01*
X16098214Y-18670214D01*
X16126786Y-18684500D01*
X16141071Y-18713072D01*
X16141071Y-18741643D01*
X15998214Y-18770214D01*
X16255357Y-18855929D02*
X16283928Y-18870214D01*
X16341071Y-18870214D01*
X16369643Y-18855929D01*
X16383928Y-18827357D01*
X16383928Y-18813072D01*
X16369643Y-18784500D01*
X16341071Y-18770214D01*
X16298214Y-18770214D01*
X16269643Y-18755929D01*
X16255357Y-18727357D01*
X16255357Y-18713072D01*
X16269643Y-18684500D01*
X16298214Y-18670214D01*
X16341071Y-18670214D01*
X16369643Y-18684500D01*
X16483928Y-18984500D02*
X16498214Y-18970214D01*
X16526786Y-18927357D01*
X16541071Y-18898786D01*
X16555357Y-18855929D01*
X16569643Y-18784500D01*
X16569643Y-18727357D01*
X16555357Y-18655929D01*
X16541071Y-18613072D01*
X16526786Y-18584500D01*
X16498214Y-18541643D01*
X16483928Y-18527357D01*
M02*
