M48
; DRILL file {KiCad (5.1.9)-1} date 08/28/21 00:30:22
; FORMAT={-:-/ absolute / metric / decimal}
; #@! TF.CreationDate,2021-08-28T00:30:22+02:00
; #@! TF.GenerationSoftware,Kicad,Pcbnew,(5.1.9)-1
; #@! TF.FileFunction,Plated,1,2,PTH
FMAT,2
METRIC
T1C0.200
T2C0.400
T3C0.500
T4C0.800
T5C0.900
T6C1.000
T7C1.100
T8C3.200
%
G90
G05
T1
X108.8Y-122.1
X108.8Y-123.5
X110.0Y-122.1
X110.0Y-123.5
X111.2Y-122.1
X111.2Y-123.5
T2
X102.4Y-65.5
X105.3Y-121.2
X106.7Y-119.1
X107.5Y-66.6
X110.0Y-118.9
X111.6Y-85.2
X112.0Y-60.1
X112.0Y-101.9
X112.0Y-105.0
X112.0Y-108.5
X112.6Y-61.6
X112.862Y-122.037
X113.3Y-119.1
X113.7Y-143.6
X113.7Y-145.0
X114.6Y-60.9
X115.2Y-131.5
X116.1Y-131.0
X116.3Y-79.9
X116.5Y-63.1
X116.8Y-125.9
X117.1Y-129.6
X119.3Y-80.6
X119.4Y-62.4
X119.4Y-63.7
X123.1Y-59.0
X123.9Y-70.9
X123.9Y-69.1
X124.5Y-127.5
X126.1Y-68.0
X126.1Y-69.1
X126.2Y-73.7
X130.9Y-116.8
X132.5Y-137.3
X135.0Y-115.8
X135.0Y-116.8
X136.3Y-133.9
X136.6Y-109.6
X137.2Y-139.6
X139.2Y-65.9
X139.2Y-70.5
X140.1Y-67.8
X140.1Y-69.3
X140.8Y-62.1
X140.9Y-126.2
X141.6Y-65.4
X141.6Y-79.7
X144.2Y-100.2
X144.9Y-139.2
X146.1Y-54.0
X146.3Y-59.8
X146.6Y-66.3
X146.8Y-126.2
X147.1Y-134.2
X148.1Y-124.9
X148.5Y-115.8
X148.5Y-117.8
X148.6Y-106.5
X148.6Y-107.5
X148.9Y-134.2
X149.9Y-137.4
X150.4Y-98.3
X150.9Y-130.5
X152.1Y-94.5
X152.7Y-100.0
X152.7Y-104.0
X152.7Y-108.0
X152.7Y-112.0
X152.7Y-116.0
X152.7Y-120.0
X153.5Y-67.5
X154.8Y-66.3
X155.5Y-68.7
X155.5Y-80.5
X155.5Y-81.6
X156.1Y-139.0
X156.2Y-66.3
X156.7Y-128.0
X158.0Y-80.5
X158.0Y-89.2
X159.3Y-80.5
X160.1Y-64.7
X162.9Y-93.1
X163.1Y-63.7
X163.3Y-94.9
X163.4Y-76.1
T3
X102.6Y-55.0
X102.6Y-145.0
X103.303Y-53.303
X103.303Y-56.697
X103.303Y-143.303
X103.303Y-146.697
X105.0Y-52.6
X105.0Y-57.4
X105.0Y-142.6
X105.0Y-147.4
X106.697Y-53.303
X106.697Y-56.697
X106.697Y-143.303
X106.697Y-146.697
X107.4Y-55.0
X107.4Y-145.0
X162.6Y-55.0
X162.6Y-145.0
X163.303Y-53.303
X163.303Y-56.697
X163.303Y-143.303
X163.303Y-146.697
X165.0Y-52.6
X165.0Y-57.4
X165.0Y-142.6
X165.0Y-147.4
X166.697Y-53.303
X166.697Y-56.697
X166.697Y-143.303
X166.697Y-146.697
X167.4Y-55.0
X167.4Y-145.0
T4
X127.2Y-75.2
X128.3Y-128.9
X128.3Y-134.9
X129.74Y-75.2
X130.84Y-128.9
X130.84Y-134.9
X131.8Y-113.28
X131.8Y-120.9
X132.28Y-75.2
X133.38Y-128.9
X133.38Y-134.9
X134.34Y-113.28
X134.34Y-120.9
X136.88Y-113.28
X136.88Y-120.9
X139.42Y-113.28
X139.42Y-120.9
X141.2Y-129.4
X141.2Y-131.94
X141.2Y-134.48
X141.7Y-102.2
X141.7Y-108.2
X141.96Y-113.28
X141.96Y-120.9
X144.24Y-102.2
X144.24Y-108.2
X144.5Y-113.28
X144.5Y-120.9
X146.78Y-102.2
X146.78Y-108.2
X147.04Y-113.28
X147.04Y-120.9
X148.0Y-71.02
X148.0Y-73.56
X148.0Y-76.1
X152.8Y-129.4
X152.8Y-131.94
X152.8Y-134.48
T5
X150.5Y-84.3
X150.5Y-86.84
X165.0Y-72.0
X165.0Y-74.54
T6
X103.0Y-134.3
X103.0Y-138.3
X104.26Y-60.3
X105.0Y-86.0
X105.0Y-88.54
X105.0Y-91.08
X105.0Y-93.62
X105.0Y-96.16
X105.0Y-98.7
X105.0Y-101.24
X105.0Y-103.78
X105.0Y-106.32
X105.0Y-108.86
X105.0Y-111.4
X105.0Y-113.94
X105.54Y-134.3
X105.54Y-138.3
X106.8Y-60.3
X110.7Y-136.5
X110.7Y-140.5
X111.7Y-144.46
X111.7Y-147.0
X113.24Y-136.5
X113.24Y-140.5
X113.9Y-55.0
X115.7Y-144.5
X115.7Y-147.04
X115.78Y-136.5
X115.78Y-140.5
X116.44Y-55.0
X118.98Y-55.0
X119.7Y-142.0
X119.7Y-144.54
X119.7Y-147.08
X123.0Y-55.0
X123.7Y-142.0
X123.7Y-144.54
X123.7Y-147.08
X125.54Y-55.0
X127.84Y-147.0
X128.08Y-55.0
X130.38Y-147.0
X130.62Y-55.0
X132.92Y-147.0
X133.16Y-55.0
X135.46Y-147.0
X137.02Y-55.0
X137.9Y-143.2
X138.0Y-147.0
X139.56Y-55.0
X142.0Y-142.0
X142.0Y-144.54
X142.0Y-147.08
X142.1Y-55.0
X146.0Y-144.46
X146.0Y-147.0
X150.0Y-144.46
X150.0Y-147.0
X151.0Y-90.92
X151.0Y-93.46
X151.0Y-96.0
X154.0Y-142.0
X154.0Y-144.54
X154.0Y-147.08
X155.0Y-90.92
X155.0Y-93.46
X155.0Y-96.0
X158.0Y-142.0
X158.0Y-144.54
X158.0Y-147.08
X159.92Y-100.0
X159.92Y-104.0
X159.92Y-108.0
X159.92Y-112.0
X159.92Y-116.0
X159.92Y-120.0
X159.92Y-128.0
X160.0Y-136.0
X161.0Y-91.0
X161.0Y-93.54
X161.0Y-96.08
X162.46Y-100.0
X162.46Y-104.0
X162.46Y-108.0
X162.46Y-112.0
X162.46Y-116.0
X162.46Y-120.0
X162.46Y-124.0
X162.46Y-128.0
X162.46Y-132.0
X162.54Y-136.0
X165.0Y-78.38
X165.0Y-80.92
X165.0Y-83.46
X165.0Y-86.0
X165.0Y-91.0
X165.0Y-93.54
X165.0Y-96.08
X165.0Y-100.0
X165.0Y-104.0
X165.0Y-108.0
X165.0Y-112.0
X165.0Y-116.0
X165.0Y-120.0
X165.0Y-124.0
X165.0Y-128.0
X165.0Y-132.0
X165.08Y-136.0
T7
X103.0Y-63.4
X105.54Y-63.4
X108.08Y-63.4
T8
X105.0Y-55.0
X105.0Y-145.0
X165.0Y-55.0
X165.0Y-145.0
T0
M30
