%FSLAX45Y45*%
G04 Gerber Fmt 4.5, Leading zero omitted, Abs format (unit mm)*
G04 Created by KiCad (PCBNEW (5.1.9)-1) date 2021-08-29 17:24:41*
%MOMM*%
%LPD*%
G01*
G04 APERTURE LIST*
%TA.AperFunction,Profile*%
%ADD10C,0.050000*%
%TD*%
%ADD11C,0.200000*%
%ADD12C,0.300000*%
G04 APERTURE END LIST*
D10*
X16500000Y-5000000D02*
G75*
G02*
X17000000Y-5500000I0J-500000D01*
G01*
X17000000Y-14500000D02*
G75*
G02*
X16500000Y-15000000I-500000J0D01*
G01*
X10500000Y-15000000D02*
G75*
G02*
X10000000Y-14500000I0J500000D01*
G01*
X10000000Y-5500000D02*
G75*
G02*
X10500000Y-5000000I500000J0D01*
G01*
X10000000Y-5500000D02*
X10000000Y-14500000D01*
X16500000Y-5000000D02*
X10500000Y-5000000D01*
X17000000Y-14500000D02*
X17000000Y-5500000D01*
X10500000Y-15000000D02*
X16500000Y-15000000D01*
D11*
X10379000Y-7831000D02*
X10729000Y-8181000D01*
X10729000Y-7831000D02*
X10379000Y-8181000D01*
D12*
X10283928Y-15468214D02*
X10283928Y-15168214D01*
X10355357Y-15168214D01*
X10398214Y-15182500D01*
X10426786Y-15211071D01*
X10441071Y-15239643D01*
X10455357Y-15296786D01*
X10455357Y-15339643D01*
X10441071Y-15396786D01*
X10426786Y-15425357D01*
X10398214Y-15453929D01*
X10355357Y-15468214D01*
X10283928Y-15468214D01*
X10583928Y-15468214D02*
X10583928Y-15268214D01*
X10583928Y-15325357D02*
X10598214Y-15296786D01*
X10612500Y-15282500D01*
X10641071Y-15268214D01*
X10669643Y-15268214D01*
X10769643Y-15468214D02*
X10769643Y-15268214D01*
X10769643Y-15168214D02*
X10755357Y-15182500D01*
X10769643Y-15196786D01*
X10783928Y-15182500D01*
X10769643Y-15168214D01*
X10769643Y-15196786D01*
X10955357Y-15468214D02*
X10926786Y-15453929D01*
X10912500Y-15425357D01*
X10912500Y-15168214D01*
X11112500Y-15468214D02*
X11083928Y-15453929D01*
X11069643Y-15425357D01*
X11069643Y-15168214D01*
X11455357Y-15468214D02*
X11455357Y-15168214D01*
X11555357Y-15382500D01*
X11655357Y-15168214D01*
X11655357Y-15468214D01*
X11926786Y-15468214D02*
X11926786Y-15311071D01*
X11912500Y-15282500D01*
X11883928Y-15268214D01*
X11826786Y-15268214D01*
X11798214Y-15282500D01*
X11926786Y-15453929D02*
X11898214Y-15468214D01*
X11826786Y-15468214D01*
X11798214Y-15453929D01*
X11783928Y-15425357D01*
X11783928Y-15396786D01*
X11798214Y-15368214D01*
X11826786Y-15353929D01*
X11898214Y-15353929D01*
X11926786Y-15339643D01*
X12069643Y-15268214D02*
X12069643Y-15568214D01*
X12069643Y-15282500D02*
X12098214Y-15268214D01*
X12155357Y-15268214D01*
X12183928Y-15282500D01*
X12198214Y-15296786D01*
X12212500Y-15325357D01*
X12212500Y-15411071D01*
X12198214Y-15439643D01*
X12183928Y-15453929D01*
X12155357Y-15468214D01*
X12098214Y-15468214D01*
X12069643Y-15453929D01*
X12341071Y-15439643D02*
X12355357Y-15453929D01*
X12341071Y-15468214D01*
X12326786Y-15453929D01*
X12341071Y-15439643D01*
X12341071Y-15468214D01*
X12341071Y-15282500D02*
X12355357Y-15296786D01*
X12341071Y-15311071D01*
X12326786Y-15296786D01*
X12341071Y-15282500D01*
X12341071Y-15311071D01*
X9647500Y-15787500D02*
X9997500Y-16137500D01*
X9997500Y-15787500D02*
X9647500Y-16137500D01*
X10255357Y-15798214D02*
X10441071Y-15798214D01*
X10341071Y-15912500D01*
X10383928Y-15912500D01*
X10412500Y-15926786D01*
X10426786Y-15941071D01*
X10441071Y-15969643D01*
X10441071Y-16041071D01*
X10426786Y-16069643D01*
X10412500Y-16083929D01*
X10383928Y-16098214D01*
X10298214Y-16098214D01*
X10269643Y-16083929D01*
X10255357Y-16069643D01*
X10569643Y-16069643D02*
X10583928Y-16083929D01*
X10569643Y-16098214D01*
X10555357Y-16083929D01*
X10569643Y-16069643D01*
X10569643Y-16098214D01*
X10855357Y-15798214D02*
X10712500Y-15798214D01*
X10698214Y-15941071D01*
X10712500Y-15926786D01*
X10741071Y-15912500D01*
X10812500Y-15912500D01*
X10841071Y-15926786D01*
X10855357Y-15941071D01*
X10869643Y-15969643D01*
X10869643Y-16041071D01*
X10855357Y-16069643D01*
X10841071Y-16083929D01*
X10812500Y-16098214D01*
X10741071Y-16098214D01*
X10712500Y-16083929D01*
X10698214Y-16069643D01*
X11055357Y-15798214D02*
X11083928Y-15798214D01*
X11112500Y-15812500D01*
X11126786Y-15826786D01*
X11141071Y-15855357D01*
X11155357Y-15912500D01*
X11155357Y-15983929D01*
X11141071Y-16041071D01*
X11126786Y-16069643D01*
X11112500Y-16083929D01*
X11083928Y-16098214D01*
X11055357Y-16098214D01*
X11026786Y-16083929D01*
X11012500Y-16069643D01*
X10998214Y-16041071D01*
X10983928Y-15983929D01*
X10983928Y-15912500D01*
X10998214Y-15855357D01*
X11012500Y-15826786D01*
X11026786Y-15812500D01*
X11055357Y-15798214D01*
X11283928Y-16098214D02*
X11283928Y-15898214D01*
X11283928Y-15926786D02*
X11298214Y-15912500D01*
X11326786Y-15898214D01*
X11369643Y-15898214D01*
X11398214Y-15912500D01*
X11412500Y-15941071D01*
X11412500Y-16098214D01*
X11412500Y-15941071D02*
X11426786Y-15912500D01*
X11455357Y-15898214D01*
X11498214Y-15898214D01*
X11526786Y-15912500D01*
X11541071Y-15941071D01*
X11541071Y-16098214D01*
X11683928Y-16098214D02*
X11683928Y-15898214D01*
X11683928Y-15926786D02*
X11698214Y-15912500D01*
X11726786Y-15898214D01*
X11769643Y-15898214D01*
X11798214Y-15912500D01*
X11812500Y-15941071D01*
X11812500Y-16098214D01*
X11812500Y-15941071D02*
X11826786Y-15912500D01*
X11855357Y-15898214D01*
X11898214Y-15898214D01*
X11926786Y-15912500D01*
X11941071Y-15941071D01*
X11941071Y-16098214D01*
X12526786Y-15783929D02*
X12269643Y-16169643D01*
X12912500Y-15798214D02*
X12941071Y-15798214D01*
X12969643Y-15812500D01*
X12983928Y-15826786D01*
X12998214Y-15855357D01*
X13012500Y-15912500D01*
X13012500Y-15983929D01*
X12998214Y-16041071D01*
X12983928Y-16069643D01*
X12969643Y-16083929D01*
X12941071Y-16098214D01*
X12912500Y-16098214D01*
X12883928Y-16083929D01*
X12869643Y-16069643D01*
X12855357Y-16041071D01*
X12841071Y-15983929D01*
X12841071Y-15912500D01*
X12855357Y-15855357D01*
X12869643Y-15826786D01*
X12883928Y-15812500D01*
X12912500Y-15798214D01*
X13141071Y-16069643D02*
X13155357Y-16083929D01*
X13141071Y-16098214D01*
X13126786Y-16083929D01*
X13141071Y-16069643D01*
X13141071Y-16098214D01*
X13441071Y-16098214D02*
X13269643Y-16098214D01*
X13355357Y-16098214D02*
X13355357Y-15798214D01*
X13326786Y-15841071D01*
X13298214Y-15869643D01*
X13269643Y-15883929D01*
X13541071Y-15798214D02*
X13726786Y-15798214D01*
X13626786Y-15912500D01*
X13669643Y-15912500D01*
X13698214Y-15926786D01*
X13712500Y-15941071D01*
X13726786Y-15969643D01*
X13726786Y-16041071D01*
X13712500Y-16069643D01*
X13698214Y-16083929D01*
X13669643Y-16098214D01*
X13583928Y-16098214D01*
X13555357Y-16083929D01*
X13541071Y-16069643D01*
X13898214Y-15926786D02*
X13869643Y-15912500D01*
X13855357Y-15898214D01*
X13841071Y-15869643D01*
X13841071Y-15855357D01*
X13855357Y-15826786D01*
X13869643Y-15812500D01*
X13898214Y-15798214D01*
X13955357Y-15798214D01*
X13983928Y-15812500D01*
X13998214Y-15826786D01*
X14012500Y-15855357D01*
X14012500Y-15869643D01*
X13998214Y-15898214D01*
X13983928Y-15912500D01*
X13955357Y-15926786D01*
X13898214Y-15926786D01*
X13869643Y-15941071D01*
X13855357Y-15955357D01*
X13841071Y-15983929D01*
X13841071Y-16041071D01*
X13855357Y-16069643D01*
X13869643Y-16083929D01*
X13898214Y-16098214D01*
X13955357Y-16098214D01*
X13983928Y-16083929D01*
X13998214Y-16069643D01*
X14012500Y-16041071D01*
X14012500Y-15983929D01*
X13998214Y-15955357D01*
X13983928Y-15941071D01*
X13955357Y-15926786D01*
X14126786Y-15798214D02*
X14126786Y-15855357D01*
X14241071Y-15798214D02*
X14241071Y-15855357D01*
X14683928Y-16212500D02*
X14669643Y-16198214D01*
X14641071Y-16155357D01*
X14626786Y-16126786D01*
X14612500Y-16083929D01*
X14598214Y-16012500D01*
X14598214Y-15955357D01*
X14612500Y-15883929D01*
X14626786Y-15841071D01*
X14641071Y-15812500D01*
X14669643Y-15769643D01*
X14683928Y-15755357D01*
X14955357Y-16098214D02*
X14783928Y-16098214D01*
X14869643Y-16098214D02*
X14869643Y-15798214D01*
X14841071Y-15841071D01*
X14812500Y-15869643D01*
X14783928Y-15883929D01*
X15312500Y-16098214D02*
X15312500Y-15798214D01*
X15441071Y-16098214D02*
X15441071Y-15941071D01*
X15426786Y-15912500D01*
X15398214Y-15898214D01*
X15355357Y-15898214D01*
X15326786Y-15912500D01*
X15312500Y-15926786D01*
X15626786Y-16098214D02*
X15598214Y-16083929D01*
X15583928Y-16069643D01*
X15569643Y-16041071D01*
X15569643Y-15955357D01*
X15583928Y-15926786D01*
X15598214Y-15912500D01*
X15626786Y-15898214D01*
X15669643Y-15898214D01*
X15698214Y-15912500D01*
X15712500Y-15926786D01*
X15726786Y-15955357D01*
X15726786Y-16041071D01*
X15712500Y-16069643D01*
X15698214Y-16083929D01*
X15669643Y-16098214D01*
X15626786Y-16098214D01*
X15898214Y-16098214D02*
X15869643Y-16083929D01*
X15855357Y-16055357D01*
X15855357Y-15798214D01*
X16126786Y-16083929D02*
X16098214Y-16098214D01*
X16041071Y-16098214D01*
X16012500Y-16083929D01*
X15998214Y-16055357D01*
X15998214Y-15941071D01*
X16012500Y-15912500D01*
X16041071Y-15898214D01*
X16098214Y-15898214D01*
X16126786Y-15912500D01*
X16141071Y-15941071D01*
X16141071Y-15969643D01*
X15998214Y-15998214D01*
X16241071Y-16212500D02*
X16255357Y-16198214D01*
X16283928Y-16155357D01*
X16298214Y-16126786D01*
X16312500Y-16083929D01*
X16326786Y-16012500D01*
X16326786Y-15955357D01*
X16312500Y-15883929D01*
X16298214Y-15841071D01*
X16283928Y-15812500D01*
X16255357Y-15769643D01*
X16241071Y-15755357D01*
X16783928Y-16212500D02*
X16769643Y-16198214D01*
X16741071Y-16155357D01*
X16726786Y-16126786D01*
X16712500Y-16083929D01*
X16698214Y-16012500D01*
X16698214Y-15955357D01*
X16712500Y-15883929D01*
X16726786Y-15841071D01*
X16741071Y-15812500D01*
X16769643Y-15769643D01*
X16783928Y-15755357D01*
X16898214Y-15898214D02*
X16898214Y-16098214D01*
X16898214Y-15926786D02*
X16912500Y-15912500D01*
X16941071Y-15898214D01*
X16983928Y-15898214D01*
X17012500Y-15912500D01*
X17026786Y-15941071D01*
X17026786Y-16098214D01*
X17212500Y-16098214D02*
X17183928Y-16083929D01*
X17169643Y-16069643D01*
X17155357Y-16041071D01*
X17155357Y-15955357D01*
X17169643Y-15926786D01*
X17183928Y-15912500D01*
X17212500Y-15898214D01*
X17255357Y-15898214D01*
X17283928Y-15912500D01*
X17298214Y-15926786D01*
X17312500Y-15955357D01*
X17312500Y-16041071D01*
X17298214Y-16069643D01*
X17283928Y-16083929D01*
X17255357Y-16098214D01*
X17212500Y-16098214D01*
X17398214Y-15898214D02*
X17512500Y-15898214D01*
X17441071Y-15798214D02*
X17441071Y-16055357D01*
X17455357Y-16083929D01*
X17483928Y-16098214D01*
X17512500Y-16098214D01*
X17841071Y-15898214D02*
X17841071Y-16198214D01*
X17841071Y-15912500D02*
X17869643Y-15898214D01*
X17926786Y-15898214D01*
X17955357Y-15912500D01*
X17969643Y-15926786D01*
X17983928Y-15955357D01*
X17983928Y-16041071D01*
X17969643Y-16069643D01*
X17955357Y-16083929D01*
X17926786Y-16098214D01*
X17869643Y-16098214D01*
X17841071Y-16083929D01*
X18155357Y-16098214D02*
X18126786Y-16083929D01*
X18112500Y-16055357D01*
X18112500Y-15798214D01*
X18398214Y-16098214D02*
X18398214Y-15941071D01*
X18383928Y-15912500D01*
X18355357Y-15898214D01*
X18298214Y-15898214D01*
X18269643Y-15912500D01*
X18398214Y-16083929D02*
X18369643Y-16098214D01*
X18298214Y-16098214D01*
X18269643Y-16083929D01*
X18255357Y-16055357D01*
X18255357Y-16026786D01*
X18269643Y-15998214D01*
X18298214Y-15983929D01*
X18369643Y-15983929D01*
X18398214Y-15969643D01*
X18498214Y-15898214D02*
X18612500Y-15898214D01*
X18541071Y-15798214D02*
X18541071Y-16055357D01*
X18555357Y-16083929D01*
X18583928Y-16098214D01*
X18612500Y-16098214D01*
X18826786Y-16083929D02*
X18798214Y-16098214D01*
X18741071Y-16098214D01*
X18712500Y-16083929D01*
X18698214Y-16055357D01*
X18698214Y-15941071D01*
X18712500Y-15912500D01*
X18741071Y-15898214D01*
X18798214Y-15898214D01*
X18826786Y-15912500D01*
X18841071Y-15941071D01*
X18841071Y-15969643D01*
X18698214Y-15998214D01*
X19098214Y-16098214D02*
X19098214Y-15798214D01*
X19098214Y-16083929D02*
X19069643Y-16098214D01*
X19012500Y-16098214D01*
X18983928Y-16083929D01*
X18969643Y-16069643D01*
X18955357Y-16041071D01*
X18955357Y-15955357D01*
X18969643Y-15926786D01*
X18983928Y-15912500D01*
X19012500Y-15898214D01*
X19069643Y-15898214D01*
X19098214Y-15912500D01*
X19212500Y-16212500D02*
X19226786Y-16198214D01*
X19255357Y-16155357D01*
X19269643Y-16126786D01*
X19283928Y-16083929D01*
X19298214Y-16012500D01*
X19298214Y-15955357D01*
X19283928Y-15883929D01*
X19269643Y-15841071D01*
X19255357Y-15812500D01*
X19226786Y-15769643D01*
X19212500Y-15755357D01*
M02*
